<svg width="130.000000" height="130.000000" viewBox="0 0 130 130" fill="none" xmlns="http://www.w3.org/2000/svg" xmlns:xlink="http://www.w3.org/1999/xlink">
	<desc>
			Created with Pixso.
	</desc>
	<defs/>
	<path id="Vector" d="M0 0L130 0L130 130L0 130L0 0Z" fill="#FFFFFF" fill-opacity="1.000000" fill-rule="evenodd"/>
	<path id="Vector" d="M19.9199 16L16 16L16 43.4399L43.4404 43.4399L43.4404 16L19.9199 16ZM19.9199 19.9199L39.5195 19.9199L39.5195 39.52L19.9199 39.52L19.9199 19.9199ZM51.2803 16L47.3604 16L47.3604 19.9199L51.2803 19.9199L51.2803 27.76L55.2002 27.76L55.2002 16L51.2803 16ZM63.04 16L59.1201 16L59.1201 31.6799L63.04 31.6799L63.04 23.8401L66.96 23.8401L66.96 19.9199L70.8799 19.9199L70.8799 16L63.04 16ZM82.6396 16L78.7197 16L78.7197 23.8401L66.96 23.8401L66.96 27.76L70.8799 27.76L70.8799 31.6799L63.04 31.6799L63.04 43.4399L59.1201 43.4399L59.1201 47.3601L66.96 47.3601L66.96 35.6001L74.7998 35.6001L74.7998 39.52L78.7197 39.52L78.7197 35.6001L82.6396 35.6001L82.6396 16ZM90.4805 16L86.5596 16L86.5596 43.4399L114 43.4399L114 16L90.4805 16ZM90.4805 19.9199L110.08 19.9199L110.08 39.52L90.4805 39.52L90.4805 19.9199ZM27.7598 23.8401L23.8398 23.8401L23.8398 35.6001L35.5996 35.6001L35.5996 23.8401L27.7598 23.8401ZM74.7998 27.76L78.7197 27.76L78.7197 31.6799L74.7998 31.6799L74.7998 27.76ZM98.3203 23.8401L94.4004 23.8401L94.4004 35.6001L106.16 35.6001L106.16 23.8401L98.3203 23.8401ZM51.2803 31.6799L47.3604 31.6799L47.3604 35.6001L51.2803 35.6001L51.2803 31.6799ZM51.2803 39.52L47.3604 39.52L47.3604 47.3601L27.7598 47.3601L27.7598 51.28L47.3604 51.28L47.3604 55.2L51.2803 55.2L51.2803 59.1201L55.2002 59.1201L55.2002 55.2L59.1201 55.2L59.1201 66.96L55.2002 66.96L55.2002 78.72L59.1201 78.72L59.1201 82.6399L55.2002 82.6399L55.2002 94.3999L59.1201 94.3999L59.1201 86.5601L63.04 86.5601L63.04 94.3999L66.96 94.3999L66.96 82.6399L63.04 82.6399L63.04 74.8L59.1201 74.8L59.1201 70.8799L66.96 70.8799L66.96 74.8L70.8799 74.8L70.8799 66.96L66.96 66.96L66.96 63.04L63.04 63.04L63.04 59.1201L66.96 59.1201L66.96 55.2L74.7998 55.2L74.7998 47.3601L78.7197 47.3601L78.7197 51.28L90.4805 51.28L90.4805 47.3601L82.6396 47.3601L82.6396 39.52L78.7197 39.52L78.7197 43.4399L74.7998 43.4399L74.7998 39.52L70.8799 39.52L70.8799 51.28L51.2803 51.28L51.2803 39.52ZM59.1201 39.52L55.2002 39.52L55.2002 43.4399L59.1201 43.4399L59.1201 39.52ZM19.9199 47.3601L16 47.3601L16 51.28L19.9199 51.28L19.9199 47.3601ZM98.3203 47.3601L94.4004 47.3601L94.4004 59.1201L98.3203 59.1201L98.3203 47.3601ZM114 47.3601L110.08 47.3601L110.08 51.28L106.16 51.28L106.16 55.2L110.08 55.2L110.08 63.04L114 63.04L114 47.3601ZM23.8398 51.28L19.9199 51.28L19.9199 55.2L23.8398 55.2L23.8398 59.1201L31.6797 59.1201L31.6797 63.04L39.5195 63.04L39.5195 59.1201L47.3604 59.1201L47.3604 55.2L27.7598 55.2L27.7598 51.28L23.8398 51.28ZM90.4805 55.2L86.5596 55.2L86.5596 63.04L82.6396 63.04L82.6396 66.96L86.5596 66.96L86.5596 78.72L82.6396 78.72L82.6396 66.96L78.7197 66.96L78.7197 70.8799L74.7998 70.8799L74.7998 74.8L78.7197 74.8L78.7197 98.3201L86.5596 98.3201L86.5596 106.16L94.4004 106.16L94.4004 102.24L90.4805 102.24L90.4805 98.3201L98.3203 98.3201L98.3203 90.48L102.24 90.48L102.24 94.3999L106.16 94.3999L106.16 90.48L110.08 90.48L110.08 94.3999L106.16 94.3999L106.16 98.3201L114 98.3201L114 82.6399L110.08 82.6399L110.08 86.5601L106.16 86.5601L106.16 78.72L110.08 78.72L110.08 74.8L114 74.8L114 66.96L110.08 66.96L110.08 70.8799L106.16 70.8799L106.16 74.8L102.24 74.8L102.24 82.6399L98.3203 82.6399L98.3203 78.72L94.4004 78.72L94.4004 74.8L90.4805 74.8L90.4805 70.8799L98.3203 70.8799L98.3203 74.8L102.24 74.8L102.24 66.96L98.3203 66.96L98.3203 63.04L94.4004 63.04L94.4004 66.96L90.4805 66.96L90.4805 63.04L94.4004 63.04L94.4004 59.1201L90.4805 59.1201L90.4805 55.2ZM19.9199 59.1201L16 59.1201L16 66.96L23.8398 66.96L23.8398 63.04L19.9199 63.04L19.9199 59.1201ZM51.2803 59.1201L47.3604 59.1201L47.3604 70.8799L39.5195 70.8799L39.5195 66.96L31.6797 66.96L31.6797 70.8799L27.7598 70.8799L27.7598 74.8L23.8398 74.8L23.8398 78.72L19.9199 78.72L19.9199 82.6399L35.5996 82.6399L35.5996 78.72L31.6797 78.72L31.6797 74.8L35.5996 74.8L35.5996 78.72L39.5195 78.72L39.5195 74.8L47.3604 74.8L47.3604 102.24L51.2803 102.24L51.2803 98.3201L55.2002 98.3201L55.2002 94.3999L51.2803 94.3999L51.2803 59.1201ZM82.6396 59.1201L78.7197 59.1201L78.7197 63.04L82.6396 63.04L82.6396 59.1201ZM43.4404 63.04L39.5195 63.04L39.5195 66.96L43.4404 66.96L43.4404 63.04ZM78.7197 63.04L74.7998 63.04L74.7998 66.96L78.7197 66.96L78.7197 63.04ZM110.08 63.04L106.16 63.04L106.16 66.96L110.08 66.96L110.08 63.04ZM27.7598 66.96L23.8398 66.96L23.8398 70.8799L27.7598 70.8799L27.7598 66.96ZM43.4404 78.72L39.5195 78.72L39.5195 82.6399L43.4404 82.6399L43.4404 78.72ZM70.8799 78.72L66.96 78.72L66.96 82.6399L70.8799 82.6399L70.8799 86.5601L74.7998 86.5601L74.7998 78.72L70.8799 78.72ZM82.6396 82.6399L94.4004 82.6399L94.4004 94.3999L82.6396 94.3999L82.6396 82.6399ZM19.9199 86.5601L16 86.5601L16 114L43.4404 114L43.4404 86.5601L19.9199 86.5601ZM19.9199 90.48L39.5195 90.48L39.5195 110.08L19.9199 110.08L19.9199 90.48ZM90.4805 86.5601L86.5596 86.5601L86.5596 90.48L90.4805 90.48L90.4805 86.5601ZM27.7598 94.3999L23.8398 94.3999L23.8398 106.16L35.5996 106.16L35.5996 94.3999L27.7598 94.3999ZM70.8799 94.3999L66.96 94.3999L66.96 102.24L59.1201 102.24L59.1201 98.3201L55.2002 98.3201L55.2002 102.24L51.2803 102.24L51.2803 106.16L63.04 106.16L63.04 110.08L66.96 110.08L66.96 106.16L70.8799 106.16L70.8799 102.24L74.7998 102.24L74.7998 106.16L74.7998 114L78.7197 114L78.7197 106.16L82.6396 106.16L82.6396 102.24L78.7197 102.24L78.7197 98.3201L74.7998 98.3201L74.7998 94.3999L70.8799 94.3999ZM106.16 102.24L102.24 102.24L102.24 110.08L110.08 110.08L110.08 114L114 114L114 102.24L106.16 102.24ZM98.3203 106.16L94.4004 106.16L94.4004 110.08L98.3203 110.08L98.3203 106.16ZM51.2803 110.08L47.3604 110.08L47.3604 114L51.2803 114L51.2803 110.08ZM63.04 110.08L59.1201 110.08L59.1201 114L63.04 114L63.04 110.08ZM86.5596 110.08L82.6396 110.08L82.6396 114L86.5596 114L86.5596 110.08ZM102.24 110.08L98.3203 110.08L98.3203 114L102.24 114L102.24 110.08Z" fill="#000000" fill-opacity="1.000000" fill-rule="evenodd"/>
</svg>
