<svg width="188.817383" height="75.149414" viewBox="0 0 188.817 75.1494" fill="none" xmlns="http://www.w3.org/2000/svg" xmlns:xlink="http://www.w3.org/1999/xlink">
	<desc>
			Created with Pixso.
	</desc>
	<defs/>
	<path id="Vector" d="M16.0732 30.1516L16.0732 30.505C15.7197 30.515 15.4521 30.5605 15.2656 30.6362C15.084 30.7119 14.9619 30.8533 14.9014 31.0603C14.8408 31.2672 14.8105 31.5903 14.8105 32.0244L14.8105 40.8131C14.8105 41.2371 14.8408 41.5552 14.9072 41.7722C14.9727 41.9843 15.0938 42.1256 15.2705 42.1963C15.4473 42.267 15.7148 42.3124 16.0684 42.3376L16.0684 42.6909C15.6992 42.6656 15.2354 42.6505 14.6699 42.6455C14.1045 42.6405 13.5234 42.6354 12.9326 42.6354C12.2969 42.6354 11.6963 42.6405 11.1357 42.6455C10.5752 42.6505 10.1211 42.6656 9.77832 42.6909L9.77832 42.3376C10.1816 42.3124 10.4844 42.267 10.6914 42.1963C10.8984 42.1256 11.0352 41.9843 11.1104 41.7722C11.1816 41.5602 11.2168 41.2422 11.2168 40.8131L11.2168 31.3379L11.3936 31.3026L6.94629 42.6809L6.66309 42.6809L1.66602 31.3026L1.66602 39.228C1.66602 40.0205 1.69629 40.6263 1.76172 41.0453C1.82715 41.4642 1.9834 41.7672 2.24121 41.9489C2.49414 42.1306 2.89746 42.267 3.45312 42.3477L3.45312 42.701C3.21582 42.6758 2.90723 42.6606 2.5293 42.6556C2.15039 42.6505 1.79688 42.6455 1.46387 42.6455C1.20117 42.6455 0.938477 42.6505 0.666016 42.6556C0.404297 42.6606 0.176758 42.6758 0 42.701L0 42.3477C0.368164 42.267 0.635742 42.1356 0.8125 41.9691C0.989258 41.7975 1.10547 41.5249 1.16602 41.1462C1.22656 40.7677 1.25684 40.2477 1.25684 39.5864L1.25684 32.0295C1.25684 31.5903 1.22656 31.2722 1.16602 31.0653C1.10547 30.8583 0.984375 30.717 0.802734 30.6412C0.621094 30.5656 0.353516 30.5201 0 30.505L0 30.1516C0.176758 30.1617 0.404297 30.1769 0.671875 30.1869C0.944336 30.197 1.20605 30.2072 1.46875 30.2072C2.15527 30.2072 2.81152 30.2021 3.4375 30.1869C4.06348 30.1769 4.62891 30.1617 5.13867 30.1516L8.64746 38.0569L8.11719 38.6425L11.3936 30.2072C11.6309 30.2072 11.8828 30.2072 12.1553 30.2072C12.4287 30.2072 12.6855 30.2072 12.9326 30.2072C13.5234 30.2072 14.1045 30.2021 14.6699 30.1869C15.2402 30.1769 15.71 30.1617 16.0732 30.1516Z" fill="#1B3764" fill-opacity="1.000000" fill-rule="nonzero"/>
	<path id="Vector" d="M28.7441 30.1516C28.6982 30.7422 28.6631 31.3126 28.6484 31.8629C28.6279 32.4131 28.623 32.8372 28.623 33.13C28.623 33.3773 28.6279 33.6146 28.6377 33.8367C28.6484 34.0638 28.6631 34.2506 28.6738 34.4021L28.2695 34.4021C28.1279 33.4227 27.8906 32.6504 27.5625 32.0901C27.2295 31.5298 26.8457 31.131 26.4014 30.9038C25.958 30.6715 25.4932 30.5605 25.0088 30.5605L24.7764 30.5605C24.4688 30.5605 24.2412 30.5857 24.085 30.6412C23.9336 30.6918 23.8271 30.7977 23.7764 30.9492C23.7266 31.1006 23.6963 31.3429 23.6963 31.6761L23.6963 41.1765C23.6963 41.4945 23.7217 41.7368 23.7764 41.8933C23.832 42.0549 23.9336 42.1609 24.085 42.2114C24.2363 42.267 24.4688 42.2921 24.7764 42.2921L25.3623 42.2921C25.751 42.2921 26.165 42.1659 26.5938 41.9136C27.0225 41.6611 27.4219 41.2271 27.79 40.6112C28.1582 39.9952 28.4365 39.1573 28.623 38.0922L29.0322 38.0922C28.9961 38.5162 28.9814 39.0614 28.9814 39.7227C28.9814 40.0205 28.9863 40.4396 28.9961 40.9897C29.0068 41.54 29.042 42.1105 29.1025 42.701C28.502 42.6758 27.8203 42.6606 27.0635 42.6556C26.3057 42.6505 25.6348 42.6455 25.0439 42.6455C24.6201 42.6455 24.0498 42.6455 23.333 42.6455C22.6162 42.6455 21.8633 42.6505 21.0664 42.6556C20.2686 42.6606 19.5264 42.6758 18.8398 42.701L18.8398 42.3477C19.208 42.3224 19.4756 42.277 19.6572 42.2063C19.834 42.1356 19.9502 41.9943 20.0107 41.7823C20.0713 41.5703 20.1016 41.2522 20.1016 40.8231L20.1016 32.0295C20.1016 31.5903 20.0713 31.2722 20.0107 31.0653C19.9502 30.8583 19.8291 30.717 19.6475 30.6412C19.4658 30.5656 19.1934 30.5201 18.8398 30.51L18.8398 30.1566C19.5264 30.1667 20.2686 30.1819 21.0664 30.192C21.8633 30.2021 22.6211 30.2122 23.333 30.2122C24.0498 30.2122 24.6152 30.2122 25.0439 30.2122C25.5889 30.2122 26.2051 30.2072 26.8965 30.2021C27.583 30.192 28.2041 30.1769 28.7441 30.1516ZM26.1748 36.2144L26.1748 36.5676L23.1611 36.5676L23.1611 36.2144L26.1748 36.2144ZM26.6895 33.8721C26.6445 34.5435 26.6191 35.0583 26.6289 35.4116C26.6338 35.765 26.6387 36.0931 26.6387 36.386C26.6387 36.6838 26.6445 37.0068 26.6592 37.3602C26.6689 37.7136 26.6992 38.2285 26.75 38.8999L26.3408 38.8999C26.2705 38.4607 26.124 38.0669 25.9072 37.7136C25.6904 37.3602 25.4072 37.0775 25.0645 36.8706C24.7207 36.6636 24.3271 36.5626 23.8779 36.5626L23.8779 36.2092C24.3271 36.2092 24.7158 36.083 25.0488 35.8357C25.377 35.5884 25.6494 35.2855 25.8613 34.922C26.0732 34.5636 26.2148 34.2102 26.2861 33.8669L26.6895 33.8669L26.6895 33.8721Z" fill="#1B3764" fill-opacity="1.000000" fill-rule="nonzero"/>
	<path id="Vector" d="M39.1484 29.9043C39.9756 29.9043 40.6523 30.0154 41.1875 30.2426C41.7178 30.4646 42.1865 30.7372 42.5859 31.0553C42.7168 31.1613 42.833 31.2168 42.9395 31.2168C43.1611 31.2168 43.3125 30.8634 43.3838 30.1516L43.792 30.1516C43.7666 30.6262 43.752 31.2017 43.7363 31.8781C43.7266 32.5596 43.7168 33.4581 43.7168 34.5787L43.3125 34.5787C43.2314 33.7257 43.0859 33.0189 42.8789 32.4435C42.6719 31.873 42.2725 31.3834 41.6826 30.9795C41.4346 30.813 41.1416 30.6868 40.8135 30.5908C40.4805 30.4949 40.1631 30.4495 39.8545 30.4495C39.168 30.4495 38.6025 30.6362 38.1533 31.0098C37.7041 31.3834 37.3457 31.868 37.083 32.4636C36.8154 33.0593 36.6289 33.7106 36.5176 34.4122C36.4023 35.1189 36.3467 35.8004 36.3467 36.4617C36.3467 38.5869 36.6035 40.1417 37.124 41.1211C37.6436 42.1003 38.335 42.5901 39.1982 42.5901C39.3857 42.5901 39.5518 42.5698 39.6934 42.5345C39.835 42.4991 39.9609 42.4487 40.0664 42.3729C40.1982 42.2771 40.2891 42.1609 40.3496 42.0197C40.4102 41.8783 40.4404 41.7015 40.4404 41.4895L40.4404 39.7177C40.4404 39.1372 40.3945 38.7081 40.3096 38.4254C40.2178 38.1427 40.0469 37.9458 39.7842 37.8398C39.5215 37.7338 39.1484 37.6732 38.6484 37.6631L38.6484 37.3098C38.9209 37.3198 39.249 37.33 39.6426 37.335C40.0312 37.3401 40.4404 37.3451 40.8643 37.3552C41.2881 37.3602 41.6826 37.3654 42.0352 37.3654C42.6006 37.3654 43.126 37.3602 43.6055 37.3451C44.085 37.335 44.4688 37.3198 44.7666 37.3098L44.7666 37.6631C44.4736 37.6884 44.2773 37.7793 44.1807 37.9458C44.085 38.1124 44.04 38.5264 44.04 39.1876L44.04 42.696L43.6865 42.696C43.6758 42.4941 43.626 42.2771 43.5449 42.0398C43.4639 41.8025 43.3281 41.6864 43.1357 41.6864C43.04 41.6864 42.9092 41.7117 42.7373 41.7571C42.5654 41.8025 42.2979 41.9186 41.9297 42.0953C41.4697 42.3174 40.9805 42.5194 40.4658 42.691C39.9512 42.8627 39.4404 42.9485 38.9307 42.9485C36.71 42.9485 35.0439 42.3831 33.9336 41.2573C32.8232 40.1316 32.2676 38.5566 32.2676 36.5323C32.2676 35.2098 32.5605 34.0487 33.1455 33.0593C33.7314 32.0648 34.5391 31.2925 35.5742 30.7372C36.6094 30.1819 37.7998 29.9043 39.1484 29.9043Z" fill="#1B3764" fill-opacity="1.000000" fill-rule="nonzero"/>
	<path id="Vector" d="M53.6455 30.1516L57.9365 41.2119C58.1025 41.6157 58.2793 41.8984 58.4658 42.0701C58.6533 42.2417 58.8242 42.3325 58.9814 42.3427L58.9814 42.696C58.5566 42.6708 58.0576 42.6556 57.4922 42.6505C56.9268 42.6455 56.3457 42.6405 55.7549 42.6405C55.1543 42.6405 54.584 42.6455 54.0537 42.6505C53.5244 42.6556 53.0947 42.6708 52.7773 42.696L52.7773 42.3427C53.3779 42.3174 53.7617 42.2164 53.918 42.0347C54.0791 41.853 54.0391 41.4592 53.8018 40.8585L50.9648 33.0088L51.3184 32.3879L48.875 38.7484C48.4863 39.7631 48.2939 40.5254 48.2998 41.0352C48.3047 41.545 48.4561 41.8833 48.7539 42.0549C49.0469 42.2266 49.4355 42.3224 49.9043 42.3477L49.9043 42.701C49.4658 42.6758 49.0771 42.6606 48.7285 42.6556C48.3799 42.6505 47.9961 42.6455 47.5879 42.6455C47.3652 42.6455 47.123 42.6505 46.8711 42.6556C46.6182 42.6606 46.4014 42.6758 46.2246 42.701L46.2246 42.3477C46.4971 42.3022 46.7646 42.1256 47.0322 41.8226C47.2998 41.5198 47.5723 41.0049 47.8555 40.2729L51.7871 30.1516C52.0703 30.1769 52.3828 30.1869 52.7168 30.1869C53.0498 30.1869 53.3623 30.1769 53.6455 30.1516ZM54.2666 37.5975L54.2666 37.9508L48.9863 37.9508L49.1621 37.5975L54.2666 37.5975Z" fill="#1B3764" fill-opacity="1.000000" fill-rule="nonzero"/>
	<path id="Vector" d="M72.8184 30.1516L72.8184 30.505C72.4648 30.5757 72.1973 30.7019 72.0107 30.8785C71.8291 31.0552 71.708 31.3329 71.6475 31.7014C71.5869 32.075 71.5566 32.5948 71.5566 33.2714L71.5566 42.701C71.3799 42.6758 71.1885 42.6656 70.9814 42.6656C70.7744 42.6656 70.5518 42.6758 70.3145 42.701L62.4648 34.1244L62.4648 39.228C62.4648 40.0205 62.4951 40.6263 62.5605 41.0453C62.627 41.4642 62.7832 41.7672 63.04 41.9489C63.293 42.1306 63.6963 42.267 64.252 42.3477L64.252 42.701C64.0146 42.6758 63.707 42.6606 63.3281 42.6556C62.9492 42.6505 62.5967 42.6455 62.2627 42.6455C62.001 42.6455 61.7383 42.6505 61.4658 42.6556C61.1934 42.6606 60.9707 42.6758 60.7939 42.701L60.7939 42.3477C61.1631 42.267 61.4297 42.1356 61.6064 41.9691C61.7832 41.7975 61.8994 41.5249 61.96 41.1462C62.0205 40.7677 62.0508 40.2477 62.0508 39.5864L62.0508 32.0295C62.0508 31.5903 62.0205 31.2722 61.96 31.0653C61.8994 30.8583 61.7783 30.717 61.5967 30.6412C61.415 30.5656 61.1426 30.5201 60.7891 30.51L60.7891 30.1566C60.9658 30.1667 61.1934 30.1819 61.4609 30.192C61.7334 30.2021 61.9951 30.2122 62.2578 30.2122C62.5508 30.2122 62.8438 30.2072 63.126 30.192C63.4092 30.1819 63.6611 30.1667 63.8887 30.1566L71.1377 37.8146L71.1377 33.6246C71.1377 32.8322 71.1074 32.2263 71.042 31.8074C70.9756 31.3884 70.8193 31.0854 70.5723 30.8937C70.3252 30.7069 69.916 30.5757 69.3506 30.505L69.3506 30.1516C69.5879 30.1617 69.8955 30.1769 70.2744 30.1869C70.6533 30.197 71.0059 30.2072 71.3398 30.2072C71.6123 30.2072 71.8799 30.2021 72.1475 30.1869C72.4199 30.1769 72.6416 30.1617 72.8184 30.1516Z" fill="#1B3764" fill-opacity="1.000000" fill-rule="nonzero"/>
	<path id="Vector" d="M116.998 30.1516C117.342 30.1617 117.791 30.1769 118.356 30.1869C118.917 30.197 119.482 30.2072 120.048 30.2072C120.638 30.2072 121.203 30.2021 121.749 30.1869C122.294 30.1769 122.678 30.1667 122.899 30.1667C124.52 30.1667 125.722 30.4292 126.514 30.9442C127.307 31.4641 127.7 32.1305 127.7 32.9482C127.7 33.3622 127.554 33.7913 127.256 34.2355C126.963 34.6797 126.514 35.0684 125.908 35.4066C125.308 35.7449 124.54 35.972 123.606 36.0881L123.606 36.1234C124.823 36.1841 125.797 36.3708 126.529 36.6888C127.261 37.0068 127.791 37.3955 128.124 37.8499C128.457 38.3042 128.619 38.7737 128.619 39.2583C128.619 40.4396 128.145 41.3077 127.2 41.863C126.257 42.4183 124.954 42.696 123.304 42.696C123.021 42.696 122.602 42.6859 122.052 42.6708C121.501 42.6505 120.845 42.6455 120.078 42.6455C119.487 42.6455 118.911 42.6505 118.352 42.6556C117.791 42.6606 117.337 42.6758 116.993 42.701L116.993 42.3477C117.356 42.3224 117.629 42.277 117.806 42.2063C117.982 42.1356 118.099 41.9943 118.159 41.7823C118.22 41.5703 118.25 41.2522 118.25 40.8231L118.25 32.0295C118.25 31.5903 118.22 31.2722 118.159 31.0653C118.099 30.8583 117.978 30.717 117.796 30.6412C117.614 30.5656 117.347 30.5201 116.988 30.51L116.988 30.1516L116.998 30.1516ZM122.813 30.505C122.41 30.505 122.152 30.606 122.036 30.8079C121.92 31.0098 121.859 31.4187 121.859 32.0295L121.859 40.8181C121.859 41.434 121.936 41.8328 122.082 42.0145C122.229 42.1963 122.541 42.2871 123.011 42.2871C123.672 42.2871 124.151 42.0195 124.454 41.4794C124.757 40.9443 124.908 40.177 124.908 39.1826C124.908 38.2739 124.691 37.5723 124.263 37.0725C123.833 36.5778 123.111 36.3304 122.107 36.3304L120.814 36.3304L120.814 36.0276L122.339 36.0276C122.799 36.0276 123.157 35.8962 123.404 35.6288C123.651 35.3612 123.823 35.0078 123.919 34.5636C124.016 34.1194 124.061 33.6449 124.061 33.135C124.061 32.2617 123.965 31.6003 123.778 31.1613C123.581 30.7271 123.263 30.505 122.813 30.505Z" fill="#1B3764" fill-opacity="1.000000" fill-rule="nonzero"/>
	<path id="Vector" d="M138.09 29.9043C139.422 29.9043 140.593 30.1567 141.598 30.6665C142.603 31.1764 143.38 31.9033 143.935 32.8574C144.49 33.8064 144.768 34.9624 144.768 36.3203C144.768 37.6429 144.485 38.804 143.92 39.7935C143.354 40.7878 142.562 41.5602 141.553 42.1155C140.543 42.6708 139.382 42.9485 138.069 42.9485C136.736 42.9485 135.565 42.696 134.561 42.1862C133.557 41.6764 132.779 40.9443 132.224 39.9902C131.668 39.0311 131.391 37.8802 131.391 36.5323C131.391 35.2098 131.679 34.0487 132.249 33.0593C132.819 32.0648 133.611 31.2925 134.616 30.7372C135.621 30.1819 136.777 29.9043 138.09 29.9043ZM138.019 30.2223C137.428 30.2223 136.913 30.4899 136.479 31.0199C136.04 31.5499 135.707 32.282 135.47 33.2158C135.232 34.1497 135.116 35.23 135.116 36.4567C135.116 37.7086 135.252 38.799 135.525 39.7278C135.798 40.6566 136.161 41.3684 136.625 41.8732C137.085 42.3781 137.595 42.6254 138.15 42.6254C138.74 42.6254 139.256 42.3578 139.689 41.8278C140.129 41.2977 140.462 40.5607 140.699 39.6218C140.937 38.6829 141.053 37.6025 141.053 36.386C141.053 35.124 140.916 34.0286 140.644 33.1099C140.371 32.186 140.008 31.4742 139.543 30.9745C139.084 30.4747 138.574 30.2223 138.019 30.2223Z" fill="#1B3764" fill-opacity="1.000000" fill-rule="nonzero"/>
	<path id="Vector" d="M154.521 29.9043C155.854 29.9043 157.024 30.1567 158.029 30.6665C159.034 31.1764 159.812 31.9033 160.366 32.8574C160.922 33.8064 161.199 34.9624 161.199 36.3203C161.199 37.6429 160.917 38.804 160.352 39.7935C159.786 40.7878 158.993 41.5602 157.984 42.1155C156.975 42.6708 155.813 42.9485 154.501 42.9485C153.168 42.9485 151.997 42.696 150.992 42.1862C149.988 41.6764 149.211 40.9443 148.655 39.9902C148.1 39.0311 147.822 37.8802 147.822 36.5323C147.822 35.2098 148.11 34.0487 148.681 33.0593C149.251 32.0648 150.043 31.2925 151.048 30.7372C152.048 30.1819 153.209 29.9043 154.521 29.9043ZM154.445 30.2223C153.854 30.2223 153.34 30.4899 152.905 31.0199C152.467 31.5499 152.133 32.282 151.896 33.2158C151.659 34.1497 151.543 35.23 151.543 36.4567C151.543 37.7086 151.679 38.799 151.951 39.7278C152.225 40.6566 152.588 41.3684 153.052 41.8732C153.512 42.3781 154.021 42.6254 154.576 42.6254C155.167 42.6254 155.682 42.3578 156.116 41.8278C156.556 41.2977 156.889 40.5607 157.126 39.6218C157.363 38.6829 157.479 37.6025 157.479 36.386C157.479 35.124 157.343 34.0286 157.07 33.1099C156.798 32.186 156.435 31.4742 155.97 30.9745C155.511 30.4747 155.006 30.2223 154.445 30.2223Z" fill="#1B3764" fill-opacity="1.000000" fill-rule="nonzero"/>
	<path id="Vector" d="M170.078 30.1515L170.078 30.5049C169.726 30.515 169.458 30.5604 169.271 30.6361C169.089 30.7119 168.968 30.8533 168.907 31.0602C168.847 31.2671 168.816 31.5902 168.816 32.0244L168.816 40.813C168.816 41.2371 168.847 41.5551 168.912 41.7721C168.979 41.9841 169.1 42.1255 169.275 42.1962C169.452 42.2668 169.72 42.3123 170.073 42.3375L170.073 42.6909C169.73 42.6656 169.291 42.6505 168.751 42.6454C168.211 42.6404 167.666 42.6354 167.11 42.6354C166.475 42.6354 165.873 42.6404 165.313 42.6454C164.753 42.6505 164.299 42.6656 163.955 42.6909L163.955 42.3375C164.318 42.3123 164.591 42.2668 164.768 42.1962C164.944 42.1255 165.061 41.9841 165.121 41.7721C165.182 41.5601 165.212 41.2421 165.212 40.813L165.212 32.0294C165.212 31.5902 165.182 31.2722 165.121 31.0652C165.061 30.8583 164.939 30.7169 164.758 30.6412C164.576 30.5654 164.309 30.52 163.95 30.5099L163.95 30.1566C164.294 30.1666 164.743 30.1818 165.309 30.1919C165.868 30.202 166.469 30.2122 167.105 30.2122C167.66 30.2122 168.206 30.207 168.746 30.1919C169.296 30.1768 169.735 30.1616 170.078 30.1515ZM176.565 30.1515L176.565 30.4897C176.161 30.5957 175.717 30.7926 175.228 31.0753C174.738 31.358 174.213 31.8124 173.657 32.4384L170.396 36.1436L171.83 34.2657L176.03 41.2673C176.182 41.5146 176.338 41.7217 176.489 41.8882C176.641 42.0548 176.848 42.2063 177.11 42.3477L177.11 42.7009C176.616 42.6758 176.086 42.6605 175.525 42.6555C174.965 42.6505 174.43 42.6454 173.92 42.6454C173.647 42.6454 173.31 42.6505 172.91 42.6555C172.512 42.6605 172.002 42.6758 171.386 42.7009L171.386 42.3477C171.941 42.3224 172.265 42.2567 172.351 42.1508C172.436 42.0447 172.396 41.8428 172.219 41.55L169.649 37.2087C169.533 36.9967 169.428 36.8351 169.331 36.7291C169.235 36.6232 169.145 36.5474 169.059 36.4969C168.968 36.4515 168.856 36.4211 168.716 36.406L168.716 36.0325C169.235 36.0073 169.726 35.8356 170.185 35.5076C170.644 35.1844 171.199 34.6544 171.851 33.9224L172.451 33.251C172.946 32.6958 173.208 32.2162 173.238 31.8073C173.269 31.3984 173.143 31.0803 172.865 30.8481C172.587 30.616 172.224 30.4948 171.774 30.4847L171.774 30.1465C172.27 30.1566 172.729 30.1718 173.147 30.1818C173.566 30.1919 174.106 30.202 174.769 30.202C175.495 30.207 176.091 30.1869 176.565 30.1515Z" fill="#1B3764" fill-opacity="1.000000" fill-rule="nonzero"/>
	<path id="Vector" d="M183.956 29.9043C184.723 29.9043 185.318 29.98 185.748 30.1365C186.172 30.288 186.535 30.4495 186.828 30.6161C186.97 30.6969 187.085 30.7625 187.171 30.8029C187.257 30.8433 187.343 30.8634 187.429 30.8634C187.615 30.8634 187.747 30.606 187.817 30.0861L188.227 30.0861C188.216 30.3334 188.201 30.6211 188.181 30.9543C188.161 31.2875 188.15 31.7216 188.146 32.2667C188.141 32.812 188.136 33.5238 188.136 34.4122L187.727 34.4122C187.681 33.761 187.529 33.13 187.272 32.5142C187.02 31.8983 186.672 31.3934 186.228 30.9896C185.783 30.5858 185.258 30.3889 184.643 30.3889C184.122 30.3889 183.693 30.5303 183.35 30.813C183.007 31.0956 182.835 31.5045 182.835 32.0345C182.835 32.4738 182.941 32.8473 183.153 33.1603C183.365 33.4733 183.698 33.8014 184.152 34.1447C184.606 34.4879 185.208 34.917 185.949 35.437C186.479 35.8054 186.964 36.1689 187.394 36.5375C187.822 36.9059 188.171 37.3148 188.428 37.7793C188.686 38.2437 188.817 38.7939 188.817 39.4451C188.817 40.2377 188.595 40.8939 188.15 41.4138C187.706 41.9338 187.121 42.3225 186.389 42.5748C185.657 42.8273 184.859 42.9535 183.996 42.9535C183.193 42.9535 182.553 42.8828 182.072 42.7415C181.593 42.6001 181.189 42.4537 180.861 42.2972C180.599 42.1306 180.401 42.0499 180.261 42.0499C180.073 42.0499 179.942 42.3074 179.872 42.8273L179.463 42.8273C179.488 42.5194 179.503 42.1609 179.509 41.7571C179.514 41.3533 179.519 40.8232 179.528 40.172C179.533 39.5209 179.539 38.698 179.539 37.6884L179.947 37.6884C179.993 38.5162 180.129 39.2886 180.347 40.0105C180.563 40.7323 180.901 41.3129 181.355 41.7571C181.811 42.2013 182.416 42.4235 183.173 42.4235C183.824 42.4235 184.339 42.272 184.723 41.9641C185.106 41.6561 185.299 41.2321 185.299 40.6869C185.299 39.955 185.056 39.3441 184.571 38.8545C184.087 38.3649 183.466 37.8651 182.709 37.3552C182.153 36.9766 181.634 36.598 181.149 36.2194C180.664 35.8408 180.275 35.4167 179.988 34.9423C179.7 34.4678 179.554 33.9073 179.554 33.2612C179.554 32.4839 179.761 31.8478 180.175 31.3582C180.589 30.8685 181.134 30.505 181.805 30.2677C182.477 30.0305 183.198 29.9043 183.956 29.9043Z" fill="#1B3764" fill-opacity="1.000000" fill-rule="nonzero"/>
	<path id="Vector" d="M41.0205 4.53296L41.0205 3.4375L43.7617 3.4375L43.7617 4.53296L41.0205 4.53296Z" fill="#1B3764" fill-opacity="1.000000" fill-rule="nonzero"/>
	<path id="Vector" d="M50.7285 6.4668L50.7285 0.0507812L53.4492 0.0507812C53.7422 0.0507812 54.0146 0.111328 54.2617 0.232544C54.5098 0.353638 54.7266 0.515259 54.9082 0.722168C55.0898 0.929199 55.2363 1.15625 55.3369 1.40869C55.4385 1.66113 55.4893 1.91858 55.4893 2.18616C55.4893 2.54956 55.4033 2.89282 55.2363 3.21594C55.0703 3.53894 54.8379 3.80652 54.54 4.01355C54.2422 4.22046 53.8936 4.32141 53.4902 4.32141L51.9707 4.32141L51.9707 6.47192L50.7285 6.47192L50.7285 6.4668ZM51.9756 3.22095L53.4189 3.22095C53.5703 3.22095 53.707 3.18054 53.8281 3.09473C53.9492 3.00891 54.0449 2.88782 54.1162 2.7262C54.1865 2.5647 54.2266 2.38293 54.2266 2.18103C54.2266 1.95898 54.1865 1.76709 54.1055 1.6106C54.0244 1.4541 53.9189 1.33801 53.7881 1.25732C53.6562 1.17651 53.5205 1.14111 53.3682 1.14111L51.9756 1.14111L51.9756 3.22095Z" fill="#1B3764" fill-opacity="1.000000" fill-rule="nonzero"/>
	<path id="Vector" d="M62.626 5.37646L62.626 6.47192L58.1689 6.47192L58.1689 0.0507812L62.5459 0.0507812L62.5459 1.14624L59.416 1.14624L59.416 2.69092L62.1162 2.69092L62.1162 3.70557L59.416 3.70557L59.416 5.37646L62.626 5.37646Z" fill="#1B3764" fill-opacity="1.000000" fill-rule="nonzero"/>
	<path id="Vector" d="M65.4072 6.4668L65.4072 0.0507812L68.2441 0.0507812C68.542 0.0507812 68.8096 0.111328 69.0615 0.232544C69.3096 0.353638 69.5264 0.515259 69.7129 0.722168C69.8945 0.929199 70.0361 1.15625 70.1377 1.40869C70.2383 1.66113 70.2891 1.91858 70.2891 2.18616C70.2891 2.45874 70.2432 2.71619 70.1475 2.96851C70.0518 3.22095 69.9199 3.43799 69.7432 3.62476C69.5664 3.81152 69.3652 3.95801 69.1279 4.05896L70.5918 6.47192L69.2188 6.47192L67.9014 4.32141L66.6543 4.32141L66.6543 6.47192L65.4072 6.47192L65.4072 6.4668ZM66.6543 3.22095L68.2188 3.22095C68.375 3.22095 68.5117 3.17554 68.6328 3.07959C68.7539 2.98877 68.8496 2.86255 68.9209 2.70605C68.9912 2.54956 69.0312 2.37292 69.0312 2.18103C69.0312 1.97412 68.9912 1.79736 68.9053 1.64087C68.8193 1.4895 68.7139 1.36328 68.582 1.27246C68.4512 1.18152 68.3145 1.13611 68.1631 1.13611L66.6543 1.13611L66.6543 3.22095Z" fill="#1B3764" fill-opacity="1.000000" fill-rule="nonzero"/>
	<path id="Vector" d="M73.2266 6.4668L73.2266 0.0507812L77.5371 0.0507812L77.5371 1.14624L74.4736 1.14624L74.4736 2.802L77.0225 2.802L77.0225 3.81665L74.4736 3.81665L74.4736 6.47192L73.2266 6.47192L73.2266 6.4668Z" fill="#1B3764" fill-opacity="1.000000" fill-rule="nonzero"/>
	<path id="Vector" d="M84.6807 5.37646L84.6807 6.47192L80.2236 6.47192L80.2236 0.0507812L84.6006 0.0507812L84.6006 1.14624L81.4707 1.14624L81.4707 2.69092L84.1709 2.69092L84.1709 3.70557L81.4707 3.70557L81.4707 5.37646L84.6807 5.37646Z" fill="#1B3764" fill-opacity="1.000000" fill-rule="nonzero"/>
	<path id="Vector" d="M86.958 3.20532C86.958 2.81165 87.0283 2.42798 87.1699 2.05444C87.3115 1.67578 87.5186 1.33252 87.791 1.02454C88.0635 0.716675 88.3916 0.46936 88.7852 0.282471C89.1787 0.10083 89.623 0.00488281 90.123 0.00488281C90.7139 0.00488281 91.2236 0.136108 91.6582 0.393555C92.0869 0.651001 92.4102 0.989258 92.6221 1.4082L91.6631 2.06958C91.5518 1.82727 91.4102 1.63538 91.2383 1.49402C91.0625 1.35266 90.875 1.25171 90.6787 1.19617C90.4814 1.14075 90.2852 1.11035 90.0928 1.11035C89.7803 1.11035 89.5068 1.17603 89.2754 1.30225C89.043 1.42847 88.8506 1.59497 88.6943 1.802C88.5381 2.00891 88.4219 2.23608 88.3467 2.48853C88.2705 2.74097 88.2354 2.99329 88.2354 3.24573C88.2354 3.52844 88.2803 3.80103 88.3711 4.06348C88.4619 4.32605 88.5889 4.55823 88.7549 4.76013C88.9219 4.96204 89.1182 5.12366 89.3506 5.23975C89.583 5.35583 89.835 5.41638 90.1133 5.41638C90.3096 5.41638 90.5117 5.3811 90.7188 5.31543C90.9258 5.24976 91.1123 5.1438 91.2891 4.99744C91.4658 4.85095 91.5967 4.66418 91.6982 4.43701L92.7178 5.02258C92.5918 5.3407 92.3848 5.61328 92.0967 5.83533C91.8096 6.0575 91.4912 6.22913 91.1328 6.34021C90.7793 6.4563 90.4258 6.51184 90.0781 6.51184C89.6182 6.51184 89.1992 6.41589 88.8203 6.22913C88.4424 6.03735 88.1143 5.78491 87.8418 5.47192C87.5684 5.15393 87.3516 4.80054 87.2002 4.40674C87.0342 4.00793 86.958 3.60913 86.958 3.20532Z" fill="#1B3764" fill-opacity="1.000000" fill-rule="nonzero"/>
	<path id="Vector" d="M100.153 1.14624L98.0986 1.14624L98.0986 6.4668L96.8623 6.4668L96.8623 1.14624L94.8076 1.14624L94.8076 0.0507812L100.148 0.0507812L100.148 1.14624L100.153 1.14624Z" fill="#1B3764" fill-opacity="1.000000" fill-rule="nonzero"/>
	<path id="Vector" d="M110.295 1.73145C110.255 1.69104 110.174 1.63049 110.062 1.55981C109.952 1.48914 109.815 1.41846 109.654 1.35291C109.492 1.28723 109.321 1.22668 109.134 1.17615C108.947 1.12573 108.756 1.10046 108.563 1.10046C108.226 1.10046 107.973 1.16101 107.802 1.28723C107.63 1.41345 107.544 1.59009 107.544 1.81726C107.544 1.99402 107.6 2.13025 107.705 2.2312C107.816 2.33215 107.978 2.41797 108.195 2.49377C108.412 2.56445 108.685 2.64514 109.008 2.72595C109.432 2.8269 109.795 2.95312 110.108 3.09949C110.416 3.24585 110.658 3.43774 110.82 3.67493C110.986 3.91223 111.067 4.22522 111.067 4.61389C111.067 4.95715 111.002 5.25 110.876 5.49231C110.749 5.73462 110.572 5.9314 110.351 6.08289C110.129 6.23438 109.876 6.34033 109.594 6.41101C109.311 6.48169 109.008 6.51697 108.689 6.51697C108.372 6.51697 108.049 6.48169 107.73 6.41602C107.413 6.35046 107.104 6.25452 106.807 6.13342C106.509 6.01221 106.241 5.86072 105.994 5.68408L106.544 4.60889C106.6 4.66443 106.696 4.73511 106.832 4.82092C106.969 4.90674 107.14 4.99756 107.337 5.08337C107.534 5.16919 107.751 5.24487 107.988 5.30554C108.226 5.36609 108.463 5.39636 108.7 5.39636C109.038 5.39636 109.296 5.34082 109.467 5.22473C109.644 5.11365 109.729 4.95215 109.729 4.74011C109.729 4.54834 109.659 4.39685 109.522 4.29089C109.387 4.18481 109.189 4.08887 108.942 4.00818C108.695 3.92737 108.402 3.83655 108.063 3.7406C107.66 3.62451 107.321 3.49829 107.049 3.35693C106.776 3.21558 106.574 3.03894 106.443 2.8219C106.312 2.60474 106.246 2.33728 106.246 2.00916C106.246 1.56995 106.353 1.20142 106.56 0.908691C106.767 0.61084 107.049 0.388672 107.402 0.232178C107.756 0.0808105 108.154 0 108.589 0C108.892 0 109.175 0.0352783 109.442 0.100952C109.71 0.166626 109.962 0.252441 110.199 0.363403C110.437 0.474487 110.644 0.590576 110.83 0.716797L110.295 1.73145Z" fill="#1B3764" fill-opacity="1.000000" fill-rule="nonzero"/>
	<path id="Vector" d="M118.619 1.14624L116.564 1.14624L116.564 6.4668L115.328 6.4668L115.328 1.14624L113.273 1.14624L113.273 0.0507812L118.614 0.0507812L118.614 1.14624L118.619 1.14624Z" fill="#1B3764" fill-opacity="1.000000" fill-rule="nonzero"/>
	<path id="Vector" d="M123.818 6.51196C123.349 6.51196 122.92 6.42114 122.541 6.23938C122.157 6.05762 121.829 5.81531 121.557 5.50232C121.284 5.19446 121.072 4.84106 120.921 4.45239C120.77 4.06372 120.693 3.66492 120.693 3.25598C120.693 2.8269 120.774 2.41797 120.931 2.0293C121.092 1.64062 121.31 1.29236 121.592 0.98938C121.875 0.686523 122.203 0.444214 122.586 0.267578C122.97 0.0908203 123.389 0 123.849 0C124.312 0 124.737 0.0959473 125.12 0.282715C125.504 0.469482 125.832 0.721924 126.1 1.03479C126.372 1.34778 126.579 1.69617 126.73 2.08484C126.882 2.47351 126.958 2.86731 126.958 3.27612C126.958 3.7002 126.877 4.104 126.721 4.4928C126.564 4.88147 126.348 5.22974 126.064 5.53271C125.787 5.83557 125.454 6.07788 125.07 6.24951C124.687 6.42615 124.268 6.51196 123.818 6.51196ZM121.955 3.26099C121.955 3.5387 121.996 3.80627 122.082 4.06372C122.167 4.32117 122.288 4.55334 122.45 4.75525C122.611 4.95715 122.804 5.11877 123.036 5.23486C123.268 5.35095 123.53 5.4115 123.828 5.4115C124.131 5.4115 124.398 5.35095 124.631 5.22473C124.868 5.10352 125.06 4.93701 125.217 4.72498C125.373 4.51794 125.494 4.28577 125.575 4.02832C125.655 3.77087 125.696 3.51343 125.696 3.25598C125.696 2.97839 125.65 2.71082 125.564 2.45837C125.479 2.20093 125.353 1.97375 125.196 1.77185C125.04 1.56995 124.843 1.40845 124.61 1.29236C124.379 1.17615 124.116 1.1156 123.828 1.1156C123.521 1.1156 123.253 1.17615 123.021 1.30237C122.788 1.42358 122.597 1.59009 122.435 1.79712C122.278 2.00403 122.157 2.2312 122.076 2.48364C121.996 2.73608 121.955 2.99353 121.955 3.26099Z" fill="#1B3764" fill-opacity="1.000000" fill-rule="nonzero"/>
	<path id="Vector" d="M129.72 6.4668L129.72 0.0507812L132.557 0.0507812C132.854 0.0507812 133.122 0.111328 133.374 0.232544C133.622 0.353638 133.839 0.515259 134.025 0.722168C134.207 0.929199 134.349 1.15625 134.45 1.40869C134.551 1.66113 134.602 1.91858 134.602 2.18616C134.602 2.45874 134.556 2.71619 134.46 2.96851C134.364 3.22095 134.232 3.43799 134.056 3.62476C133.879 3.81152 133.678 3.95801 133.44 4.05896L134.904 6.47192L133.531 6.47192L132.214 4.32141L130.967 4.32141L130.967 6.47192L129.72 6.47192L129.72 6.4668ZM130.967 3.22095L132.531 3.22095C132.688 3.22095 132.824 3.17554 132.945 3.07959C133.066 2.98877 133.162 2.86255 133.233 2.70605C133.304 2.54956 133.344 2.37292 133.344 2.18103C133.344 1.97412 133.304 1.79736 133.218 1.64087C133.132 1.4895 133.026 1.36328 132.895 1.27246C132.764 1.18152 132.627 1.13611 132.476 1.13611L130.967 1.13611L130.967 3.22095Z" fill="#1B3764" fill-opacity="1.000000" fill-rule="nonzero"/>
	<path id="Vector" d="M141.996 5.37646L141.996 6.47192L137.539 6.47192L137.539 0.0507812L141.916 0.0507812L141.916 1.14624L138.791 1.14624L138.791 2.69092L141.491 2.69092L141.491 3.70557L138.791 3.70557L138.791 5.37646L141.996 5.37646Z" fill="#1B3764" fill-opacity="1.000000" fill-rule="nonzero"/>
	<path id="Vector" d="M148.609 4.53296L148.609 3.4375L151.351 3.4375L151.351 4.53296L148.609 4.53296Z" fill="#1B3764" fill-opacity="1.000000" fill-rule="nonzero"/>
	<path id="Vector" d="M97.5684 28.6071C97.6143 28.5364 97.6748 28.4707 97.7402 28.4253L97.7451 28.4102C98.5381 27.6782 99.4717 27.1936 100.521 26.6786C101.603 26.1537 102.647 25.6185 103.616 24.8311C105.272 23.4883 106.73 21.5801 108.215 18.834C108.932 17.5013 109.568 16.1383 110.158 14.8612C110.224 14.7198 110.193 14.5634 110.078 14.4877C109.967 14.4119 109.729 14.4019 109.599 14.5735C108.311 16.2747 106.544 17.3499 104.822 18.3999C104.403 18.6573 103.97 18.9198 103.551 19.1874C102.647 19.7678 101.486 20.5706 100.507 21.6306C99.502 22.7209 98.6846 24.1041 97.9375 25.9769C97.6748 26.6383 97.417 27.34 97.1797 28.0518C97.165 28.0769 97.1494 28.1022 97.1348 28.1274C97.1299 28.1324 97.1299 28.1324 97.124 28.1376C97.0791 28.183 97.0488 28.2435 97.0332 28.3041C96.5234 29.1976 96.0693 30.1215 95.6504 31.0603C95.6553 30.9846 95.666 30.9038 95.6709 30.8281C95.8369 28.8494 95.7363 27.2996 95.3574 25.9518C94.9893 24.6393 94.3633 23.5034 93.8584 22.6554C93.626 22.2616 93.374 21.8729 93.1318 21.4843C92.1475 19.9344 91.1328 18.3292 90.7793 16.3251C90.7441 16.1232 90.5371 16.0425 90.4053 16.0778C90.2744 16.113 90.1836 16.2393 90.1787 16.3958C90.1328 17.7739 90.0879 19.2479 90.1279 20.7169C90.2031 23.7507 90.6172 26.0072 91.4307 27.8145C91.9043 28.8695 92.5459 29.7277 93.2227 30.5808C93.8789 31.4137 94.4541 32.186 94.8027 33.1351L94.792 33.2108C94.4443 34.1498 94.1309 35.0988 93.8428 36.0529C93.5703 36.9615 93.3184 37.8802 93.0811 38.799C93.0508 38.6324 93.0205 38.4608 92.9902 38.2992C92.6826 36.699 92.2129 35.4874 91.5107 34.4879C90.8291 33.5188 89.9209 32.7413 89.209 32.1709C88.8809 31.9084 88.5322 31.6459 88.1943 31.3834C86.8311 30.3486 85.4229 29.2784 84.585 27.7589C84.5039 27.6075 84.2871 27.5873 84.166 27.6378C84.1006 27.663 84.0498 27.7135 84.0195 27.7792C83.9893 27.8397 83.9844 27.9104 84 27.976C84.2822 29.0764 84.5898 30.2527 84.9785 31.4087C85.7812 33.8014 86.7402 35.5077 87.9873 36.7798C88.7148 37.5219 89.5723 38.072 90.4561 38.6223C91.3193 39.1523 92.0811 39.6521 92.6621 40.3336L92.6719 40.4447C92.3135 41.944 91.9756 43.4482 91.627 44.9525C91.4502 45.7148 91.2734 46.4771 91.0869 47.2343C91.082 47.2191 91.082 47.204 91.0771 47.1888C90.835 45.8359 90.4561 44.8163 89.8809 43.9834C89.3252 43.1707 88.5781 42.5194 87.998 42.0449C87.7305 41.8279 87.4473 41.6107 87.1748 41.3987L87.165 41.3887C86.0488 40.5305 84.8984 39.637 84.2217 38.3699C84.1455 38.2285 83.9541 38.2185 83.8535 38.2639C83.7373 38.3143 83.6719 38.4457 83.7021 38.5718C83.9238 39.5007 84.1709 40.4851 84.4844 41.4594C85.1299 43.4684 85.9072 44.9021 86.9277 45.9672C87.5234 46.5881 88.2246 47.0475 88.957 47.5018C89.6279 47.9208 90.2188 48.3146 90.6836 48.8396C90.2441 50.5105 89.7441 52.1663 89.1436 53.7917C88.6387 55.1497 88.0479 56.4773 87.3721 57.7544C87.4727 58.0017 87.5732 58.2542 87.6748 58.5066C88.2646 57.4515 88.7949 56.3561 89.2598 55.2303C90.4355 52.3783 91.2432 49.3949 91.9551 46.4115C92.0508 46.0076 92.1475 45.5988 92.2432 45.1898C93.0811 45.1191 93.8984 45.2958 94.8027 45.5229C95.7617 45.7653 96.7002 45.9773 97.71 45.947C99.4365 45.8966 101.314 45.2958 103.606 44.054C104.717 43.4532 105.792 42.7769 106.791 42.1407C106.907 42.0651 106.963 41.9187 106.928 41.7875C106.893 41.6511 106.73 41.4998 106.56 41.5552C104.903 42.1005 103.228 41.8733 101.603 41.6562C101.203 41.6007 100.794 41.5452 100.396 41.5048C99.5273 41.4139 98.3818 41.3381 97.2305 41.5704C96.0488 41.8126 94.8477 42.3932 93.4492 43.3977C93.1318 43.63 92.8037 43.8723 92.4805 44.1298C92.9443 42.1005 93.4043 40.066 93.9443 38.0519L94.0254 37.9358C94.9238 37.4713 95.8672 37.2897 96.9121 37.1129C97.9873 36.9363 99.043 36.7344 100.103 36.275C101.92 35.4874 103.742 34.0992 105.848 31.9084C106.867 30.8484 107.826 29.7327 108.72 28.6827C108.82 28.5667 108.836 28.405 108.766 28.2941C108.689 28.178 108.482 28.0972 108.321 28.2234C106.706 29.4702 104.873 29.965 103.097 30.4546C102.662 30.5707 102.213 30.6969 101.773 30.8281C100.83 31.1108 99.5977 31.5298 98.4424 32.2517C97.2559 32.9938 96.1348 34.074 94.9238 35.6439C94.7617 35.856 94.6006 36.073 94.4385 36.2902C95.1963 33.7458 96.1348 31.2471 97.4072 28.9199C97.4521 28.8038 97.5078 28.708 97.5684 28.6071ZM105.923 21.3782C105.161 22.4585 104.354 23.3772 103.525 24.0991C102.541 24.9573 101.466 25.5327 100.542 25.9871L100.375 26.0679C99.8652 26.3152 99.3057 26.5878 98.7598 26.9109C99.8252 25.6185 101.133 24.6241 102.399 23.7104C102.531 23.6145 102.657 23.5237 102.788 23.4327L102.818 23.4126C103.565 22.8774 104.338 22.3221 105.07 21.7114C105.736 21.1561 106.322 20.5857 106.847 19.9799C106.534 20.4746 106.231 20.939 105.923 21.3782ZM100.729 22.3171C101.991 20.833 103.616 19.8486 105.187 18.8895C105.741 18.5513 106.317 18.203 106.867 17.8345C107.387 17.4862 107.852 17.1479 108.266 16.8097C107.912 17.4104 107.559 17.9607 107.2 18.4756C106.544 19.4146 105.767 20.2727 104.889 21.0299C104.105 21.7063 103.258 22.3171 102.44 22.9027C101.517 23.564 100.562 24.2505 99.6836 25.0431C99.2598 25.4268 98.876 25.8104 98.5273 26.2041C98.9922 25.033 99.6885 23.5337 100.729 22.3171ZM90.7236 38.0873L90.5869 38.0015C89.8252 37.532 88.9521 36.9413 88.2246 36.1387C87.6094 35.4572 87.0537 34.6293 86.5742 33.6702C86.4023 33.332 86.2412 32.9735 86.084 32.6C86.4229 33.1049 86.8213 33.5945 87.2861 34.0791C87.8311 34.6545 88.4316 35.1897 89.0127 35.7096L89.335 36.0024C90.2842 36.8555 91.2588 37.7793 91.9658 38.8999C91.5518 38.597 91.1221 38.3296 90.7236 38.0873ZM91.5664 37.3401C90.915 36.6031 90.1787 35.9368 89.4668 35.2957C88.8301 34.7252 88.1797 34.1396 87.5938 33.5037C86.9424 32.7919 86.4023 32.0094 85.9883 31.1815C85.7764 30.7524 85.5742 30.2981 85.3828 29.8085C85.6855 30.1163 86.0234 30.4243 86.4121 30.7473C86.8467 31.1058 87.3008 31.4541 87.7451 31.7872C88.9971 32.7363 90.2949 33.7207 91.1523 35.0583C91.8389 36.1285 92.1719 37.3755 92.3643 38.3599C92.1318 38.0216 91.8691 37.6833 91.5664 37.3401ZM89.2041 47.0122L89.0928 46.9415C88.4717 46.5527 87.7549 46.0631 87.1592 45.3969C86.6602 44.8314 86.2051 44.1348 85.8164 43.3322C85.7061 43.1 85.5996 42.8577 85.4941 42.6052C85.7461 42.9738 86.0391 43.3322 86.3721 43.6906C86.8213 44.1702 87.3115 44.6194 87.7852 45.0535L88.0479 45.2958C88.7998 45.9874 89.5674 46.7295 90.1377 47.6281C89.8252 47.4009 89.502 47.199 89.2041 47.0122ZM89.9053 46.3761C89.376 45.7552 88.7695 45.205 88.1846 44.6699C87.6641 44.1953 87.1289 43.7057 86.6553 43.1757C86.125 42.5851 85.6855 41.9288 85.3525 41.2322C85.1904 40.8989 85.0449 40.5457 84.8984 40.167C85.1299 40.3992 85.3877 40.6415 85.6758 40.8838C86.0293 41.1816 86.4072 41.4745 86.7656 41.7521C87.791 42.5396 88.8506 43.3574 89.5469 44.478C90.082 45.3362 90.3496 46.3408 90.501 47.1536C90.3301 46.8961 90.1279 46.6387 89.9053 46.3761ZM97.0332 42.2468C98.5684 41.853 100.103 42.0651 101.592 42.267C102.117 42.3376 102.662 42.4135 103.197 42.4589C103.682 42.4993 104.126 42.5144 104.545 42.5043C104.045 42.7466 103.57 42.9535 103.106 43.1302C102.228 43.4634 101.305 43.6603 100.37 43.7208C99.5322 43.7764 98.6895 43.7411 97.8662 43.7057C96.9424 43.6653 95.9941 43.6249 95.0342 43.7107C94.5957 43.7511 94.1816 43.8118 93.7822 43.9026C94.6455 43.2816 95.8018 42.5648 97.0332 42.2468ZM97.4424 44.3267C97.5791 44.3317 97.7148 44.3367 97.8516 44.3418L97.8662 44.3418C98.6133 44.3721 99.3809 44.4073 100.153 44.3721C100.81 44.3418 101.426 44.261 102.021 44.1246C101.627 44.3064 101.244 44.4679 100.87 44.6042C99.8506 44.9829 98.8857 45.21 97.9932 45.2756C96.9375 45.3513 95.958 45.1494 95.1406 44.9475L94.9941 44.9122C94.5596 44.8011 94.0859 44.6851 93.5957 44.6042C94.8936 44.261 96.2002 44.2761 97.4424 44.3267ZM98.4268 32.9735C99.9512 31.9337 101.633 31.4742 103.263 31.03C103.838 30.8735 104.434 30.712 105.015 30.5253C105.545 30.3586 106.02 30.177 106.463 29.9851C105.989 30.4445 105.534 30.8534 105.08 31.2319C104.232 31.9337 103.309 32.5243 102.334 32.9836C101.461 33.3976 100.557 33.7257 99.6787 34.0437C98.6943 34.4021 97.6748 34.7706 96.6855 35.2654C96.2256 35.4926 95.8018 35.7349 95.4033 35.9973C96.1504 35.0281 97.1904 33.8217 98.4268 32.9735ZM99.4062 34.811L99.8555 34.6495C100.653 34.3618 101.48 34.0588 102.283 33.6954C102.98 33.3824 103.621 33.0291 104.222 32.6354C103.838 32.9938 103.465 33.3269 103.091 33.6349C102.112 34.4425 101.143 35.0786 100.219 35.5228C99.123 36.0479 98.0332 36.275 97.1094 36.4315L96.9424 36.4567C96.4482 36.5375 95.9082 36.6283 95.3623 36.7646C96.6602 35.8611 98.0684 35.3058 99.4062 34.811ZM93.6162 30.0709L93.5146 29.9397C92.9395 29.2026 92.2832 28.2991 91.8291 27.1733C91.4453 26.2192 91.1572 25.0986 90.9756 23.8417C90.9102 23.3672 90.8545 22.8674 90.8145 22.3424C90.9912 23.0391 91.2285 23.7306 91.5312 24.4323C91.8848 25.245 92.2881 26.0225 92.6875 26.7745L92.9092 27.1986C93.5703 28.4657 94.2314 29.8236 94.5752 31.3633C94.2676 30.8938 93.9238 30.4647 93.6162 30.0709ZM95.0703 30.7777C94.9492 30.3132 94.7969 29.8539 94.6152 29.3743C94.2168 28.3395 93.7119 27.3804 93.2275 26.4515C92.793 25.6287 92.3486 24.7755 91.9805 23.8821C91.5713 22.8826 91.2842 21.8224 91.1328 20.7371C91.0518 20.1515 90.9912 19.5408 90.9512 18.8845C91.1475 19.3236 91.3848 19.778 91.6572 20.2576C91.96 20.7826 92.2939 21.3075 92.6113 21.8073C93.5146 23.2308 94.4492 24.6998 94.873 26.502C95.2109 27.9558 95.1709 29.551 95.0703 30.7777Z" fill="#1B3764" fill-opacity="1.000000" fill-rule="nonzero"/>
	<path id="Vector" d="" fill="#1B3764" fill-opacity="1.000000" fill-rule="nonzero"/>
	<path id="Vector" d="M52.1006 64.7859L53.6201 64.7859L52.2324 71.3281L55.998 71.3281L55.7197 72.6709L50.4248 72.6709L52.1006 64.7859Z" fill="#1B3764" fill-opacity="1.000000" fill-rule="nonzero"/>
	<path id="Vector" d="M61.8184 72.7819C61.2578 72.7819 60.793 72.6708 60.4346 72.4537C60.0762 72.2316 59.8086 71.9388 59.6426 71.5703C59.4756 71.2018 59.3848 70.7928 59.3848 70.3436C59.3848 69.8741 59.4707 69.4299 59.6475 69.0059C59.8193 68.5818 60.0664 68.2032 60.3848 67.8751C60.7021 67.547 61.0811 67.2896 61.5098 67.1028C61.9443 66.916 62.4189 66.8201 62.9385 66.8201C63.499 66.8201 63.9629 66.9312 64.3213 67.1482C64.6797 67.3704 64.9473 67.6631 65.1143 68.0266C65.2861 68.395 65.3721 68.804 65.3721 69.2583C65.3721 69.7278 65.2861 70.172 65.1094 70.5959C64.9326 71.02 64.6904 71.3987 64.3721 71.7268C64.0547 72.0549 63.6758 72.3124 63.2461 72.4991C62.8125 72.6909 62.3379 72.7819 61.8184 72.7819ZM62.04 71.5148C62.2676 71.5148 62.4893 71.4642 62.7061 71.3633C62.918 71.2623 63.1104 71.116 63.2764 70.9292C63.4434 70.7424 63.5742 70.5203 63.6758 70.2628C63.7764 70.0104 63.8271 69.7328 63.8271 69.4349C63.8271 69.1674 63.7871 68.9302 63.7012 68.7283C63.6152 68.5264 63.4893 68.3647 63.3223 68.2537C63.1553 68.1427 62.9541 68.0872 62.7168 68.0872C62.4844 68.0872 62.2676 68.1376 62.0557 68.2385C61.8428 68.3395 61.6514 68.486 61.4844 68.6727C61.3184 68.8595 61.1816 69.0867 61.0811 69.3441C60.9795 69.6016 60.9297 69.8792 60.9297 70.177C60.9297 70.4395 60.9697 70.6718 61.0557 70.8737C61.1416 71.0756 61.2676 71.2371 61.4346 71.3481C61.6006 71.4592 61.8027 71.5148 62.04 71.5148Z" fill="#1B3764" fill-opacity="1.000000" fill-rule="nonzero"/>
	<path id="Vector" d="M70.5723 72.7826C70.0977 72.7826 69.6533 72.7069 69.2344 72.5504C68.8154 72.3939 68.4814 72.1718 68.2295 71.884L68.9717 70.9502C69.2539 71.1925 69.542 71.3793 69.8398 71.5105C70.1377 71.6417 70.4355 71.7024 70.7383 71.7024C70.9453 71.7024 71.1221 71.672 71.2734 71.6115C71.4199 71.5509 71.5361 71.4701 71.6172 71.3641C71.6973 71.2581 71.7383 71.142 71.7383 71.0057C71.7383 70.824 71.6572 70.6877 71.4951 70.6019C71.334 70.5161 71.0762 70.4202 70.7285 70.3192C70.3447 70.193 70.0264 70.0769 69.7793 69.9608C69.5322 69.8497 69.3506 69.7134 69.2285 69.5569C69.1133 69.4004 69.0527 69.1985 69.0527 68.9613C69.0527 68.5524 69.168 68.1888 69.4004 67.8658C69.6328 67.5427 69.9512 67.2904 70.3447 67.1035C70.7383 66.9167 71.1826 66.8259 71.6719 66.8259C72.0967 66.8259 72.4697 66.8916 72.8027 67.0228C73.1357 67.1541 73.4336 67.356 73.6914 67.6285L72.9043 68.5271C72.667 68.3051 72.4395 68.1434 72.2227 68.0425C72.0059 67.9415 71.7627 67.8911 71.5059 67.8911C71.3135 67.8911 71.1426 67.9163 70.9912 67.9718C70.8389 68.0273 70.7178 68.1082 70.6328 68.2141C70.541 68.3202 70.501 68.4514 70.501 68.6028C70.501 68.7694 70.5723 68.8906 70.708 68.9663C70.8447 69.042 71.082 69.1329 71.4248 69.2339C71.8389 69.35 72.1816 69.4711 72.4443 69.6023C72.7119 69.7285 72.9092 69.88 73.0449 70.0566C73.1768 70.2334 73.2471 70.4554 73.2471 70.723C73.2471 71.1268 73.1357 71.4802 72.9141 71.7882C72.6924 72.0961 72.3789 72.3384 71.9805 72.515C71.5713 72.6918 71.1016 72.7826 70.5723 72.7826Z" fill="#1B3764" fill-opacity="1.000000" fill-rule="nonzero"/>
	<path id="Vector" d="M85.6201 64.7859L86.9883 64.7859L88.1348 72.6709L86.5596 72.6709L86.3623 70.7073L83.7422 70.7073L82.708 72.6709L81.1328 72.6709L85.6201 64.7859ZM86.2412 69.627L85.9287 66.5275L84.2979 69.627L86.2412 69.627Z" fill="#1B3764" fill-opacity="1.000000" fill-rule="nonzero"/>
	<path id="Vector" d="M92.8379 66.9059L94.1807 66.9059L93.9492 67.9811C94.1406 67.7338 94.3633 67.5217 94.6201 67.3501C94.8779 67.1785 95.1553 67.0472 95.4531 66.9564C95.751 66.8655 96.0645 66.8201 96.3818 66.8201C96.7207 66.8201 96.9883 66.8806 97.1699 66.9967C97.3564 67.1129 97.4873 67.2744 97.5635 67.4763C97.6387 67.6782 97.6797 67.9004 97.6797 68.1527C97.6797 68.3042 97.6689 68.4607 97.6445 68.6122C97.624 68.7635 97.5938 68.925 97.5684 69.0867L96.8008 72.6758L95.3115 72.6758L95.998 69.4602C96.0283 69.3491 96.0488 69.2482 96.0586 69.1522C96.0693 69.0564 96.0742 68.9655 96.0742 68.8796C96.0742 68.6222 96.0186 68.4354 95.9023 68.3143C95.7861 68.1931 95.6348 68.1326 95.4434 68.1326C95.2666 68.1326 95.0742 68.183 94.8672 68.2841C94.6611 68.385 94.4639 68.5262 94.2773 68.703C94.0898 68.8796 93.9385 69.0867 93.8125 69.3138L93.0908 72.6758L91.6016 72.6758L92.8379 66.9059Z" fill="#1B3764" fill-opacity="1.000000" fill-rule="nonzero"/>
	<path id="Vector" d="M102.688 75.1493C102.082 75.1493 101.592 75.0433 101.214 74.8313C100.84 74.6193 100.547 74.3214 100.33 73.9379L101.31 73.1503C101.456 73.4229 101.673 73.64 101.955 73.7965C102.238 73.953 102.562 74.0287 102.92 74.0287C103.207 74.0287 103.485 73.9731 103.753 73.8571C104.021 73.746 104.252 73.5693 104.459 73.332C104.661 73.0947 104.803 72.7919 104.873 72.4183L105.03 71.6914C104.777 72.0398 104.47 72.3124 104.101 72.4991C103.732 72.6909 103.364 72.7819 102.995 72.7819C102.587 72.7819 102.238 72.6758 101.945 72.4689C101.652 72.2618 101.431 71.9791 101.284 71.6309C101.138 71.2826 101.062 70.8888 101.062 70.4547C101.062 69.9751 101.147 69.5106 101.324 69.0765C101.496 68.6373 101.738 68.2537 102.047 67.9155C102.354 67.5773 102.708 67.3097 103.102 67.1129C103.495 66.916 103.914 66.8201 104.349 66.8201C104.777 66.8201 105.131 66.921 105.408 67.1229C105.687 67.3248 105.893 67.5974 106.024 67.9307L106.236 66.9059L107.549 66.9059L106.362 72.4133C106.246 72.9838 106.009 73.4784 105.65 73.8823C105.292 74.2861 104.863 74.6041 104.354 74.8212C103.844 75.0383 103.288 75.1493 102.688 75.1493ZM103.768 71.5956C103.914 71.5956 104.061 71.5703 104.207 71.5148C104.354 71.4592 104.489 71.3885 104.626 71.2926C104.757 71.2018 104.884 71.0907 104.994 70.9645C105.105 70.8383 105.201 70.707 105.282 70.5758L105.57 69.1978C105.54 68.9706 105.469 68.7737 105.358 68.6071C105.247 68.4404 105.11 68.3092 104.954 68.2184C104.798 68.1276 104.621 68.082 104.429 68.082C104.187 68.082 103.954 68.1477 103.742 68.2739C103.525 68.4001 103.334 68.5667 103.167 68.7686C103.001 68.9706 102.864 69.2028 102.769 69.4552C102.673 69.7075 102.622 69.9701 102.622 70.2325C102.622 70.4799 102.673 70.707 102.769 70.9191C102.864 71.1311 103.001 71.2977 103.172 71.4138C103.334 71.5349 103.535 71.5956 103.768 71.5956Z" fill="#1B3764" fill-opacity="1.000000" fill-rule="nonzero"/>
	<path id="Vector" d="M113.006 72.782C112.516 72.782 112.092 72.6759 111.733 72.469C111.375 72.262 111.103 71.9692 110.91 71.6007C110.719 71.2322 110.628 70.8132 110.628 70.3438C110.628 69.8693 110.719 69.4199 110.905 68.9908C111.093 68.5618 111.35 68.1932 111.683 67.8651C112.017 67.5371 112.405 67.2847 112.849 67.0979C113.293 66.9111 113.772 66.8152 114.293 66.8152C114.717 66.8152 115.08 66.8757 115.394 67.002C115.706 67.1282 115.943 67.3099 116.115 67.5471C116.287 67.7844 116.373 68.0771 116.373 68.4204C116.373 69.0312 116.095 69.4906 115.534 69.8087C114.975 70.1267 114.137 70.2832 113.021 70.2832C112.799 70.2832 112.557 70.2782 112.299 70.2681C112.041 70.2579 111.759 70.2378 111.456 70.2075L111.643 69.2736C111.91 69.2938 112.152 69.314 112.375 69.3241C112.597 69.3341 112.813 69.3392 113.031 69.3392C113.511 69.3392 113.894 69.309 114.167 69.2433C114.444 69.1776 114.646 69.0818 114.772 68.9606C114.898 68.8395 114.959 68.6931 114.959 68.5265C114.959 68.3801 114.924 68.2639 114.848 68.1731C114.772 68.0823 114.672 68.0116 114.545 67.9662C114.414 67.9207 114.263 67.8955 114.086 67.8955C113.798 67.8955 113.53 67.9611 113.293 68.0974C113.051 68.2336 112.844 68.4154 112.667 68.6476C112.49 68.8799 112.354 69.1473 112.259 69.4452C112.162 69.743 112.112 70.061 112.112 70.3943C112.112 70.6416 112.152 70.8638 112.238 71.0657C112.324 71.2676 112.45 71.4189 112.622 71.53C112.794 71.6411 113.011 71.6917 113.278 71.6917C113.576 71.6917 113.854 71.621 114.116 71.4796C114.379 71.3383 114.591 71.1414 114.742 70.8889L115.918 71.2574C115.727 71.5553 115.474 71.8177 115.161 72.0449C114.848 72.2721 114.51 72.4539 114.142 72.5851C113.768 72.7163 113.39 72.782 113.006 72.782Z" fill="#1B3764" fill-opacity="1.000000" fill-rule="nonzero"/>
	<path id="Vector" d="M120.688 72.7827C120.32 72.7827 120.032 72.6969 119.825 72.5201C119.623 72.3435 119.522 72.0962 119.522 71.7681C119.522 71.7024 119.527 71.6317 119.538 71.561C119.548 71.4904 119.558 71.4197 119.568 71.344L121.012 64.5645L122.49 64.5645L121.168 70.824C121.163 70.8594 121.153 70.8998 121.153 70.9351C121.147 70.9705 121.147 71.0107 121.147 71.0461C121.147 71.349 121.3 71.5005 121.603 71.5005C121.683 71.5005 121.779 71.4854 121.885 71.4551C121.991 71.4247 122.092 71.3894 122.188 71.344L122.143 72.4747C121.936 72.5707 121.693 72.6464 121.421 72.6969C121.147 72.7473 120.905 72.7827 120.688 72.7827Z" fill="#1B3764" fill-opacity="1.000000" fill-rule="nonzero"/>
	<path id="Vector" d="M127.62 72.7826C127.146 72.7826 126.701 72.7069 126.282 72.5504C125.863 72.3939 125.529 72.1718 125.277 71.884L126.02 70.9502C126.302 71.1925 126.59 71.3793 126.888 71.5105C127.186 71.6417 127.483 71.7024 127.786 71.7024C127.993 71.7024 128.17 71.672 128.321 71.6115C128.468 71.5509 128.584 71.4701 128.665 71.3641C128.745 71.2581 128.786 71.142 128.786 71.0057C128.786 70.824 128.705 70.6877 128.543 70.6019C128.382 70.5161 128.124 70.4202 127.776 70.3192C127.393 70.193 127.074 70.0769 126.827 69.9608C126.58 69.8497 126.398 69.7134 126.276 69.5569C126.161 69.4004 126.101 69.1985 126.101 68.9613C126.101 68.5524 126.216 68.1888 126.448 67.8658C126.681 67.5427 126.999 67.2904 127.393 67.1035C127.786 66.9167 128.23 66.8259 128.72 66.8259C129.145 66.8259 129.518 66.8916 129.851 67.0228C130.184 67.1541 130.481 67.356 130.739 67.6285L129.952 68.5271C129.715 68.3051 129.487 68.1434 129.271 68.0425C129.054 67.9415 128.811 67.8911 128.554 67.8911C128.361 67.8911 128.19 67.9163 128.039 67.9718C127.887 68.0273 127.766 68.1082 127.681 68.2141C127.589 68.3202 127.549 68.4514 127.549 68.6028C127.549 68.7694 127.62 68.8906 127.756 68.9663C127.893 69.042 128.13 69.1329 128.473 69.2339C128.887 69.35 129.229 69.4711 129.492 69.6023C129.76 69.7285 129.957 69.88 130.093 70.0566C130.225 70.2334 130.295 70.4554 130.295 70.723C130.295 71.1268 130.184 71.4802 129.962 71.7882C129.74 72.0961 129.427 72.3384 129.028 72.515C128.619 72.6918 128.154 72.7826 127.62 72.7826Z" fill="#1B3764" fill-opacity="1.000000" fill-rule="nonzero"/>
	<path id="Vector" d="M133.597 72.6713L133.94 71.071L135.161 71.071L134.818 72.6713L133.597 72.6713Z" fill="#1B3764" fill-opacity="1.000000" fill-rule="nonzero"/>
</svg>
