<svg width="99.769531" height="99.770020" viewBox="0 0 99.7695 99.77" fill="none" xmlns="http://www.w3.org/2000/svg" xmlns:xlink="http://www.w3.org/1999/xlink">
	<desc>
			Created with Pixso.
	</desc>
	<defs/>
	<path id="Vector" d="M49.8867 99.77C22.3789 99.77 0 77.3914 0 49.8871C0 22.3787 22.3789 0 49.8867 0C77.3916 0 99.7695 22.3787 99.7695 49.8871C99.7695 77.3914 77.3916 99.77 49.8867 99.77ZM49.8867 2.026C23.4971 2.026 2.02637 23.4969 2.02637 49.8871C2.02637 76.2771 23.4971 97.748 49.8867 97.748C76.2773 97.748 97.748 76.2771 97.748 49.8871C97.7441 23.4969 76.2773 2.026 49.8867 2.026Z" fill="#1B3764" fill-opacity="1.000000" fill-rule="nonzero"/>
	<path id="Vector" d="M10.2275 49.2269C10.2275 49.3889 10.5068 49.47 11.0703 49.47C11.208 49.47 11.3135 49.4537 11.3779 49.4254C11.5518 49.3403 11.7715 49.2998 12.0264 49.2998C12.2812 49.2998 12.4111 49.3646 12.4111 49.4984C12.4111 49.551 12.3906 49.6281 12.3467 49.7252C12.3018 49.8265 12.2695 49.8873 12.249 49.9076C12.2285 49.9279 12.1475 49.9603 12.0098 49.9967C11.8721 50.0332 11.7832 50.0575 11.7383 50.0615C11.6982 50.0657 11.6699 50.0697 11.6572 50.0697C11.6455 50.0737 11.6289 50.0737 11.6094 50.0778C11.5889 50.0818 11.5479 50.0859 11.4834 50.098C11.4189 50.1102 11.3701 50.1102 11.3418 50.098C10.5234 50.5032 9.95996 50.9449 9.65234 51.4271C9.51367 51.6459 9.44531 51.8323 9.44531 51.9862C9.44531 52.2294 9.61523 52.355 9.95605 52.355C10.2188 52.355 10.5596 52.2496 10.9648 52.043C11.374 51.8363 11.7344 51.5811 12.0508 51.2853C12.3662 50.9895 12.5244 50.7341 12.5244 50.5154C12.5244 50.4465 12.5771 50.41 12.6787 50.41C12.918 50.41 13.0391 50.5519 13.0391 50.8354C13.0391 50.9692 12.9824 51.1272 12.8652 51.3136C12.7471 51.5 12.585 51.6864 12.3789 51.8728C12.1719 52.0632 11.9414 52.2374 11.6855 52.4036C11.4307 52.5657 11.1475 52.6993 10.835 52.8047C10.5234 52.91 10.2598 52.9628 10.0449 52.9628C9.83008 52.9628 9.65625 52.9425 9.52246 52.902C9.38867 52.8615 9.2666 52.8007 9.14941 52.7196C8.89844 52.5454 8.76855 52.278 8.76855 51.9214C8.76855 51.7269 8.82129 51.5325 8.92676 51.3339C9.03223 51.1354 9.16602 50.953 9.33594 50.7909C9.64355 50.4829 9.97559 50.2277 10.333 50.0251C9.82227 49.9076 9.56641 49.6443 9.56641 49.239C9.56641 48.7771 9.91895 48.3557 10.6279 47.9749C11.0215 47.7642 11.4512 47.6143 11.9092 47.521C12.1279 47.4764 12.3096 47.4521 12.4561 47.4521C12.752 47.4521 12.9785 47.4764 13.1279 47.521C13.2217 47.5656 13.2949 47.6263 13.3516 47.7074C13.4082 47.7885 13.4365 47.8573 13.4365 47.9141C13.4365 47.9708 13.4287 48.0234 13.416 48.0721C13.3994 48.1207 13.376 48.1572 13.3428 48.1815C13.2949 48.218 13.2383 48.2463 13.1768 48.2666C13.1162 48.2869 13.0801 48.299 13.0674 48.3031C12.873 48.384 12.707 48.4246 12.5693 48.4246C12.3223 48.4246 12.1885 48.3922 12.1641 48.3274C12.168 48.2626 12.1963 48.1896 12.2451 48.1045C12.0098 48.1125 11.7666 48.1613 11.5117 48.2463C11.2607 48.3314 11.042 48.4327 10.8555 48.5461C10.6689 48.6597 10.5186 48.7811 10.4014 48.9027C10.2881 49.0365 10.2275 49.1418 10.2275 49.2269Z" fill="#1B3764" fill-opacity="1.000000" fill-rule="nonzero"/>
	<path id="Vector" d="M13.3027 52.1165L13.2988 52.1771C13.2988 52.2379 13.3232 52.2906 13.3682 52.3352C13.416 52.3798 13.457 52.4041 13.4971 52.4041C13.793 52.4041 14.0566 52.3595 14.2871 52.2704C14.5186 52.1813 14.6318 52.092 14.6318 52.0029C14.6318 51.9624 14.5918 51.9259 14.5059 51.8936C14.4209 51.8611 14.2832 51.8247 14.085 51.78C13.8867 51.7355 13.7441 51.6991 13.6553 51.6707C13.5664 51.6464 13.4971 51.6221 13.4443 51.5978C13.3916 51.5775 13.3398 51.545 13.2871 51.5045C13.1689 51.4235 13.1123 51.302 13.1123 51.1399C13.1123 50.9778 13.1729 50.8158 13.291 50.6577C13.4121 50.4996 13.5625 50.3619 13.7402 50.2484C13.9189 50.135 14.1172 50.0337 14.3242 49.9486C14.7334 49.7784 15.082 49.6934 15.3613 49.6934C15.6367 49.6934 15.8066 49.7542 15.8721 49.8717C15.8926 49.9121 15.9004 49.9608 15.9004 50.0134L15.9004 50.0377C15.9004 50.1675 15.8721 50.2728 15.8154 50.3457C15.7588 50.4187 15.6729 50.4875 15.5518 50.5483C15.4297 50.6091 15.3369 50.6375 15.2637 50.6375C15.1953 50.6375 15.1504 50.6334 15.1299 50.6212C15.1104 50.6091 15.0977 50.5969 15.082 50.5807C15.0693 50.5646 15.0537 50.5524 15.0371 50.5443C15.0166 50.5361 15.0088 50.5199 15.0088 50.4875C15.0088 50.4592 15.0205 50.4268 15.0449 50.3984C15.0693 50.366 15.0859 50.3336 15.0977 50.3011C14.9355 50.3092 14.7617 50.3457 14.583 50.4146C14.4053 50.4835 14.251 50.5604 14.125 50.6415C14 50.7266 13.8906 50.8076 13.8096 50.8846C13.7246 50.9615 13.6836 51.0183 13.6836 51.0548C13.6836 51.0913 13.7402 51.1196 13.8535 51.1439C14.3682 51.2452 14.7051 51.3344 14.8633 51.4073C15.0205 51.4802 15.1348 51.5653 15.1992 51.6586C15.2598 51.7517 15.292 51.8368 15.292 51.9138C15.292 52.0718 15.2275 52.2218 15.1016 52.3635C14.9766 52.5054 14.8184 52.6188 14.6318 52.708C14.2354 52.9025 13.8867 52.9998 13.5908 52.9998C13.2949 52.9998 13.0918 52.9552 12.9785 52.866C12.8652 52.7769 12.8086 52.6675 12.8086 52.5459C12.8086 52.4243 12.8408 52.3069 12.9014 52.2015C12.9668 52.0962 13.0479 52.0435 13.1445 52.0435C13.25 52.0394 13.3027 52.0637 13.3027 52.1165Z" fill="#1B3764" fill-opacity="1.000000" fill-rule="nonzero"/>
	<path id="Vector" d="M18.2461 48.0723L18.3994 48.1088C18.4199 48.1088 18.4404 48.1208 18.4609 48.1411C18.4805 48.1614 18.4854 48.1857 18.4854 48.2059C18.4854 48.2262 18.4609 48.2789 18.4082 48.364C18.3555 48.4491 18.2949 48.5504 18.2256 48.6598C18.1562 48.7692 18.1162 48.83 18.1123 48.8381C18.3066 48.8219 18.4404 48.8179 18.5215 48.8179C18.6025 48.8179 18.6553 48.8219 18.6875 48.834C18.7197 48.8462 18.752 48.8745 18.7891 48.9272C18.8252 48.9799 18.8613 49.0164 18.8945 49.0406C18.9268 49.0649 18.9424 49.1055 18.9424 49.1582C18.9424 49.2108 18.9102 49.2554 18.8496 49.2919C18.7852 49.3284 18.7197 49.3486 18.6475 49.3567C18.0713 49.4135 17.7559 49.4418 17.6943 49.4458C17.4922 49.7538 17.2129 50.2319 16.8516 50.8802C16.4912 51.5286 16.3008 51.9377 16.2764 52.0999C16.2686 52.1729 16.2607 52.2335 16.2607 52.2822C16.2607 52.3794 16.3135 52.4281 16.4141 52.4281C16.5156 52.4281 16.6289 52.3876 16.751 52.3105C16.8721 52.2335 16.9902 52.1484 17.0908 52.0553C17.3662 51.8081 17.5166 51.6825 17.5371 51.6825C17.6016 51.6825 17.6338 51.7919 17.6338 52.0188C17.6338 52.1404 17.5771 52.2498 17.4678 52.347C17.2168 52.5618 17.0059 52.7239 16.8359 52.8333C16.666 52.9426 16.4951 52.9954 16.3252 52.9954C16.2891 52.9954 16.252 52.9913 16.2197 52.9832C16.0215 52.9467 15.876 52.8738 15.7822 52.7644C15.6895 52.655 15.6445 52.5092 15.6445 52.3268C15.6445 52.1444 15.7012 51.9216 15.8066 51.6582C15.916 51.3989 16.0498 51.1193 16.2119 50.8235C16.4795 50.3413 16.7471 49.8916 17.0137 49.4702L16.8721 49.4905C16.585 49.5228 16.418 49.5391 16.3701 49.5391L16.3379 49.5391C16.2646 49.5391 16.1953 49.5228 16.1309 49.4945C16.0664 49.4661 16.0293 49.4297 16.0293 49.3892C16.0293 49.3486 16.0459 49.3081 16.082 49.2676C16.1182 49.2271 16.1387 49.1987 16.1465 49.1744C16.1631 49.1217 16.2275 49.0609 16.3418 48.9921C16.4551 48.9232 16.54 48.8907 16.5967 48.8867C16.6533 48.8827 16.71 48.8785 16.7627 48.8785C16.8154 48.8745 16.876 48.8745 16.9414 48.8705C17.0059 48.8665 17.0586 48.8665 17.0908 48.8624L17.4277 48.8462C17.6338 48.5342 17.7803 48.3315 17.8564 48.2424C17.9336 48.1533 17.9785 48.1047 17.9902 48.0966C18.0029 48.0885 18.0273 48.0845 18.0635 48.0845L18.2461 48.0723Z" fill="#1B3764" fill-opacity="1.000000" fill-rule="nonzero"/>
	<path id="Vector" d="M17.8291 52.4196C17.9463 52.302 18.0635 52.2412 18.1768 52.2412C18.3838 52.2412 18.4854 52.3263 18.4854 52.4924C18.4854 52.6302 18.4287 52.7639 18.3105 52.8936C18.1934 53.0232 18.0635 53.088 17.918 53.088C17.7393 53.088 17.6504 52.9989 17.6504 52.8165C17.6504 52.6708 17.7109 52.537 17.8291 52.4196Z" fill="#1B3764" fill-opacity="1.000000" fill-rule="nonzero"/>
	<path id="Vector" d="M80.2393 52.2489C80.8799 52.1233 81.3213 52.0585 81.5684 52.0585C81.6621 52.0585 81.71 52.0869 81.7266 52.1436C81.7305 52.1678 81.7432 52.1841 81.7627 52.1923C81.7832 52.2043 81.8037 52.2529 81.8242 52.3381C81.8438 52.4232 81.8564 52.4961 81.8604 52.5488L81.8604 52.5812C81.8604 52.6663 81.8281 52.719 81.7627 52.7311C81.5234 52.7798 81.1387 52.8243 80.5996 52.8649C80.0654 52.9054 79.7451 52.9337 79.6436 52.9459C79.5908 52.9459 79.5098 52.9175 79.3965 52.8607C79.3721 52.8364 79.3477 52.8 79.3232 52.7433C79.2998 52.6865 79.2832 52.6379 79.2832 52.5934C79.2832 52.5529 79.3076 52.484 79.3525 52.3907C79.3604 52.3745 79.5146 52.2003 79.8184 51.868C79.8906 51.787 80.0859 51.6128 80.3975 51.3333C80.71 51.0536 80.9287 50.8511 81.0498 50.7133C81.1719 50.5756 81.3857 50.3486 81.6943 50.0284C82.002 49.7084 82.2285 49.4612 82.3789 49.283C82.5283 49.1046 82.6016 48.979 82.6016 48.9061C82.6016 48.8575 82.5654 48.8373 82.4922 48.8373C82.4189 48.8373 82.334 48.8575 82.2285 48.9021C82.1279 48.9467 82.0059 49.0115 81.8721 49.0966C81.5527 49.3032 81.2441 49.6112 80.9521 50.0244C80.9365 50.0366 80.9326 50.0609 80.9326 50.1014C80.9121 50.15 80.8711 50.1906 80.8066 50.223C80.7422 50.2554 80.6895 50.2716 80.6484 50.2716C80.6084 50.2716 80.5596 50.2594 80.499 50.2311C80.4385 50.2068 80.3936 50.1785 80.3652 50.15C80.3369 50.1217 80.3203 50.069 80.3203 49.9921C80.3203 49.915 80.3652 49.8057 80.4502 49.6638C80.5352 49.522 80.6572 49.3721 80.8145 49.21C80.9727 49.052 81.1426 48.8981 81.3379 48.7562C81.5283 48.6144 81.7432 48.4968 81.9814 48.3997C82.2207 48.3064 82.4189 48.2578 82.5859 48.2578C82.752 48.2578 82.873 48.2943 82.9541 48.3672C83.0996 48.501 83.1729 48.6509 83.1729 48.8129C83.1729 48.975 83.0957 49.1776 82.9424 49.4166C82.7881 49.6558 82.5771 49.915 82.3145 50.1987C82.0508 50.4823 81.7998 50.7416 81.5645 50.9767C81.3291 51.2076 81.0664 51.4589 80.7783 51.7303C80.4902 52.0059 80.3086 52.176 80.2393 52.2489Z" fill="#1B3764" fill-opacity="1.000000" fill-rule="nonzero"/>
	<path id="Vector" d="M86.2529 48.8698C86.2578 48.9144 86.2412 49.0198 86.2129 49.1818C86.1846 49.3439 86.0869 49.5505 85.9248 49.7977C85.9287 49.8058 85.9287 49.8301 85.9336 49.8666C85.9375 49.9031 85.9287 49.9557 85.917 50.0245C85.9053 50.0935 85.8477 50.2272 85.7549 50.4136C85.6572 50.604 85.54 50.8107 85.3945 51.0336C85.248 51.2563 85.0781 51.4833 84.8799 51.7102C84.6807 51.9371 84.4824 52.1437 84.2715 52.3301C84.0654 52.5165 83.8428 52.6664 83.6074 52.7839C83.3721 52.9015 83.1572 52.9623 82.9668 52.9623C82.7764 52.9623 82.623 52.9055 82.5098 52.788C82.3955 52.6705 82.3311 52.5084 82.3271 52.2977C82.3193 52.087 82.3711 51.8318 82.4854 51.536C82.5986 51.2401 82.748 50.9443 82.9346 50.6486C83.1211 50.3528 83.3398 50.061 83.5908 49.7733C83.8379 49.4857 84.0938 49.2305 84.3486 49.0116C84.6045 48.7928 84.8594 48.6145 85.1143 48.4768C85.3701 48.339 85.5762 48.2742 85.7383 48.2742C85.9004 48.2742 86.0264 48.3309 86.1152 48.4443C86.2002 48.5537 86.249 48.6956 86.2529 48.8698ZM83.0078 52.014C83.0117 52.2126 83.085 52.3098 83.2305 52.3098C83.376 52.3098 83.5508 52.2289 83.7617 52.0627C84.1221 51.7872 84.543 51.3252 85.0254 50.681C84.8916 50.7579 84.7861 50.7944 84.7051 50.7944C84.624 50.7944 84.5635 50.7661 84.5234 50.7053C84.4824 50.6486 84.458 50.5635 84.4541 50.4581C84.4502 50.3528 84.4863 50.2839 84.5635 50.2555C84.8711 50.134 85.127 49.9476 85.3252 49.6924C85.5244 49.437 85.6172 49.194 85.6133 48.967C85.6094 48.886 85.5527 48.8495 85.4473 48.8495C85.3418 48.8495 85.1592 48.959 84.9082 49.1777C84.6572 49.3966 84.4053 49.6599 84.1504 49.9679C83.8994 50.2758 83.6641 50.608 83.4453 50.9646C83.2266 51.3212 83.0889 51.6251 83.0234 51.8763C83.0039 51.9209 83.0039 51.9655 83.0078 52.014Z" fill="#1B3764" fill-opacity="1.000000" fill-rule="nonzero"/>
	<path id="Vector" d="M86.3496 52.2489C86.9902 52.1233 87.4316 52.0585 87.6787 52.0585C87.7725 52.0585 87.8203 52.0869 87.8369 52.1436C87.8408 52.1678 87.8535 52.1841 87.873 52.1923C87.8936 52.2043 87.9141 52.2529 87.9346 52.3381C87.9541 52.4232 87.9668 52.4961 87.9707 52.5488L87.9707 52.5812C87.9707 52.6663 87.9385 52.719 87.873 52.7311C87.6338 52.7798 87.249 52.8243 86.71 52.8649C86.1758 52.9054 85.8555 52.9337 85.7539 52.9459C85.7012 52.9459 85.6201 52.9175 85.5068 52.8607C85.4824 52.8364 85.458 52.8 85.4336 52.7433C85.4102 52.6865 85.3936 52.6379 85.3936 52.5934C85.3936 52.5529 85.418 52.484 85.4629 52.3907C85.4707 52.3745 85.625 52.2003 85.9287 51.868C86.001 51.787 86.1963 51.6128 86.5078 51.3333C86.8203 51.0536 87.0391 50.8511 87.1602 50.7133C87.2822 50.5756 87.4961 50.3486 87.8047 50.0284C88.1123 49.7084 88.3389 49.4612 88.4893 49.283C88.6387 49.1046 88.7119 48.979 88.7119 48.9061C88.7119 48.8575 88.6758 48.8373 88.6025 48.8373C88.5293 48.8373 88.4443 48.8575 88.3389 48.9021C88.2383 48.9467 88.1162 49.0115 87.9824 49.0966C87.6631 49.3032 87.3545 49.6112 87.0625 50.0244C87.0469 50.0366 87.043 50.0609 87.043 50.1014C87.0225 50.15 86.9814 50.1906 86.917 50.223C86.8525 50.2554 86.7998 50.2716 86.7588 50.2716C86.7188 50.2716 86.6699 50.2594 86.6094 50.2311C86.5488 50.2068 86.5039 50.1785 86.4756 50.15C86.4473 50.1217 86.4307 50.069 86.4307 49.9921C86.4307 49.915 86.4756 49.8057 86.5605 49.6638C86.6455 49.522 86.7676 49.3721 86.9248 49.21C87.083 49.052 87.2529 48.8981 87.4482 48.7562C87.6387 48.6144 87.8535 48.4968 88.0918 48.3997C88.3311 48.3064 88.5293 48.2578 88.6963 48.2578C88.8623 48.2578 88.9834 48.2943 89.0645 48.3672C89.21 48.501 89.2832 48.6509 89.2832 48.8129C89.2832 48.975 89.2061 49.1776 89.0527 49.4166C88.8984 49.6558 88.6875 49.915 88.4248 50.1987C88.1611 50.4823 87.9102 50.7416 87.6748 50.9767C87.4395 51.2076 87.1768 51.4589 86.8887 51.7303C86.6006 52.0059 86.4229 52.176 86.3496 52.2489Z" fill="#1B3764" fill-opacity="1.000000" fill-rule="nonzero"/>
	<path id="Vector" d="M92.3623 48.8698C92.3672 48.9144 92.3506 49.0198 92.3223 49.1818C92.2939 49.3439 92.1963 49.5505 92.0342 49.7977C92.0381 49.8058 92.0381 49.8301 92.043 49.8666C92.0469 49.9031 92.0381 49.9557 92.0264 50.0245C92.0146 50.0935 91.957 50.2272 91.8643 50.4136C91.7666 50.604 91.6494 50.8107 91.5039 51.0336C91.3574 51.2563 91.1875 51.4833 90.9893 51.7102C90.79 51.9371 90.5918 52.1437 90.3809 52.3301C90.1748 52.5165 89.9521 52.6664 89.7168 52.7839C89.4814 52.9015 89.2666 52.9623 89.0762 52.9623C88.8857 52.9623 88.7324 52.9055 88.6191 52.788C88.5049 52.6705 88.4404 52.5084 88.4365 52.2977C88.4287 52.087 88.4805 51.8318 88.5947 51.536C88.708 51.2401 88.8574 50.9443 89.0439 50.6486C89.2305 50.3528 89.4492 50.061 89.7002 49.7733C89.9473 49.4857 90.2031 49.2305 90.458 49.0116C90.7139 48.7928 90.9688 48.6145 91.2236 48.4768C91.4795 48.339 91.6855 48.2742 91.8477 48.2742C92.0098 48.2742 92.1357 48.3309 92.2246 48.4443C92.3145 48.5537 92.3584 48.6956 92.3623 48.8698ZM89.1172 52.014C89.1211 52.2126 89.1943 52.3098 89.3398 52.3098C89.4854 52.3098 89.6602 52.2289 89.8711 52.0627C90.2314 51.7872 90.6523 51.3252 91.1348 50.681C91.001 50.7579 90.8955 50.7944 90.8145 50.7944C90.7334 50.7944 90.6729 50.7661 90.6328 50.7053C90.5918 50.6486 90.5674 50.5635 90.5635 50.4581C90.5596 50.3528 90.5957 50.2839 90.6729 50.2555C90.9805 50.134 91.2363 49.9476 91.4346 49.6924C91.6338 49.437 91.7266 49.194 91.7227 48.967C91.7188 48.886 91.6621 48.8495 91.5566 48.8495C91.4512 48.8495 91.2686 48.959 91.0176 49.1777C90.7666 49.3966 90.5146 49.6599 90.2598 49.9679C90.0088 50.2758 89.7734 50.608 89.5547 50.9646C89.3359 51.3212 89.1982 51.6251 89.1328 51.8763C89.1172 51.9209 89.1133 51.9655 89.1172 52.014Z" fill="#1B3764" fill-opacity="1.000000" fill-rule="nonzero"/>
	<path id="Vector" d="M20.2676 76.5729C20.252 76.4473 20.2236 76.3257 20.1904 76.2041C20.1621 76.1028 20.126 75.9894 20.0771 75.8718C20.0293 75.7544 19.9717 75.6531 19.8955 75.5598C19.834 75.4869 19.7773 75.4382 19.7207 75.4139C19.6641 75.3896 19.6074 75.3978 19.5547 75.4424C19.5146 75.4747 19.4941 75.5112 19.4902 75.5598C19.4863 75.6044 19.4902 75.6611 19.5098 75.726C19.5264 75.7908 19.5547 75.8638 19.5908 75.9489C19.6279 76.0339 19.668 76.1312 19.709 76.2406C19.7773 76.4108 19.834 76.5729 19.875 76.7228C19.915 76.8727 19.9316 77.0186 19.9277 77.1522C19.9238 77.286 19.8867 77.4156 19.8262 77.5372C19.7617 77.6587 19.6602 77.7762 19.5225 77.8896C19.3438 78.0355 19.166 78.1248 18.9912 78.1571C18.8174 78.1896 18.6475 78.1814 18.4893 78.1368C18.3271 78.0883 18.1768 78.0112 18.0352 77.9019C17.8936 77.7925 17.7637 77.6709 17.6543 77.5331C17.5654 77.4237 17.4844 77.3063 17.4072 77.1765C17.3301 77.0469 17.2617 76.9132 17.2002 76.7754C17.1396 76.6377 17.0869 76.4999 17.043 76.358C16.998 76.2163 16.9658 76.0825 16.9453 75.9489L17.9502 75.7179C17.9668 75.8678 17.999 76.0137 18.0352 76.1555C18.0674 76.277 18.1123 76.4108 18.1689 76.5526C18.2256 76.6943 18.3027 76.8241 18.4004 76.9375C18.4727 77.0266 18.5381 77.0793 18.5859 77.0956C18.6387 77.1117 18.6836 77.1036 18.7236 77.0712C18.7646 77.0388 18.7891 76.9901 18.7891 76.9335C18.7891 76.8767 18.7764 76.8038 18.748 76.7268C18.7197 76.6458 18.6836 76.5566 18.6426 76.4594C18.6025 76.3622 18.5576 76.2568 18.5176 76.1393C18.457 75.9731 18.4121 75.8192 18.3838 75.6814C18.3594 75.5437 18.3516 75.4181 18.3672 75.3046C18.3838 75.1912 18.4199 75.0817 18.4814 74.9845C18.542 74.8872 18.627 74.7941 18.7363 74.705C18.9023 74.5712 19.0723 74.4821 19.2471 74.4375C19.4209 74.3929 19.5908 74.3929 19.7617 74.4253C19.9316 74.4618 20.0898 74.5266 20.2393 74.6239C20.3896 74.7211 20.5273 74.8427 20.6484 74.9926C20.7383 75.1019 20.8145 75.2155 20.876 75.337C20.9404 75.4585 20.9932 75.5801 21.042 75.7017C21.0908 75.8232 21.127 75.9448 21.1592 76.0582C21.1914 76.1716 21.2158 76.277 21.2363 76.3702L20.2676 76.5729Z" fill="#1B3764" fill-opacity="1.000000" fill-rule="nonzero"/>
	<path id="Vector" d="M20.7051 80.8723L24.3477 78.9922L24.9795 79.5675L23.4561 83.3723L22.6299 82.6227L22.9619 81.9095L22.2041 81.2207L21.5312 81.626L20.7051 80.8723ZM23.9219 80.0902L22.792 80.8033L23.3105 81.2734L23.9219 80.0902Z" fill="#1B3764" fill-opacity="1.000000" fill-rule="nonzero"/>
	<path id="Vector" d="M28.0264 84.3929L26.998 85.9773L26.1143 85.402L28.2051 82.1807L28.8936 82.6304L29.125 85.1061L30.1865 83.4691L31.0693 84.0446L28.9785 87.2657L28.2783 86.808L28.0264 84.3929Z" fill="#1B3764" fill-opacity="1.000000" fill-rule="nonzero"/>
	<path id="Vector" d="M36.0859 90.6202L37.3057 86.9775L39.8018 87.8163L39.5098 88.6875L38.0107 88.1851L37.8076 88.7887L39.0273 89.198L38.7559 90.0083L37.5361 89.5991L37.083 90.9525L36.0859 90.6202Z" fill="#1B3764" fill-opacity="1.000000" fill-rule="nonzero"/>
	<path id="Vector" d="M41.9131 92.3059L42.5732 88.5215L44.3115 88.8253C44.498 88.8578 44.6602 88.9266 44.8018 89.028C44.9443 89.1333 45.0615 89.2549 45.1543 89.3967C45.2441 89.5386 45.3086 89.6925 45.3447 89.8627C45.3818 90.0328 45.3857 90.1949 45.3574 90.3571C45.3203 90.5758 45.2354 90.7743 45.1064 90.9486C44.9766 91.1228 44.8184 91.2524 44.624 91.3457L45.2354 92.8854L44.0645 92.6827L43.5459 91.3943L43.1572 91.3254L42.9541 92.4883L41.9131 92.3059ZM43.3105 90.4177L43.9678 90.5312C44.0322 90.5433 44.0967 90.519 44.166 90.4542C44.2344 90.3934 44.2793 90.3003 44.2998 90.1707C44.3242 90.0369 44.3076 89.9315 44.2549 89.8505C44.2021 89.7694 44.1455 89.7249 44.0811 89.7128L43.4531 89.6034L43.3105 90.4177Z" fill="#1B3764" fill-opacity="1.000000" fill-rule="nonzero"/>
	<path id="Vector" d="M48.2422 93.1694L49.7412 89.3525L50.5967 89.3688L51.958 93.2343L50.8438 93.214L50.625 92.4563L49.6035 92.4401L49.3643 93.1897L48.2422 93.1694ZM50.1465 90.4587L49.7656 91.7391L50.4629 91.7512L50.1465 90.4587Z" fill="#1B3764" fill-opacity="1.000000" fill-rule="nonzero"/>
	<path id="Vector" d="M56.0742 90.986L56.3457 92.8539L55.2998 93.0079L54.7451 89.2073L55.5596 89.0897L57.3662 90.7996L57.083 88.8668L58.1289 88.7129L58.6836 92.5135L57.8525 92.6351L56.0742 90.986Z" fill="#1B3764" fill-opacity="1.000000" fill-rule="nonzero"/>
	<path id="Vector" d="M61.5283 89.8547C61.459 89.6318 61.4268 89.3969 61.4395 89.1577C61.4512 88.9187 61.5039 88.6837 61.6016 88.4648C61.6982 88.2461 61.8398 88.0475 62.0264 87.8693C62.2129 87.6951 62.4443 87.5613 62.7197 87.4722C63.0479 87.3668 63.3555 87.3506 63.6436 87.4194C63.9346 87.4884 64.1738 87.6261 64.3682 87.8287L63.7725 88.6189C63.7119 88.5378 63.6514 88.4771 63.582 88.4365C63.5137 88.396 63.4443 88.3635 63.376 88.3474C63.3066 88.3312 63.2383 88.3271 63.165 88.3352C63.0967 88.3433 63.0312 88.3555 62.9785 88.3717C62.8535 88.4122 62.752 88.473 62.6787 88.5621C62.6064 88.6472 62.5537 88.7445 62.5205 88.8579C62.4883 88.9673 62.4805 89.0848 62.4883 89.2104C62.4961 89.3361 62.5205 89.4535 62.5576 89.567C62.5977 89.6926 62.6543 89.8101 62.7236 89.9154C62.792 90.0208 62.873 90.11 62.9668 90.1788C63.0596 90.2477 63.1572 90.2964 63.2666 90.3207C63.376 90.345 63.4854 90.3369 63.6025 90.3004C63.6592 90.2802 63.7207 90.2559 63.7773 90.2194C63.834 90.1829 63.8867 90.1383 63.9307 90.0857C63.9756 90.033 64.0117 89.9681 64.04 89.8993C64.0684 89.8263 64.085 89.7452 64.085 89.6561L65.0615 89.8871C65.0537 90.037 65.0127 90.1829 64.9395 90.3207C64.8672 90.4625 64.7773 90.5881 64.668 90.7015C64.5586 90.8149 64.4336 90.9163 64.292 91.0013C64.1533 91.0864 64.0117 91.1554 63.8662 91.2C63.6113 91.281 63.3594 91.3011 63.1123 91.2607C62.8652 91.2202 62.6387 91.1351 62.4277 91.0054C62.2168 90.8757 62.0342 90.7096 61.877 90.5111C61.7188 90.3125 61.6055 90.0897 61.5283 89.8547Z" fill="#1B3764" fill-opacity="1.000000" fill-rule="nonzero"/>
	<path id="Vector" d="M68.4609 89.3853L66.8281 85.9087L67.7842 85.459L69.417 88.9355L68.4609 89.3853Z" fill="#1B3764" fill-opacity="1.000000" fill-rule="nonzero"/>
	<path id="Vector" d="M73.2061 83.7894C73.0801 83.7935 72.9551 83.8057 72.8291 83.8218C72.7236 83.838 72.6104 83.8623 72.4893 83.8948C72.3672 83.9271 72.2578 83.9758 72.1602 84.0366C72.084 84.0852 72.0273 84.1378 71.9941 84.1946C71.9619 84.2473 71.9658 84.304 72.0029 84.3647C72.0312 84.4093 72.0674 84.4336 72.1123 84.4418C72.1562 84.4498 72.2129 84.4498 72.2783 84.4418C72.3428 84.4296 72.4199 84.4135 72.5088 84.389C72.5986 84.3647 72.6992 84.3364 72.8135 84.304C72.9912 84.2554 73.1572 84.2189 73.3115 84.1986C73.4658 84.1783 73.6113 84.1743 73.7451 84.1946C73.8789 84.2148 74 84.2634 74.1133 84.3405C74.2275 84.4175 74.332 84.5309 74.4297 84.6848C74.5557 84.8794 74.624 85.0658 74.6367 85.244C74.6484 85.4224 74.624 85.5885 74.5557 85.7424C74.4863 85.8964 74.3936 86.0382 74.2676 86.1678C74.1416 86.2975 74.0039 86.407 73.8545 86.5042C73.7373 86.5812 73.6074 86.65 73.4736 86.7108C73.3359 86.7716 73.1982 86.8242 73.0518 86.8689C72.9062 86.9135 72.7646 86.9498 72.6182 86.9783C72.4766 87.0066 72.335 87.0228 72.2012 87.0269L72.0879 86.0017C72.2373 86.0017 72.3838 85.9896 72.5332 85.9694C72.6592 85.9531 72.7969 85.9248 72.9424 85.8801C73.0889 85.8397 73.2266 85.7748 73.3516 85.6938C73.4492 85.6331 73.5098 85.5763 73.5303 85.5236C73.5508 85.475 73.5508 85.4264 73.5225 85.3859C73.4941 85.3413 73.4492 85.3129 73.3926 85.3048C73.3359 85.2968 73.2627 85.3048 73.1816 85.321C73.1006 85.3413 73.0078 85.3656 72.9062 85.3939C72.8047 85.4224 72.6953 85.4547 72.5742 85.4832C72.3994 85.5277 72.2412 85.552 72.1035 85.5601C71.9658 85.5682 71.8369 85.5601 71.7275 85.5317C71.6133 85.5033 71.5127 85.4547 71.4229 85.3818C71.334 85.3129 71.249 85.2157 71.1719 85.0981C71.0586 84.9199 70.9893 84.7416 70.9697 84.5592C70.9492 84.377 70.9648 84.2108 71.0176 84.0487C71.0703 83.8866 71.1562 83.7327 71.2695 83.5948C71.3828 83.4572 71.5205 83.3356 71.6826 83.2302C71.7998 83.1532 71.9258 83.0925 72.0508 83.0438C72.1768 82.9952 72.3066 82.9547 72.4316 82.9222C72.5576 82.8899 72.6836 82.8656 72.8008 82.8494C72.918 82.8331 73.0234 82.8169 73.1211 82.8088L73.2061 83.7894Z" fill="#1B3764" fill-opacity="1.000000" fill-rule="nonzero"/>
	<path id="Vector" d="M76.4229 82.2292C76.2686 82.0509 76.1475 81.8524 76.0625 81.6255C75.9727 81.3986 75.9326 81.1676 75.9326 80.9246C75.9326 80.6814 75.9854 80.4464 76.083 80.2114C76.1797 79.9764 76.3418 79.7616 76.5605 79.5712C76.8203 79.3442 77.0957 79.2065 77.3877 79.1538C77.6787 79.1012 77.959 79.1295 78.2139 79.2389L77.9824 80.2032C77.8975 80.1547 77.8125 80.1223 77.7314 80.1101C77.6504 80.0979 77.5781 80.0979 77.5088 80.1101C77.4395 80.1223 77.375 80.1466 77.3105 80.183C77.2451 80.2195 77.1973 80.252 77.1523 80.2925C77.0508 80.3816 76.9863 80.4789 76.9541 80.5842C76.9209 80.6896 76.9131 80.803 76.9297 80.9164C76.9453 81.0299 76.9824 81.1433 77.0391 81.2527C77.0957 81.3622 77.1641 81.4634 77.2412 81.5526C77.3301 81.6539 77.4277 81.739 77.5332 81.8079C77.6387 81.8767 77.748 81.9253 77.8613 81.9537C77.9746 81.9821 78.084 81.9821 78.1934 81.9618C78.3027 81.9415 78.4043 81.8889 78.4932 81.8079C78.5381 81.7673 78.583 81.7188 78.6191 81.666C78.6553 81.6093 78.6875 81.5486 78.708 81.4836C78.7285 81.4148 78.7363 81.3459 78.7324 81.2649C78.7285 81.1879 78.7119 81.1068 78.6758 81.0259L79.6602 80.8475C79.7129 80.9894 79.7334 81.1393 79.7256 81.2932C79.7168 81.4473 79.6846 81.6012 79.6279 81.7511C79.5713 81.901 79.498 82.0428 79.4053 82.1765C79.3115 82.3103 79.207 82.4277 79.0928 82.5291C78.8906 82.7034 78.6719 82.8248 78.4287 82.8856C78.1855 82.9464 77.9424 82.9586 77.6992 82.9261C77.4561 82.8896 77.2207 82.8127 76.9941 82.6912C76.7793 82.5656 76.585 82.4156 76.4229 82.2292Z" fill="#1B3764" fill-opacity="1.000000" fill-rule="nonzero"/>
	<path id="Vector" d="M83.6836 77.8213C83.5098 78.032 83.3066 78.186 83.0762 78.2874C82.8447 78.3885 82.6104 78.4413 82.3672 78.4493C82.124 78.4575 81.8848 78.417 81.6455 78.3359C81.4102 78.2549 81.1963 78.1333 81.0059 77.9713C80.8105 77.8092 80.6533 77.6188 80.5312 77.3959C80.4102 77.1771 80.333 76.942 80.3047 76.703C80.2764 76.464 80.2881 76.2208 80.3535 75.9777C80.418 75.7386 80.5352 75.5117 80.7061 75.3051C80.8799 75.0944 81.0869 74.9404 81.3135 74.8391C81.5439 74.7378 81.7793 74.6852 82.0264 74.677C82.2695 74.673 82.5088 74.7095 82.748 74.7946C82.9824 74.8796 83.1934 74.9972 83.3838 75.1552C83.5781 75.3173 83.7363 75.5077 83.8535 75.7266C83.9717 75.9453 84.0488 76.1763 84.0811 76.4153C84.1133 76.6544 84.0967 76.8975 84.0361 77.1406C83.9756 77.3878 83.8584 77.6106 83.6836 77.8213ZM81.7021 77.1569C81.8037 77.2419 81.9092 77.3108 82.0225 77.3635C82.1357 77.4161 82.249 77.4486 82.3633 77.4607C82.4766 77.4729 82.5859 77.4567 82.6953 77.4202C82.8008 77.3838 82.8975 77.3148 82.9785 77.2135C83.0635 77.1123 83.1162 77.0028 83.1328 76.8894C83.1484 76.776 83.1406 76.6665 83.1084 76.5571C83.0762 76.4478 83.0195 76.3424 82.9463 76.2411C82.873 76.1398 82.7842 76.0466 82.6914 75.9656C82.5898 75.8805 82.4844 75.8157 82.3711 75.7629C82.2578 75.7103 82.1436 75.6779 82.0342 75.6698C81.9248 75.6576 81.8154 75.6738 81.7109 75.7144C81.6055 75.7549 81.5117 75.8237 81.4268 75.921C81.3418 76.0223 81.2891 76.1317 81.2725 76.2411C81.2568 76.3505 81.2646 76.4598 81.2969 76.5693C81.3291 76.6787 81.3818 76.7841 81.4551 76.8854C81.5283 76.9867 81.6055 77.0758 81.7021 77.1569Z" fill="#1B3764" fill-opacity="1.000000" fill-rule="nonzero"/>
	<path id="Vector" d="M14.8584 34.0684C14.9111 33.9508 14.9277 33.8455 14.9111 33.7401C14.8945 33.6348 14.8584 33.5416 14.7979 33.4525C14.7373 33.3674 14.6562 33.2864 14.5586 33.2134C14.4619 33.1405 14.3516 33.0797 14.2344 33.027L12.3789 32.2085L12.8164 31.2158L14.6719 32.0343C14.9238 32.1437 15.1426 32.2815 15.333 32.4436C15.5234 32.6056 15.6689 32.788 15.7666 32.9946C15.8672 33.2013 15.916 33.4281 15.916 33.6713C15.916 33.9185 15.8555 34.1777 15.7334 34.4574C15.6084 34.745 15.4502 34.9719 15.2637 35.134C15.0771 35.2961 14.8711 35.4055 14.6523 35.4663C14.4326 35.5271 14.1982 35.5392 13.959 35.5068C13.7158 35.4744 13.4766 35.4015 13.2334 35.2961L11.3779 34.4775L11.8154 33.4849L13.6709 34.3033C13.7891 34.3561 13.9102 34.3966 14.0322 34.4209C14.1533 34.4452 14.2666 34.4492 14.3721 34.4371C14.4775 34.4249 14.5713 34.3884 14.6562 34.3276C14.7412 34.271 14.8096 34.1818 14.8584 34.0684Z" fill="#1B3764" fill-opacity="1.000000" fill-rule="nonzero"/>
	<path id="Vector" d="M18.0098 29.9839L14.7402 27.7795L15.7529 26.2764C15.8623 26.1183 15.9922 25.9927 16.1504 25.8995C16.3086 25.8104 16.4707 25.7496 16.6445 25.7253C16.8145 25.7009 16.9893 25.7051 17.1631 25.7415C17.3379 25.778 17.4951 25.8428 17.6328 25.936C17.8242 26.0657 17.9736 26.2236 18.083 26.4182C18.1924 26.6127 18.249 26.8193 18.2529 27.0341L19.9512 27.1069L19.2666 28.12L17.8438 28.0632L17.6172 28.3995L18.6221 29.0762L18.0098 29.9839ZM16.8311 27.8768L17.2119 27.3096C17.248 27.2528 17.252 27.184 17.2236 27.0948C17.1953 27.0057 17.123 26.9247 17.0137 26.8477C16.8994 26.7706 16.7949 26.7383 16.6973 26.7545C16.5996 26.7706 16.5312 26.8031 16.4951 26.8599L16.1299 27.4028L16.8311 27.8768Z" fill="#1B3764" fill-opacity="1.000000" fill-rule="nonzero"/>
	<path id="Vector" d="M23.4277 21.7064C23.5576 21.828 23.6387 21.9617 23.6836 22.1035C23.7236 22.2454 23.7275 22.3912 23.6992 22.5411C23.667 22.691 23.6064 22.8409 23.5176 22.9908C23.4277 23.1407 23.3145 23.2866 23.1807 23.4244L21.8359 24.8223L18.9912 22.0873L20.5791 20.4381C20.6729 20.3409 20.7822 20.272 20.9033 20.2316C21.0215 20.191 21.1426 20.1788 21.2646 20.1869C21.3857 20.1951 21.5029 20.2274 21.6211 20.2802C21.7383 20.3328 21.8398 20.4017 21.9326 20.4908C22.0664 20.6205 22.1602 20.7744 22.2168 20.9608C22.2734 21.1472 22.2656 21.3376 22.1963 21.5322C22.3984 21.4147 22.6094 21.3661 22.8164 21.3864C23.0225 21.4066 23.2256 21.516 23.4277 21.7064ZM20.4014 21.9495L20.8389 22.371L21.3496 21.8401C21.4023 21.7875 21.4346 21.7227 21.4463 21.6497C21.459 21.5768 21.4219 21.4998 21.333 21.4147C21.2559 21.3417 21.1836 21.3053 21.1143 21.3093C21.0459 21.3134 20.9844 21.3417 20.9365 21.3944L20.4014 21.9495ZM22.5039 22.3466C22.4355 22.2777 22.3584 22.2412 22.2773 22.2332C22.1963 22.2251 22.123 22.2494 22.0664 22.3102L21.4463 22.9543L21.9248 23.4122L22.5166 22.7964C22.5771 22.7316 22.6094 22.6586 22.6133 22.5775C22.6172 22.4966 22.5811 22.4196 22.5039 22.3466Z" fill="#1B3764" fill-opacity="1.000000" fill-rule="nonzero"/>
	<path id="Vector" d="M26.127 20.6606L24.96 16.6128L25.665 16.0901L29.1943 18.3834L28.2744 19.0642L27.6221 18.5861L26.7793 19.2101L27.0508 19.9678L26.127 20.6606ZM25.9854 17.2571L26.4795 18.5375L27.0547 18.1119L25.9854 17.2571Z" fill="#1B3764" fill-opacity="1.000000" fill-rule="nonzero"/>
	<path id="Vector" d="M31.792 14.6561L32.6553 16.3944L31.6826 16.8766L29.9238 13.3434L30.6816 12.9666L32.9951 14.0565L32.0996 12.2615L33.0684 11.7793L34.8262 15.3125L34.0566 15.6975L31.792 14.6561Z" fill="#1B3764" fill-opacity="1.000000" fill-rule="nonzero"/>
	<path id="Vector" d="M44.7979 11.475C44.8301 11.6493 44.8184 11.8073 44.7695 11.9451C44.7207 12.0828 44.6357 12.2043 44.5225 12.3097C44.4082 12.411 44.2705 12.5001 44.1084 12.569C43.9463 12.6379 43.7686 12.6906 43.582 12.723L41.6738 13.0674L40.9727 9.18567L43.2256 8.78052C43.3594 8.75623 43.4893 8.76428 43.6064 8.80078C43.7275 8.83728 43.833 8.89795 43.9268 8.979C44.0195 9.06006 44.0967 9.15332 44.1611 9.2627C44.2266 9.37207 44.2666 9.48962 44.291 9.61523C44.3232 9.79749 44.3076 9.97986 44.2471 10.1622C44.1816 10.3445 44.0684 10.4945 43.8945 10.6119C44.1289 10.6362 44.3232 10.7213 44.4854 10.8591C44.6436 10.9969 44.749 11.2035 44.7979 11.475ZM42.2041 9.8988L42.3135 10.4945L43.0391 10.3647C43.1123 10.3527 43.1768 10.3202 43.2295 10.2676C43.2822 10.2148 43.2988 10.1298 43.2783 10.0123C43.2578 9.90698 43.2217 9.83398 43.1611 9.79749C43.0996 9.76111 43.0352 9.7489 42.9658 9.76111L42.2041 9.8988ZM43.6748 11.4507C43.6592 11.3575 43.6182 11.2805 43.5576 11.2279C43.4932 11.1752 43.4238 11.1509 43.3428 11.1671L42.4639 11.3251L42.5811 11.9774L43.4238 11.8275C43.5137 11.8113 43.582 11.7708 43.6309 11.7059C43.6748 11.6371 43.6914 11.556 43.6748 11.4507Z" fill="#1B3764" fill-opacity="1.000000" fill-rule="nonzero"/>
	<path id="Vector" d="M49.7256 12.2288C49.4453 12.2288 49.1865 12.172 48.9551 12.0586C48.7246 11.9451 48.5254 11.7952 48.3594 11.6088C48.1934 11.4224 48.0635 11.2076 47.9746 10.9686C47.8818 10.7295 47.8369 10.4783 47.8369 10.223C47.8369 9.96375 47.8818 9.71252 47.9746 9.47339C48.0684 9.23438 48.2012 9.01965 48.3721 8.83728C48.542 8.65088 48.7402 8.505 48.9717 8.39563C49.2021 8.28625 49.458 8.22949 49.7334 8.22949C50.0166 8.22949 50.2725 8.28625 50.5029 8.39966C50.7344 8.51318 50.9326 8.66711 51.0986 8.85352C51.2646 9.03992 51.3906 9.25464 51.4834 9.49768C51.5732 9.73682 51.6172 9.98401 51.6211 10.2352C51.6211 10.4945 51.5771 10.7457 51.4834 10.9847C51.3906 11.2239 51.2607 11.4346 51.0947 11.621C50.9287 11.8032 50.7295 11.9532 50.4951 12.0667C50.2598 12.172 50.0049 12.2288 49.7256 12.2288ZM48.9346 10.2311C48.9346 10.3649 48.9512 10.4945 48.9834 10.6161C49.0156 10.7377 49.0645 10.8511 49.1338 10.9442C49.2021 11.0415 49.2832 11.1185 49.3848 11.1752C49.4863 11.236 49.6035 11.2644 49.7334 11.2644C49.8711 11.2644 49.9883 11.2319 50.0898 11.1711C50.1914 11.1104 50.2725 11.0293 50.333 10.9321C50.3936 10.8348 50.4424 10.7214 50.4746 10.5958C50.5068 10.4702 50.5195 10.3406 50.5195 10.2108C50.5195 10.0771 50.5029 9.94751 50.4668 9.82593C50.4346 9.70032 50.3818 9.59094 50.3164 9.49768C50.252 9.40454 50.167 9.32751 50.0693 9.27087C49.9678 9.21411 49.8506 9.18579 49.7168 9.18579C49.5791 9.18579 49.4619 9.21814 49.3643 9.2749C49.2676 9.33569 49.1865 9.4126 49.1211 9.51392C49.0566 9.61121 49.0078 9.72461 48.9795 9.84619C48.9473 9.97583 48.9346 10.1014 48.9346 10.2311Z" fill="#1B3764" fill-opacity="1.000000" fill-rule="nonzero"/>
	<path id="Vector" d="M56.3418 12.7876C56.0664 12.739 55.8232 12.6377 55.6123 12.4838C55.4062 12.3297 55.2354 12.1475 55.1064 11.9368C54.9766 11.726 54.8877 11.491 54.8389 11.2397C54.79 10.9885 54.79 10.7333 54.835 10.4821C54.8789 10.2268 54.9688 9.98779 55.1025 9.76892C55.2354 9.54614 55.4062 9.36377 55.6045 9.20984C55.8027 9.05579 56.0264 8.95044 56.2734 8.88159C56.5205 8.81274 56.7793 8.80457 57.0547 8.85327C57.3311 8.90186 57.5742 9.00317 57.7842 9.1571C57.9912 9.31104 58.1611 9.49341 58.291 9.70813C58.4209 9.92297 58.5098 10.158 58.5547 10.4092C58.5986 10.6604 58.6025 10.9116 58.5586 11.1587C58.5137 11.4141 58.4248 11.6531 58.291 11.8718C58.1572 12.0907 57.9912 12.2771 57.7969 12.427C57.6025 12.5769 57.3789 12.6903 57.1279 12.7593C56.877 12.8281 56.6133 12.8362 56.3418 12.7876ZM55.917 10.6847C55.8926 10.8143 55.8887 10.944 55.8965 11.0736C55.9043 11.1992 55.9365 11.3168 55.9854 11.4261C56.0342 11.5315 56.1025 11.6248 56.1924 11.6976C56.2812 11.7747 56.3906 11.8232 56.5205 11.8475C56.6543 11.8718 56.7754 11.8597 56.8848 11.8192C56.9941 11.7787 57.0879 11.7098 57.1689 11.6248C57.25 11.5397 57.3145 11.4384 57.3672 11.3168C57.4199 11.1992 57.4561 11.0736 57.4805 10.948C57.5049 10.8184 57.5088 10.6887 57.4971 10.5591C57.4844 10.4294 57.4561 10.3159 57.4072 10.2106C57.3594 10.1052 57.29 10.0161 57.2051 9.94312C57.1162 9.87024 57.0068 9.82166 56.877 9.79736C56.7432 9.77295 56.6221 9.78113 56.5117 9.82568C56.4072 9.86621 56.3096 9.93103 56.2285 10.0161C56.1475 10.1012 56.083 10.2025 56.0303 10.3199C55.9736 10.4335 55.9365 10.5551 55.917 10.6847Z" fill="#1B3764" fill-opacity="1.000000" fill-rule="nonzero"/>
	<path id="Vector" d="M61.1836 13.9019L62.5293 10.1943L63.5459 10.5631L62.9951 12.0785L64.7773 11.0088L65.8232 11.3896L63.874 12.5607L64.5713 15.1335L63.5049 14.7487L63.0635 12.9172L62.5977 13.1725L62.1963 14.2747L61.1836 13.9019Z" fill="#1B3764" fill-opacity="1.000000" fill-rule="nonzero"/>
	<path id="Vector" d="M70.4707 15.2104C70.4053 15.097 70.3369 14.9917 70.2598 14.8864C70.1953 14.7971 70.1182 14.708 70.0293 14.6108C69.9395 14.5176 69.8428 14.4406 69.7412 14.3799C69.6562 14.3312 69.583 14.3069 69.5186 14.3069C69.4531 14.3069 69.4053 14.3352 69.3682 14.396C69.3438 14.4406 69.3359 14.4852 69.3486 14.5298C69.3604 14.5743 69.3887 14.627 69.4297 14.6797C69.4697 14.7365 69.5225 14.7971 69.5918 14.8621C69.6562 14.9309 69.7334 15.0078 69.8145 15.097C69.9434 15.2347 70.0576 15.3685 70.1504 15.4982C70.2441 15.6278 70.3164 15.7574 70.3613 15.8871C70.4053 16.0168 70.4219 16.1505 70.4053 16.2924C70.3896 16.4341 70.3369 16.5841 70.248 16.7461C70.1299 16.9528 69.9961 17.1027 69.8389 17.204C69.6846 17.3013 69.5186 17.358 69.3486 17.3701C69.1777 17.3823 69.0039 17.3661 68.8252 17.3134C68.6475 17.2607 68.4814 17.1919 68.3232 17.1027C68.1973 17.0338 68.0723 16.9487 67.9502 16.8556C67.8291 16.7623 67.7148 16.661 67.6016 16.5516C67.4922 16.4423 67.3867 16.3287 67.2939 16.2113C67.2012 16.0938 67.1201 15.9763 67.0508 15.8588L67.9258 15.259C67.999 15.3928 68.0801 15.5225 68.1729 15.6481C68.25 15.7534 68.3438 15.8628 68.4482 15.9763C68.5576 16.0897 68.6797 16.183 68.8135 16.2599C68.915 16.3167 68.9961 16.345 69.0527 16.3409C69.1094 16.3369 69.1494 16.3126 69.1738 16.2681C69.2021 16.2194 69.2061 16.1667 69.1816 16.11C69.1621 16.0532 69.1211 15.9924 69.0645 15.9276C69.0078 15.8628 68.9434 15.7899 68.8623 15.7129C68.7852 15.6359 68.7041 15.5508 68.623 15.4536C68.501 15.3158 68.4004 15.1862 68.3271 15.0646C68.25 14.943 68.1973 14.8256 68.1729 14.708C68.1445 14.5906 68.1406 14.4771 68.1611 14.3596C68.1816 14.2421 68.2295 14.1245 68.2988 13.9989C68.4043 13.8085 68.5342 13.6626 68.6875 13.5532C68.8379 13.4479 69.0039 13.379 69.1777 13.3506C69.3525 13.3223 69.5303 13.3263 69.7129 13.3628C69.8955 13.3993 70.0693 13.4641 70.2393 13.5614C70.3652 13.6343 70.4824 13.7153 70.5879 13.8044C70.6934 13.8977 70.791 13.9908 70.8838 14.0922C70.9775 14.1935 71.0537 14.2906 71.127 14.3879C71.2002 14.4852 71.2646 14.5784 71.3174 14.6594L70.4707 15.2104Z" fill="#1B3764" fill-opacity="1.000000" fill-rule="nonzero"/>
	<path id="Vector" d="M76.4922 19.1492L75.6084 18.436L73.7246 20.7739L72.8818 20.0933L74.7656 17.7552L73.8789 17.0421L74.4697 16.3047L77.084 18.4116L76.4922 19.1492Z" fill="#1B3764" fill-opacity="1.000000" fill-rule="nonzero"/>
	<path id="Vector" d="M77.8086 24.781C77.6221 24.5703 77.4922 24.3434 77.4238 24.0922C77.3545 23.8409 77.335 23.5939 77.3633 23.3467C77.3916 23.0995 77.4639 22.8605 77.5859 22.6335C77.7031 22.4066 77.8574 22.204 78.0518 22.0338C78.2461 21.8596 78.4609 21.73 78.7041 21.6367C78.9473 21.5476 79.1943 21.5031 79.4414 21.5071C79.6924 21.5111 79.9355 21.5638 80.1709 21.661C80.4062 21.7623 80.6162 21.9164 80.8027 22.1189C80.9893 22.3296 81.1191 22.5565 81.1885 22.8077C81.2568 23.0549 81.2773 23.3062 81.2451 23.5533C81.2119 23.8004 81.1396 24.0396 81.0176 24.2665C80.8965 24.4933 80.7422 24.6919 80.5557 24.858C80.3613 25.0322 80.1465 25.1619 79.9033 25.2511C79.6602 25.3402 79.417 25.3848 79.1699 25.3807C78.9229 25.3807 78.6797 25.328 78.4404 25.2267C78.2061 25.1416 77.9951 24.9877 77.8086 24.781ZM78.7773 22.8645C78.6758 22.9536 78.5908 23.0509 78.5215 23.1562C78.4492 23.2616 78.4004 23.371 78.3721 23.4885C78.3438 23.6019 78.3438 23.7153 78.3643 23.8289C78.3877 23.9423 78.4404 24.0516 78.5303 24.1489C78.6191 24.2502 78.7246 24.3191 78.834 24.3516C78.9434 24.3839 79.0605 24.3921 79.1738 24.3759C79.2881 24.3596 79.4053 24.3191 79.5186 24.2583C79.6318 24.1975 79.7373 24.1246 79.835 24.0396C79.9316 23.9504 80.0166 23.8531 80.0898 23.7438C80.1592 23.6343 80.207 23.5249 80.2354 23.4155C80.2646 23.3062 80.2637 23.1926 80.2402 23.0792C80.2158 22.9658 80.1592 22.8605 80.0693 22.7592C79.9766 22.6578 79.8789 22.589 79.7656 22.5565C79.6562 22.5242 79.543 22.516 79.4258 22.5322C79.3076 22.5485 79.1943 22.589 79.0811 22.6456C78.9795 22.7064 78.874 22.7754 78.7773 22.8645Z" fill="#1B3764" fill-opacity="1.000000" fill-rule="nonzero"/>
	<path id="Vector" d="M80.916 28.6798L84.2793 26.6133L85.2275 28.1571C85.3281 28.3191 85.3896 28.4934 85.4053 28.6757C85.4219 28.858 85.4092 29.0282 85.3613 29.1943C85.3125 29.3605 85.2354 29.5144 85.1299 29.6603C85.0244 29.8021 84.8994 29.9197 84.7568 30.0048C84.5625 30.1263 84.3516 30.1952 84.1328 30.2114C83.9141 30.2275 83.6992 30.1952 83.501 30.1101L82.7314 31.6295L82.0908 30.5883L82.7314 29.3159L82.5205 28.9714L81.4873 29.6077L80.916 28.6798ZM83.3184 28.4731L83.6758 29.0565C83.7119 29.1133 83.7764 29.1458 83.8701 29.1578C83.9629 29.166 84.0645 29.1376 84.1816 29.0687C84.2998 28.9958 84.3682 28.9148 84.3965 28.8175C84.4248 28.7244 84.4209 28.6473 84.3848 28.5906L84.04 28.0315L83.3184 28.4731Z" fill="#1B3764" fill-opacity="1.000000" fill-rule="nonzero"/>
	<path id="Vector" d="M85.957 36.5443L85.082 36.9009L84.0244 34.2955L87.6836 32.8125L88.7207 35.3733L87.8457 35.7299L87.2129 34.174L86.6982 34.3846L87.2373 35.7136L86.4229 36.0419L85.8838 34.7129L85.3086 34.9479L85.957 36.5443Z" fill="#1B3764" fill-opacity="1.000000" fill-rule="nonzero"/>
	<path id="Vector" d="M65.8027 50.2354C65.7705 50.1178 65.6328 49.9841 65.4824 50.0367C64.0361 50.5109 62.582 50.3163 61.1631 50.1218C60.8193 50.0732 60.459 50.0287 60.1104 49.9882C59.3525 49.9071 58.3516 49.8423 57.3506 50.0448C56.3174 50.2556 55.2725 50.7621 54.0566 51.6414C53.7773 51.8439 53.4932 52.0586 53.21 52.2815C53.6152 50.5109 54.0156 48.7401 54.4863 46.9816L54.5547 46.8804C55.3408 46.4751 56.1592 46.3171 57.0713 46.1631C58.0068 46.0092 58.9268 45.835 59.8506 45.4338C61.4346 44.745 63.0234 43.5375 64.8594 41.625C65.7461 40.6971 66.585 39.7288 67.3633 38.809C67.4482 38.7076 67.4639 38.5698 67.4033 38.4727C67.3389 38.3713 67.1602 38.3025 67.0186 38.4119C65.6084 39.4978 64.0117 39.9313 62.4639 40.3568C62.0879 40.4622 61.6943 40.5675 61.3135 40.6809C60.4912 40.9281 59.417 41.2927 58.4082 41.9208C57.375 42.5691 56.3984 43.5092 55.3408 44.8787C55.1992 45.061 55.0576 45.2515 54.916 45.4419C55.5762 43.2255 56.3945 41.0415 57.5049 39.0156C57.5537 38.9264 57.6016 38.8413 57.6504 38.7562C57.6914 38.6914 57.7393 38.6388 57.8008 38.5942L57.8047 38.582C58.4971 37.9418 59.3115 37.5204 60.2275 37.0747C61.168 36.6168 62.083 36.1509 62.9219 35.4661C64.3643 34.2952 65.6367 32.6338 66.9297 30.2391C67.5576 29.0763 68.1084 27.889 68.623 26.7748C68.6797 26.6492 68.6514 26.5155 68.5547 26.4465C68.457 26.3777 68.25 26.3737 68.1367 26.5195C67.0146 28.0026 65.4746 28.9425 63.9717 29.8542C63.6064 30.077 63.2305 30.308 62.8652 30.5389C62.0791 31.0455 61.0625 31.7424 60.2109 32.6663C59.3359 33.6184 58.623 34.8219 57.9707 36.4548C57.7393 37.0342 57.5166 37.642 57.3105 38.266C57.2979 38.2903 57.2822 38.3105 57.2695 38.3348C57.2656 38.3389 57.2656 38.3389 57.2617 38.343C57.2207 38.3834 57.1924 38.4362 57.1807 38.4888C56.7393 39.2668 56.3379 40.0731 55.9775 40.8916C55.9814 40.8228 55.9893 40.7538 55.9971 40.689C56.1396 38.9629 56.0537 37.6136 55.7256 36.4346C55.4062 35.2919 54.8584 34.2992 54.417 33.5618C54.2148 33.2213 53.9961 32.877 53.7812 32.5406C52.9258 31.1873 52.0391 29.7935 51.7305 28.0389C51.6982 27.8607 51.5205 27.7959 51.4023 27.8242C51.2891 27.8525 51.208 27.9661 51.2041 28.0997C51.1631 29.3032 51.127 30.5836 51.1592 31.868C51.2285 34.5139 51.5889 36.4791 52.2939 38.0553C52.707 38.9751 53.2666 39.7206 53.8584 40.4702C54.4297 41.1956 54.9316 41.8682 55.2354 42.6947L55.2275 42.7635C54.9238 43.582 54.6523 44.4087 54.4014 45.2393C54.1621 46.0334 53.9434 46.8317 53.7363 47.634C53.7119 47.4882 53.6875 47.3423 53.6592 47.1964C53.3916 45.7985 52.9824 44.745 52.3672 43.8738C51.7715 43.031 50.9814 42.3503 50.3613 41.856C50.0732 41.625 49.7734 41.3981 49.4736 41.1711C48.2861 40.2676 47.0586 39.3357 46.3291 38.0107C46.2568 37.8811 46.0703 37.8608 45.9648 37.9054C45.9082 37.9297 45.8633 37.9742 45.835 38.0269C45.8105 38.0796 45.8027 38.1404 45.8193 38.1971C46.0664 39.1573 46.334 40.1785 46.6738 41.1914C47.375 43.2742 48.21 44.7612 49.2998 45.8713C49.9355 46.5197 50.6816 46.9978 51.4512 47.476C52.2012 47.9379 52.8652 48.3715 53.3721 48.967L53.3838 49.0643C53.0674 50.373 52.7764 51.6859 52.4766 52.9946C52.3223 53.6592 52.168 54.3236 52.0059 54.9841C52.002 54.9719 52.002 54.9558 51.998 54.9436C51.7871 53.7645 51.459 52.8772 50.957 52.1478C50.4707 51.4387 49.8223 50.8715 49.3115 50.4581C49.0771 50.2677 48.834 50.0773 48.5947 49.8949L48.5869 49.8868C47.6143 49.1372 46.6094 48.3593 46.0215 47.2531C45.957 47.1316 45.791 47.1194 45.7012 47.1599C45.6006 47.2045 45.5439 47.3179 45.5674 47.4274C45.7627 48.2336 45.9766 49.0967 46.248 49.9436C46.8115 51.698 47.4883 52.946 48.3799 53.8739C48.8984 54.4169 49.5146 54.814 50.1465 55.2111C50.7295 55.5757 51.249 55.916 51.6494 56.3739C51.2646 57.8286 50.8311 59.2751 50.3086 60.6892C49.5186 62.8206 48.5059 64.8749 47.2051 66.7103C45.9531 68.4729 44.4248 70.0127 42.6914 71.1107C42.4678 71.2526 42.2373 71.3862 42.0098 71.5159C41.8887 71.5847 41.8809 71.7347 41.9658 71.8157C42.0674 71.913 42.2412 71.913 42.3672 71.8401C44.1777 70.8392 45.7988 69.3805 47.1484 67.6544C48.4893 65.9364 49.5674 63.9874 50.4102 61.9453C51.4346 59.4574 52.1396 56.8561 52.7598 54.2548C52.8447 53.9022 52.9258 53.5457 53.0107 53.1932C53.7441 53.1283 54.458 53.2864 55.2393 53.4808C56.0742 53.6915 56.8965 53.8779 57.7764 53.8496C59.2832 53.8091 60.916 53.2823 62.918 52.2004C63.8867 51.6737 64.8223 51.0862 65.6973 50.5311C65.7871 50.4784 65.835 50.3528 65.8027 50.2354ZM62.4688 43.1444C61.6133 43.8495 60.7705 44.4047 59.96 44.7896C59.0039 45.2474 58.0518 45.4459 57.249 45.5797L57.1074 45.604C56.6777 45.6769 56.2041 45.7539 55.7295 45.8713C56.8564 45.0813 58.084 44.5951 59.251 44.1696L59.6445 44.0278C60.3408 43.7766 61.0586 43.5132 61.7637 43.1971C62.3711 42.9216 62.9307 42.6177 63.4531 42.2733C63.1211 42.5894 62.792 42.8771 62.4688 43.1444ZM58.4004 42.5691C59.7295 41.6615 61.1963 41.2604 62.6143 40.8754C63.1162 40.7377 63.6309 40.5999 64.1377 40.4377C64.5996 40.2919 65.0166 40.1339 65.4023 39.9678C64.9883 40.3689 64.5918 40.7255 64.1943 41.0537C63.457 41.6655 62.6504 42.1801 61.7998 42.5813C61.0381 42.9419 60.248 43.2296 59.4863 43.5051C58.627 43.8171 57.7393 44.1412 56.877 44.5707C56.4756 44.7693 56.1064 44.98 55.7588 45.2069C56.415 44.356 57.3223 43.3065 58.4004 42.5691ZM64.9355 32.4556C64.2715 33.3997 63.5664 34.1979 62.8447 34.83C61.9863 35.5796 61.0498 36.082 60.2441 36.475L60.1016 36.5439C59.6562 36.7587 59.1699 36.9977 58.6924 37.2773C59.6201 36.1509 60.7627 35.2797 61.8643 34.4856C61.9775 34.4045 62.0918 34.3235 62.2051 34.2424L62.2334 34.2222C62.8857 33.7562 63.5586 33.27 64.1943 32.7391C64.7734 32.257 65.2881 31.7545 65.7422 31.2278C65.4707 31.6694 65.2031 32.0747 64.9355 32.4556ZM60.4062 33.274C61.5039 31.9814 62.9219 31.1224 64.292 30.2877C64.7783 29.9919 65.2764 29.6881 65.7588 29.368C66.2119 29.0641 66.6172 28.7683 66.9785 28.4725C66.6699 28.9993 66.3623 29.4774 66.0498 29.9271C65.4785 30.7456 64.7979 31.4912 64.0322 32.1516C63.3477 32.7391 62.6104 33.274 61.8965 33.7886C61.0947 34.368 60.2598 34.9636 59.4941 35.6565C59.1211 35.9888 58.7891 36.3251 58.4893 36.6696C58.8945 35.6444 59.502 34.3397 60.4062 33.274ZM54.2061 40.0366L54.1172 39.9232C53.6152 39.283 53.0439 38.4929 52.6465 37.5123C52.3105 36.6816 52.0635 35.7052 51.9053 34.6071C51.8438 34.1938 51.7998 33.7603 51.7627 33.3024C51.917 33.9102 52.124 34.5139 52.3867 35.1257C52.6953 35.8348 53.0479 36.5115 53.3916 37.168L53.5869 37.5366C54.1621 38.6388 54.7412 39.8219 55.041 41.1671C54.7734 40.7538 54.4775 40.3771 54.2061 40.0366ZM55.0771 39.4288C54.7295 38.5293 54.292 37.6906 53.8662 36.8802C53.4893 36.1631 53.1006 35.4175 52.7803 34.6395C52.4238 33.7683 52.1729 32.8445 52.0391 31.8964C51.9658 31.3859 51.9131 30.851 51.8809 30.2797C52.0547 30.6646 52.2578 31.0616 52.4961 31.479C52.7598 31.9369 53.0479 32.3907 53.3271 32.8324C54.1133 34.0723 54.9316 35.3567 55.3008 36.9248C55.6006 38.1971 55.5635 39.5829 55.4746 40.6566C55.3691 40.2515 55.2354 39.8462 55.0771 39.4288ZM51.6865 47.0262L51.5684 46.9532C50.9082 46.5441 50.1426 46.0294 49.5059 45.3285C48.9678 44.7368 48.4854 44.0116 48.0635 43.1769C47.9141 42.8811 47.7764 42.5731 47.6387 42.2408C47.9346 42.6825 48.2822 43.108 48.6836 43.5294C49.1621 44.0278 49.6807 44.4978 50.1865 44.9517L50.4707 45.2069C51.2969 45.9524 52.1436 46.7548 52.7637 47.7312C52.4072 47.4719 52.0303 47.2369 51.6865 47.0262ZM52.4199 46.3738C51.8525 45.7296 51.2119 45.1501 50.5879 44.5909C50.0371 44.0967 49.4658 43.582 48.9551 43.031C48.3838 42.411 47.9141 41.7303 47.5537 41.005C47.3672 40.6282 47.1924 40.2352 47.0264 39.8097C47.29 40.0771 47.5859 40.3486 47.9258 40.6282C48.3027 40.9402 48.7041 41.2441 49.0889 41.5359C50.1826 42.3624 51.3096 43.2214 52.0586 44.3884C52.6543 45.3203 52.9502 46.4103 53.1162 47.2693C52.9102 46.9695 52.6826 46.6737 52.4199 46.3738ZM50.3574 54.8058L50.2598 54.7451C49.7168 54.4047 49.0928 53.9792 48.5742 53.3958C48.1367 52.9015 47.7441 52.2977 47.4033 51.5967C47.3057 51.3942 47.2129 51.1835 47.1201 50.9646C47.3428 51.2888 47.5938 51.6008 47.8857 51.9128C48.2783 52.3301 48.7041 52.7231 49.1172 53.1L49.3486 53.3107C50.0049 53.9104 50.6729 54.5587 51.1719 55.3447C50.9004 55.1421 50.6162 54.9679 50.3574 54.8058ZM50.9727 54.2548C50.5107 53.7158 49.9844 53.2336 49.4736 52.7677C49.0244 52.3545 48.5537 51.929 48.1406 51.463C47.6787 50.9485 47.2939 50.3771 47.002 49.7693C46.8604 49.4775 46.7305 49.1697 46.6055 48.8414C46.8076 49.0441 47.0303 49.2548 47.2861 49.4655C47.5938 49.7247 47.9219 49.98 48.2383 50.2231C49.1338 50.912 50.0576 51.6251 50.6611 52.6016C51.127 53.3512 51.3584 54.2264 51.4912 54.9355C51.3379 54.7086 51.168 54.4817 50.9727 54.2548ZM60.5273 52.7111C59.6396 53.0432 58.7969 53.2378 58.0195 53.2944C57.0996 53.3593 56.2441 53.1851 55.5312 53.0068L55.4062 52.9744C55.0293 52.8812 54.6152 52.7759 54.1865 52.7069C55.3164 52.4031 56.459 52.4193 57.5449 52.4598C57.6631 52.4639 57.7803 52.4679 57.9014 52.476L57.9141 52.476C58.5625 52.5044 59.2354 52.5327 59.9072 52.5044C60.4785 52.4801 61.0176 52.4071 61.5322 52.2896C61.1875 52.4476 60.8516 52.5895 60.5273 52.7111ZM62.4766 51.4225C61.7109 51.7102 60.9043 51.8844 60.0898 51.9371C59.3604 51.9857 58.623 51.9532 57.9102 51.9209C57.1074 51.8884 56.2773 51.8521 55.4424 51.9249C55.0576 51.9574 54.7012 52.014 54.3525 52.0911C55.1064 51.5521 56.1113 50.9241 57.1885 50.6486C58.5254 50.3082 59.8672 50.4906 61.1631 50.6648C61.6211 50.7256 62.0957 50.7904 62.5615 50.8309C62.9824 50.8674 63.3721 50.8795 63.7363 50.8715C63.2988 51.0902 62.8857 51.2686 62.4766 51.4225Z" fill="#1B3764" fill-opacity="1.000000" fill-rule="nonzero"/>
	<path id="Vector" d="" fill="#1B3764" fill-opacity="1.000000" fill-rule="nonzero"/>
	<path id="Vector" d="M32.0742 58.5868C32.5645 58.9596 33.0918 59.3527 33.6426 59.7092C34.7773 60.4467 35.7207 60.8357 36.6123 60.9288C37.1309 60.9856 37.6299 60.9126 38.1357 60.8275C38.6104 60.7465 39.04 60.6898 39.4727 60.7627C39.5059 60.9774 39.5381 61.1923 39.5703 61.407C39.8135 62.9791 40.1094 64.5553 40.5996 66.0789C41.0049 67.3308 41.5518 68.5383 42.2646 69.6201C42.9824 70.7061 43.8779 71.6501 44.9023 72.3309C44.9756 72.3795 45.0771 72.3876 45.1416 72.335C45.1982 72.2904 45.1982 72.2013 45.1299 72.1526C45 72.0675 44.8701 71.9744 44.7451 71.8811C43.7686 71.1477 42.9336 70.1631 42.2773 69.057C41.5918 67.9062 41.0898 66.6379 40.7207 65.3373C40.4775 64.4742 40.2871 63.595 40.1299 62.7157C40.3887 62.4645 40.7129 62.2863 41.0781 62.0958C41.4707 61.8892 41.8555 61.6825 42.1875 61.3867C42.7588 60.8762 43.2207 60.1671 43.6387 59.1541C43.8408 58.6638 44.0068 58.1614 44.1611 57.6914C44.1816 57.6266 44.1533 57.5576 44.0967 57.5253C44.0439 57.4968 43.9463 57.4968 43.9023 57.5658C43.501 58.1938 42.8682 58.6071 42.2568 59.0083L42.249 59.0123C42.0986 59.1095 41.9443 59.2108 41.7988 59.3121C41.4746 59.535 41.0654 59.8389 40.7451 60.236C40.4131 60.6453 40.1738 61.1558 39.9961 61.8446C39.9922 61.8527 39.9922 61.8608 39.9922 61.8689C39.9268 61.4678 39.8662 61.0667 39.8057 60.6655C39.6875 59.8754 39.5742 59.0812 39.4531 58.291L39.4648 58.2344C39.793 57.9061 40.2061 57.6792 40.6768 57.4402C41.1592 57.193 41.6211 56.9458 42.0303 56.5892C42.7266 55.9814 43.2939 55.1387 43.8086 53.9353C44.0557 53.3518 44.2666 52.7603 44.457 52.201C44.4688 52.1686 44.4688 52.1322 44.457 52.0997C44.4453 52.0674 44.4209 52.0389 44.3877 52.0227C44.3271 51.9904 44.2139 51.9944 44.165 52.0674C43.6709 52.8169 42.8975 53.3153 42.1514 53.7935C41.9648 53.915 41.7744 54.0365 41.5918 54.1581C41.1992 54.4255 40.7012 54.7902 40.3076 55.2603C39.9023 55.7465 39.6113 56.3542 39.3838 57.1687C39.3594 57.2538 39.3398 57.3389 39.3154 57.424C39.2305 56.9377 39.1406 56.4556 39.0352 55.9734C38.9258 55.4669 38.8047 54.9645 38.6631 54.4661L38.6592 54.4255C38.8779 53.9474 39.2061 53.5746 39.583 53.1694C39.9678 52.7561 40.3359 52.3389 40.624 51.812C41.1182 50.9126 41.4219 49.7618 41.5879 48.1937C41.6689 47.436 41.7061 46.6742 41.7383 45.957C41.7422 45.876 41.6973 45.8071 41.6328 45.7828C41.5635 45.7585 41.4541 45.7909 41.4307 45.8962C41.1631 46.9214 40.5713 47.7075 40 48.4692C39.8584 48.6597 39.7119 48.8541 39.5742 49.0446C39.2783 49.4619 38.9062 50.0251 38.6631 50.6857C38.4111 51.3663 38.2979 52.1646 38.3018 53.1937C38.3018 53.2343 38.3018 53.2748 38.3018 53.3153C38.124 52.8129 37.9258 52.3145 37.7021 51.8323C37.6982 51.7999 37.6826 51.7675 37.6621 51.7432L37.6582 51.7391C37.6494 51.7269 37.6455 51.7108 37.6377 51.6986C37.5439 51.3177 37.4434 50.949 37.334 50.5924C37.0254 49.5917 36.6572 48.8461 36.1826 48.2383C35.7207 47.6508 35.1543 47.1888 34.7119 46.8525C34.5059 46.6986 34.2949 46.5405 34.0879 46.3947C33.2412 45.7828 32.3701 45.1508 31.7744 44.2188C31.7139 44.1256 31.5918 44.1176 31.5312 44.1539C31.4707 44.1904 31.4463 44.2675 31.4746 44.3444C31.7256 45.0292 32.001 45.7626 32.3174 46.4797C32.9697 47.9628 33.6465 49.0082 34.4492 49.7699C34.915 50.2156 35.4375 50.5358 35.9727 50.8518C36.4951 51.1597 36.957 51.4474 37.3379 51.8607L37.3379 51.8688C37.3701 51.8971 37.3984 51.9296 37.4189 51.9701C37.4434 52.0227 37.4678 52.0795 37.4922 52.1322C38.0547 53.3883 38.4355 54.7213 38.7236 56.0665C38.6504 55.9449 38.5732 55.8275 38.4971 55.71C37.9336 54.8469 37.4023 54.2432 36.8193 53.8097C36.252 53.3883 35.6318 53.1208 35.1582 52.9344C34.9395 52.8494 34.7119 52.7683 34.4893 52.6873C33.5898 52.3632 32.6621 52.0309 31.8799 51.3177C31.7988 51.2448 31.6895 51.2812 31.6484 51.334C31.6084 51.3906 31.6084 51.4717 31.6572 51.5365C32.0781 52.116 32.5283 52.7318 33.0107 53.3234C34.0068 54.5431 34.8945 55.3372 35.8018 55.8193C36.333 56.103 36.8682 56.2489 37.415 56.3826C37.9492 56.5164 38.4277 56.65 38.873 56.9255L38.9102 56.9904C39.1045 58.056 39.2588 59.1257 39.416 60.1914C39.2588 60.0455 39.1006 59.9037 38.9463 59.774C38.2656 59.1987 37.6699 58.8462 37.0664 58.6719C36.4824 58.5017 35.8867 58.4937 35.4336 58.5059C35.2227 58.5099 35.0078 58.522 34.8018 58.5342C33.9502 58.5828 33.0791 58.6273 32.2441 58.2789C32.1592 58.2424 32.0703 58.3153 32.0459 58.3843C31.9932 58.4653 32.0137 58.5422 32.0742 58.5868ZM33.7842 53.7854C34.0801 54.0164 34.3965 54.2229 34.7441 54.4133C35.1455 54.6362 35.5586 54.8226 35.96 55.005L36.1875 55.1062C36.8594 55.4142 37.5645 55.7587 38.1973 56.2812C37.9209 56.1881 37.6455 56.1193 37.3945 56.0585L37.3096 56.0382C36.8398 55.9207 36.2842 55.7587 35.7373 55.4385C35.2754 55.1711 34.8018 54.8024 34.3271 54.3445C34.1494 54.1743 33.9707 53.9879 33.7842 53.7854ZM38.2129 55.8923C38.0186 55.7424 37.8076 55.6006 37.5811 55.4628C37.0908 55.167 36.5762 54.932 36.082 54.7051C35.6396 54.5026 35.1865 54.2959 34.7529 54.0487C34.2666 53.7692 33.8125 53.4247 33.4033 53.0276C33.1846 52.8129 32.9658 52.5819 32.7393 52.3267C32.9619 52.4442 33.2012 52.5576 33.4678 52.667C33.7598 52.7886 34.0596 52.8939 34.3516 52.9993C35.1738 53.295 36.0254 53.599 36.7705 54.2026C37.374 54.689 37.8643 55.3534 38.2129 55.8923ZM32.958 47.1281C33.2051 47.4644 33.4844 47.7844 33.8047 48.0964C34.1572 48.4409 34.5342 48.761 34.8984 49.069L34.915 49.0811C34.9795 49.1338 35.04 49.1864 35.1055 49.2432C35.7207 49.7659 36.3574 50.3372 36.8555 51.0503C36.5879 50.8599 36.3086 50.6978 36.0537 50.5479L35.9727 50.4993C35.5146 50.2278 34.9795 49.8833 34.5059 49.4011C34.1045 48.9919 33.7275 48.4855 33.375 47.8939C33.2295 47.6548 33.0918 47.3995 32.958 47.1281ZM36.9971 50.6978C36.835 50.479 36.6533 50.2643 36.4463 50.0494C36.0254 49.6038 35.5586 49.2107 35.1094 48.8298C34.708 48.4895 34.2988 48.141 33.918 47.7601C33.4961 47.3347 33.1279 46.8566 32.8281 46.3461C32.6621 46.0624 32.5039 45.7666 32.3457 45.4385C32.5488 45.6329 32.7715 45.8274 33.0264 46.026C33.2979 46.2367 33.5771 46.4432 33.8535 46.6418C34.627 47.201 35.4248 47.7804 36.0166 48.5989C36.5029 49.2675 36.8027 50.0697 36.9971 50.6978ZM38.8291 53.526C39.0723 52.744 39.4688 52.0674 39.8623 51.4393L39.9922 51.2286C40.2266 50.8558 40.4697 50.4708 40.6846 50.0657C40.8711 49.7173 41.0205 49.3688 41.1426 49.0162C41.0977 49.2877 41.0498 49.543 40.9971 49.7861C40.8506 50.4304 40.6562 50.9977 40.4209 51.4757C40.1377 52.0389 39.7646 52.4806 39.4365 52.8372L39.3799 52.902C39.2021 53.0884 39.0068 53.295 38.8291 53.526ZM38.5977 53.2019C38.5977 52.5616 38.6387 51.7351 38.8779 50.9977C39.1689 50.0859 39.7158 49.3647 40.2393 48.6637C40.4258 48.4166 40.6162 48.1613 40.7939 47.902C40.9561 47.667 41.0977 47.4401 41.2158 47.2213C41.167 47.5616 41.1104 47.8737 41.0449 48.1735C40.9199 48.7285 40.7295 49.2675 40.4775 49.7659C40.251 50.2115 39.9834 50.6329 39.7285 51.0422C39.4365 51.5042 39.1367 51.9781 38.8896 52.4968C38.7764 52.7358 38.6787 52.9709 38.5977 53.2019ZM39.8662 57.5293C40.2793 56.9783 40.8223 56.5406 41.3447 56.1395L41.5234 56.0017C41.8438 55.7587 42.1758 55.5033 42.4834 55.2318C42.7432 55.0009 42.9697 54.7618 43.1641 54.5146C43.0674 54.7051 42.9697 54.8794 42.8682 55.0496C42.5811 55.5277 42.2568 55.9329 41.9121 56.257C41.5029 56.642 41.0254 56.9093 40.6113 57.1241L40.5391 57.1605C40.3281 57.27 40.0928 57.3915 39.8662 57.5293ZM39.6836 57.2375C39.8213 56.7351 40.0488 56.103 40.4453 55.5803C40.9443 54.924 41.6533 54.4701 42.3418 54.0284C42.585 53.8745 42.8359 53.7124 43.0752 53.5463C43.29 53.3964 43.4766 53.2505 43.6465 53.1046C43.5293 53.3478 43.4072 53.5746 43.2783 53.7894C43.0303 54.2026 42.7188 54.5836 42.3496 54.924C42.0215 55.2278 41.6572 55.5033 41.3086 55.7748C40.9111 56.0787 40.502 56.3907 40.1377 56.7432C39.9678 56.9053 39.8174 57.0714 39.6836 57.2375ZM40.4492 62.1161C40.7822 61.6744 41.2109 61.3219 41.6289 60.9977L41.7744 60.8843C42.0381 60.6816 42.3096 60.4669 42.5605 60.24C42.7471 60.0698 42.9131 59.8956 43.0586 59.7133C42.9941 59.8389 42.9297 59.9604 42.8604 60.0739C42.626 60.475 42.3662 60.8154 42.083 61.0869C41.7461 61.411 41.3574 61.6339 41.0205 61.8081L40.96 61.8406C40.7979 61.9215 40.624 62.0148 40.4492 62.1161ZM40.2832 61.8608C40.3965 61.4475 40.5752 60.941 40.8877 60.5155C41.292 59.9645 41.876 59.5876 42.4355 59.219C42.6338 59.0892 42.8398 58.9556 43.0352 58.8137C43.1973 58.7003 43.3389 58.5868 43.4688 58.4734C43.3789 58.6638 43.2861 58.838 43.1885 59.0042C42.9863 59.3486 42.7354 59.6687 42.4355 59.9524C42.168 60.2076 41.8682 60.4386 41.5801 60.6614C41.2559 60.9126 40.9199 61.176 40.6201 61.4718C40.498 61.6096 40.3848 61.7311 40.2832 61.8608ZM34.4531 59.8186C34.7529 59.9159 35.0684 59.9807 35.4092 60.0212C35.8066 60.0698 36.207 60.0861 36.5918 60.0983L36.6006 60.0983C36.6689 60.1023 36.7422 60.1023 36.8115 60.1063C37.4551 60.1306 38.1357 60.1792 38.792 60.4102C38.5371 60.4304 38.2861 60.4709 38.0586 60.5115L37.9824 60.5237C37.5488 60.5966 37.0342 60.6573 36.4951 60.5763C36.0371 60.5074 35.5469 60.3494 35.0361 60.1104C34.8418 60.0293 34.6514 59.928 34.4531 59.8186ZM33.2129 58.8745C33.4277 58.8988 33.6582 58.907 33.9102 58.907C34.1895 58.907 34.4727 58.8907 34.749 58.8745C35.5264 58.83 36.3291 58.7854 37.1064 59.0529C37.7354 59.2676 38.3018 59.6849 38.7236 60.0415C38.5205 59.9807 38.3105 59.928 38.083 59.8916C37.5928 59.8065 37.0986 59.7903 36.6201 59.77C36.1953 59.7538 35.7578 59.7375 35.3281 59.6768C34.8457 59.6079 34.3799 59.4661 33.9385 59.2594C33.6992 59.146 33.46 59.0204 33.2129 58.8745Z" fill="#1B3764" fill-opacity="1.000000" fill-rule="nonzero"/>
	<path id="Vector" d="" fill="#1B3764" fill-opacity="1.000000" fill-rule="nonzero"/>
</svg>
