<svg width="140.890625" height="88.417603" viewBox="0 0 140.891 88.4176" fill="none" xmlns="http://www.w3.org/2000/svg" xmlns:xlink="http://www.w3.org/1999/xlink">
	<desc>
			Created with Pixso.
	</desc>
	<defs/>
	<path id="Vector" d="M0 49.9365L0 44.8936L1.16602 44.8936L1.16602 48.9105L3.61035 48.9105L3.61035 49.9318L0 49.9318L0 49.9365Z" fill="#1B3764" fill-opacity="1.000000" fill-rule="nonzero"/>
	<path id="Vector" d="M7.68555 49.9701C7.30859 49.9701 6.96484 49.8975 6.66016 49.7523C6.35449 49.6072 6.09375 49.4136 5.87109 49.1715C5.64844 48.9296 5.4834 48.6537 5.3623 48.3488C5.24609 48.0439 5.18359 47.7292 5.18359 47.4001C5.18359 47.0663 5.24609 46.7468 5.37207 46.4419C5.49805 46.1371 5.67285 45.866 5.89551 45.6289C6.11719 45.3917 6.38379 45.203 6.69336 45.0626C6.99805 44.9271 7.33691 44.8545 7.7002 44.8545C8.07324 44.8545 8.41211 44.9271 8.72168 45.0723C9.02637 45.2175 9.28809 45.411 9.51074 45.6578C9.72852 45.9047 9.89746 46.1805 10.0186 46.4855C10.1348 46.7904 10.1973 47.1001 10.1973 47.4196C10.1973 47.7535 10.1348 48.0729 10.0137 48.3778C9.89258 48.6827 9.71387 48.9537 9.48633 49.1909C9.25879 49.4281 8.99219 49.6217 8.6875 49.7572C8.3877 49.9023 8.05371 49.9701 7.68555 49.9701ZM6.37402 47.4147C6.37402 47.6083 6.40332 47.7971 6.46094 47.981C6.51953 48.1649 6.60156 48.3246 6.71289 48.465C6.82422 48.6053 6.96484 48.7214 7.12891 48.8037C7.29395 48.8909 7.48242 48.9296 7.69531 48.9296C7.91797 48.9296 8.11133 48.886 8.27637 48.799C8.44043 48.7118 8.58105 48.5956 8.6875 48.4456C8.79395 48.2955 8.87598 48.1359 8.93457 47.9519C8.9873 47.7681 9.0166 47.5841 9.0166 47.3954C9.0166 47.2018 8.9873 47.0131 8.92969 46.834C8.87109 46.6549 8.78906 46.4904 8.67285 46.35C8.55664 46.2096 8.42188 46.0935 8.25195 46.0112C8.08789 45.929 7.89844 45.8903 7.69043 45.8903C7.46777 45.8903 7.27441 45.9337 7.10938 46.016C6.94531 46.1031 6.80957 46.2145 6.69824 46.3596C6.58691 46.5049 6.50488 46.6694 6.45117 46.8485C6.40332 47.0372 6.37402 47.226 6.37402 47.4147Z" fill="#1B3764" fill-opacity="1.000000" fill-rule="nonzero"/>
	<path id="Vector" d="M15.2891 46.379C15.2744 46.3549 15.2266 46.316 15.1396 46.2677C15.0518 46.2194 14.9453 46.166 14.8203 46.108C14.6943 46.0499 14.5537 46.0015 14.3984 45.958C14.249 45.9144 14.0938 45.895 13.9443 45.895C13.7451 45.895 13.5908 45.929 13.4844 45.9967C13.373 46.0645 13.3193 46.1709 13.3193 46.3113C13.3193 46.4226 13.3633 46.5145 13.4453 46.5774C13.5273 46.6451 13.6484 46.6985 13.8037 46.7517C13.958 46.8 14.1523 46.8582 14.3799 46.9259C14.7041 47.0082 14.9795 47.1146 15.2168 47.2308C15.4541 47.3518 15.6328 47.5067 15.7588 47.6906C15.8848 47.8745 15.9473 48.1262 15.9473 48.4359C15.9473 48.7167 15.8945 48.9586 15.793 49.1522C15.6914 49.3458 15.5459 49.5055 15.3721 49.6265C15.1924 49.7474 14.9941 49.8346 14.7666 49.8878C14.5391 49.941 14.3066 49.9701 14.0645 49.9701C13.8184 49.9701 13.5664 49.9459 13.3096 49.8975C13.0537 49.8491 12.8066 49.7765 12.5693 49.6846C12.332 49.5927 12.1143 49.4813 11.916 49.3458L12.4287 48.3295C12.4482 48.3536 12.5117 48.3972 12.6133 48.4601C12.7148 48.5231 12.8457 48.5908 13 48.6586C13.1553 48.7263 13.3242 48.7892 13.5127 48.8376C13.7021 48.8909 13.8955 48.915 14.0889 48.915C14.2969 48.915 14.4521 48.8812 14.5537 48.8182C14.6553 48.7554 14.709 48.6633 14.709 48.5472C14.709 48.4214 14.6553 48.3197 14.5488 48.252C14.4424 48.1794 14.2969 48.1165 14.1182 48.0632C13.9346 48.0051 13.7266 47.9423 13.4893 47.8745C13.1787 47.7826 12.9277 47.676 12.7246 47.5551C12.5205 47.439 12.376 47.2937 12.2793 47.1244C12.1826 46.955 12.1338 46.7419 12.1338 46.4904C12.1338 46.1371 12.2158 45.8418 12.3857 45.595C12.5547 45.353 12.7773 45.1691 13.0635 45.0432C13.3486 44.9174 13.6582 44.8545 13.9922 44.8545C14.2295 44.8545 14.457 44.8835 14.6797 44.9417C14.9023 44.9996 15.1055 45.0674 15.2988 45.1545C15.4922 45.2417 15.6621 45.324 15.8125 45.411L15.2891 46.379Z" fill="#1B3764" fill-opacity="1.000000" fill-rule="nonzero"/>
	<path id="Vector" d="M125.146 46.0365L125.146 48.9209L123.98 48.9209L123.98 43.8779L124.905 43.8779L127.242 46.8447L127.242 43.8779L128.409 43.8779L128.409 48.9161L127.46 48.9161L125.146 46.0365Z" fill="#1B3764" fill-opacity="1.000000" fill-rule="nonzero"/>
	<path id="Vector" d="M131.569 43.8779L132.653 46.109L133.752 43.8779L135.029 43.8779L133.233 47.198L133.233 48.9161L132.077 48.9161L132.077 47.1884L130.311 43.8828L131.569 43.8828L131.569 43.8779Z" fill="#1B3764" fill-opacity="1.000000" fill-rule="nonzero"/>
	<path id="Vector" d="M136.297 46.3507C136.297 46.041 136.354 45.741 136.466 45.4457C136.577 45.1505 136.747 44.8795 136.965 44.6423C137.183 44.4003 137.449 44.2068 137.759 44.0615C138.073 43.9164 138.427 43.8438 138.823 43.8438C139.298 43.8438 139.709 43.9454 140.053 44.1487C140.396 44.3519 140.657 44.6182 140.832 44.9424L139.937 45.5667C139.859 45.3876 139.762 45.2473 139.637 45.1456C139.511 45.0441 139.375 44.9762 139.225 44.9375C139.075 44.8988 138.935 44.8795 138.794 44.8795C138.571 44.8795 138.378 44.923 138.214 45.0101C138.049 45.0973 137.908 45.2134 137.802 45.3634C137.69 45.5087 137.613 45.6732 137.56 45.8523C137.507 46.0314 137.482 46.2104 137.482 46.3894C137.482 46.5879 137.512 46.7815 137.574 46.9653C137.638 47.1493 137.725 47.3138 137.841 47.4542C137.957 47.5946 138.098 47.7107 138.262 47.793C138.427 47.8752 138.61 47.9188 138.809 47.9188C138.949 47.9188 139.095 47.8947 139.244 47.8462C139.39 47.7979 139.525 47.7252 139.65 47.6237C139.776 47.522 139.873 47.3865 139.937 47.2219L140.89 47.7833C140.788 48.0302 140.629 48.2383 140.401 48.4174C140.174 48.5916 139.917 48.7271 139.632 48.819C139.346 48.911 139.061 48.9594 138.784 48.9594C138.422 48.9594 138.088 48.8867 137.778 48.7367C137.468 48.5867 137.212 48.3883 136.989 48.1415C136.767 47.8947 136.597 47.6139 136.476 47.3042C136.359 46.9896 136.297 46.6702 136.297 46.3507Z" fill="#1B3764" fill-opacity="1.000000" fill-rule="nonzero"/>
	<path id="Vector" d="M66.4551 0L66.4551 0.425903C66.0293 0.44043 65.7051 0.493652 65.4824 0.585571C65.2598 0.677612 65.1143 0.846924 65.0469 1.09863C64.9736 1.34546 64.9404 1.73743 64.9404 2.26013L64.9404 12.8398C64.9404 13.3529 64.9785 13.7352 65.0566 13.9917C65.1338 14.2483 65.2783 14.4176 65.4922 14.5048C65.7051 14.5918 66.0244 14.6451 66.4502 14.6741L66.4502 15.1C66.0098 15.071 65.4482 15.0516 64.7656 15.0468C64.083 15.042 63.3867 15.0371 62.6748 15.0371C61.9053 15.0371 61.1846 15.042 60.5117 15.0468C59.834 15.0565 59.292 15.071 58.8809 15.1L58.8809 14.6741C59.3643 14.6451 59.7324 14.587 59.9795 14.5048C60.2266 14.4176 60.3955 14.2483 60.4824 13.9917C60.5693 13.7352 60.6084 13.3529 60.6084 12.8398L60.6084 1.42773L60.8213 1.38416L55.4688 15.0807L55.125 15.0807L49.1094 1.38416L49.1094 10.9185C49.1094 11.8719 49.1475 12.6027 49.2256 13.1061C49.3027 13.6094 49.4961 13.9724 49.8008 14.1949C50.1064 14.4176 50.5947 14.5774 51.2627 14.6741L51.2627 15.1C50.9775 15.071 50.6094 15.0516 50.1543 15.0468C49.6992 15.042 49.2734 15.0371 48.877 15.0371C48.5625 15.0371 48.2432 15.042 47.9189 15.0468C47.5898 15.0565 47.3232 15.071 47.1104 15.1L47.1104 14.6741C47.5508 14.5725 47.8799 14.4225 48.0928 14.2144C48.3057 14.0062 48.4463 13.6771 48.5186 13.2222C48.5918 12.7672 48.625 12.1429 48.625 11.3444L48.625 2.26013C48.625 1.73267 48.5918 1.34546 48.5186 1.09863C48.4463 0.851807 48.3008 0.677612 48.083 0.585571C47.8604 0.493652 47.541 0.44043 47.1104 0.425903L47.1104 0C47.3232 0.0145264 47.5947 0.0290527 47.9189 0.0435791C48.248 0.0581055 48.5674 0.0628662 48.877 0.0628662C49.6992 0.0628662 50.4883 0.0581055 51.2432 0.0435791C51.998 0.0290527 52.6807 0.0145264 53.291 0L57.5156 9.51489L56.877 10.2167L60.8213 0.0628662C61.1064 0.0628662 61.4121 0.0628662 61.7412 0.0628662C62.0703 0.0628662 62.3799 0.0628662 62.6797 0.0628662C63.3916 0.0628662 64.0879 0.0581055 64.7705 0.0435791C65.4531 0.0290527 66.0146 0.0145264 66.4551 0Z" fill="#1B3764" fill-opacity="1.000000" fill-rule="nonzero"/>
	<path id="Vector" d="M90.2373 0C90.1797 0.711426 90.1406 1.39868 90.1211 2.05688C90.1025 2.71997 90.0879 3.22815 90.0879 3.58142C90.0879 3.88147 90.0928 4.16699 90.1064 4.43323C90.1211 4.70422 90.1357 4.93176 90.1504 5.1156L89.6621 5.1156C89.4922 3.93469 89.207 3.00549 88.8096 2.33276C88.4131 1.65515 87.9434 1.18091 87.4111 0.905029C86.8789 0.62915 86.3174 0.48877 85.7363 0.48877L85.4609 0.48877C85.0928 0.48877 84.8125 0.522705 84.6279 0.585571C84.4443 0.64856 84.3184 0.774414 84.2559 0.958252C84.1924 1.14221 84.1592 1.43262 84.1592 1.83423L84.1592 13.2706C84.1592 13.653 84.1924 13.9434 84.2559 14.137C84.3184 14.3306 84.4443 14.4563 84.6279 14.5193C84.8125 14.5822 85.0879 14.6161 85.4609 14.6161L86.167 14.6161C86.6367 14.6161 87.1309 14.4612 87.6484 14.1562C88.166 13.8513 88.6455 13.3287 89.0859 12.5881C89.5264 11.8477 89.8604 10.8411 90.0879 9.55847L90.5762 9.55847C90.5332 10.0715 90.5137 10.7249 90.5137 11.5234C90.5137 11.8767 90.5186 12.3898 90.5332 13.048C90.5469 13.7111 90.5908 14.3934 90.6582 15.1049C89.9326 15.0758 89.1152 15.0565 88.2051 15.0516C87.2949 15.0468 86.4824 15.042 85.7705 15.042C85.2578 15.042 84.5703 15.042 83.7139 15.042C82.8525 15.042 81.9424 15.0468 80.9844 15.0516C80.0254 15.0613 79.1309 15.0758 78.3076 15.1049L78.3076 14.679C78.748 14.6499 79.0771 14.5918 79.29 14.5095C79.5029 14.4272 79.6436 14.2531 79.7158 13.9966C79.7891 13.7401 79.8223 13.3577 79.8223 12.8447L79.8223 2.26013C79.8223 1.73267 79.7891 1.34546 79.7158 1.09863C79.6436 0.851807 79.498 0.677612 79.2803 0.585571C79.0576 0.493652 78.7383 0.44043 78.3125 0.425903L78.3125 0C79.1348 0.0145264 80.0303 0.0290527 80.9893 0.0435791C81.9473 0.0581055 82.8574 0.0628662 83.7188 0.0628662C84.5801 0.0628662 85.2676 0.0628662 85.7754 0.0628662C86.4287 0.0628662 87.1738 0.0581055 88.0068 0.0532227C88.8438 0.0483398 89.584 0.0290527 90.2373 0ZM87.1445 7.29346L87.1445 7.71936L83.5205 7.71936L83.5205 7.29346L87.1445 7.29346ZM87.7646 4.48157C87.7061 5.28979 87.6826 5.9093 87.6924 6.33521C87.6963 6.76111 87.7012 7.1532 87.7012 7.50647C87.7012 7.85974 87.7061 8.25183 87.7207 8.67773C87.7354 9.10352 87.7695 9.72302 87.8271 10.5312L87.3389 10.5312C87.252 10.0038 87.0771 9.52942 86.8154 9.10352C86.5547 8.67773 86.2158 8.33887 85.8047 8.09204C85.3926 7.84521 84.9141 7.71936 84.377 7.71936L84.377 7.29346C84.9189 7.29346 85.3877 7.14343 85.7852 6.84338C86.1816 6.54333 86.5107 6.18042 86.7676 5.74475C87.0244 5.3092 87.1934 4.88818 87.2803 4.47681L87.7646 4.47681L87.7646 4.48157Z" fill="#1B3764" fill-opacity="1.000000" fill-rule="nonzero"/>
	<path id="Vector" d="M44.4922 36.2063C45.4893 36.2063 46.3066 36.3418 46.9453 36.6128C47.584 36.8839 48.1455 37.2081 48.6299 37.5953C48.7852 37.7212 48.9297 37.7889 49.0557 37.7889C49.3271 37.7889 49.501 37.363 49.5879 36.5112L50.0771 36.5112C50.0479 37.0823 50.0283 37.7744 50.0137 38.5923C49.999 39.4102 49.9951 40.4943 49.9951 41.8446L49.5059 41.8446C49.4043 40.8186 49.2295 39.9619 48.9834 39.2747C48.7363 38.5874 48.252 37.9969 47.541 37.5131C47.2412 37.3146 46.8926 37.1598 46.4951 37.0436C46.0986 36.9323 45.7119 36.8741 45.3438 36.8741C44.5156 36.8741 43.834 37.0968 43.2969 37.5469C42.7539 37.9969 42.3232 38.5778 42.0039 39.2941C41.6846 40.0104 41.457 40.7944 41.3223 41.6414C41.1865 42.4883 41.1182 43.311 41.1182 44.1047C41.1182 46.665 41.4336 48.5332 42.0576 49.714C42.6816 50.8949 43.5146 51.4854 44.5547 51.4854C44.7822 51.4854 44.9805 51.4661 45.1504 51.4225C45.3193 51.3789 45.4697 51.316 45.6006 51.2289C45.7549 51.1176 45.8711 50.9724 45.9434 50.803C46.0166 50.6335 46.0498 50.4207 46.0498 50.1642L46.0498 48.0298C46.0498 47.3329 45.9971 46.8151 45.8906 46.4714C45.7842 46.1278 45.5762 45.8955 45.2617 45.7697C44.9463 45.6438 44.4922 45.5712 43.8965 45.5566L43.8965 45.1309C44.2256 45.1453 44.6221 45.155 45.0918 45.1647C45.5615 45.1743 46.0498 45.1792 46.5635 45.1841C47.0762 45.1937 47.5459 45.1937 47.9717 45.1937C48.6543 45.1937 49.2832 45.1888 49.8594 45.1743C50.4346 45.1598 50.8994 45.1453 51.2578 45.1309L51.2578 45.5566C50.8994 45.5857 50.667 45.697 50.5508 45.9003C50.4346 46.0988 50.3818 46.5973 50.3818 47.3958L50.3818 51.621L49.9561 51.621C49.9414 51.3789 49.8838 51.1176 49.7861 50.832C49.6846 50.5465 49.5254 50.4061 49.2979 50.4061C49.1816 50.4061 49.0215 50.4352 48.8184 50.4933C48.6104 50.5513 48.2861 50.6869 47.8457 50.8998C47.2891 51.1708 46.7031 51.408 46.084 51.6161C45.4648 51.8242 44.8496 51.9258 44.2402 51.9258C41.5635 51.9258 39.5605 51.2483 38.2246 49.8883C36.8887 48.5283 36.2207 46.636 36.2207 44.2015C36.2207 42.6093 36.5742 41.2155 37.2754 40.02C37.9824 38.8246 38.9551 37.8954 40.1992 37.2275C41.4375 36.5403 42.8701 36.2063 44.4922 36.2063Z" fill="#1B3764" fill-opacity="1.000000" fill-rule="nonzero"/>
	<path id="Vector" d="M70.4766 36.5059L75.6406 49.8152C75.8389 50.2991 76.0518 50.6427 76.2793 50.8508C76.5068 51.059 76.7148 51.1654 76.8984 51.1799L76.8984 51.6058C76.3857 51.5768 75.79 51.5575 75.1074 51.5526C74.4258 51.5477 73.7285 51.543 73.0166 51.543C72.291 51.543 71.6084 51.5477 70.9697 51.5526C70.3311 51.5623 69.8184 51.5768 69.4355 51.6058L69.4355 51.1799C70.1611 51.1509 70.6211 51.025 70.8105 50.8073C71.0039 50.5847 70.9551 50.1152 70.6699 49.3893L67.2578 39.9373L67.6836 39.1919L64.7412 46.8484C64.2715 48.0729 64.0391 48.9875 64.0488 49.6022C64.0537 50.212 64.2373 50.6234 64.5908 50.8267C64.9443 51.0348 65.4092 51.1509 65.9756 51.1799L65.9756 51.6058C65.4473 51.5768 64.9785 51.5575 64.5566 51.5526C64.1357 51.5477 63.6807 51.543 63.1826 51.543C62.9111 51.543 62.626 51.5477 62.3164 51.5526C62.0117 51.5623 61.75 51.5768 61.5371 51.6058L61.5371 51.1799C61.8662 51.1218 62.1855 50.9138 62.5098 50.5508C62.8291 50.1877 63.1582 49.5684 63.502 48.6826L68.2402 36.501C68.584 36.53 68.9561 36.5446 69.3584 36.5446C69.7598 36.5493 70.1328 36.5349 70.4766 36.5059ZM71.2217 45.4642L71.2217 45.8901L64.8623 45.8901L65.0752 45.4642L71.2217 45.4642Z" fill="#1B3764" fill-opacity="1.000000" fill-rule="nonzero"/>
	<path id="Vector" d="M102.09 36.5059L102.09 36.9318C101.664 37.0189 101.34 37.1641 101.117 37.3818C100.895 37.5948 100.75 37.924 100.682 38.374C100.609 38.8241 100.575 39.4532 100.575 40.2615L100.575 51.6107C100.362 51.5817 100.13 51.5671 99.8828 51.5671C99.6367 51.5671 99.3652 51.5817 99.085 51.6107L89.6328 41.2827L89.6328 47.4292C89.6328 48.3826 89.6709 49.1134 89.749 49.6167C89.8262 50.1201 90.0195 50.483 90.3242 50.7057C90.6299 50.9283 91.1182 51.088 91.7861 51.1848L91.7861 51.6107C91.501 51.5817 91.1328 51.5624 90.6777 51.5575C90.2227 51.5526 89.7969 51.5479 89.4004 51.5479C89.0859 51.5479 88.7666 51.5526 88.4424 51.5575C88.1133 51.5671 87.8467 51.5817 87.6338 51.6107L87.6338 51.1848C88.0742 51.0833 88.4033 50.9331 88.6162 50.7251C88.8291 50.517 88.9697 50.1879 89.042 49.7329C89.1152 49.278 89.1484 48.6537 89.1484 47.8551L89.1484 38.766C89.1484 38.2385 89.1152 37.8513 89.042 37.6045C88.9697 37.3577 88.8242 37.1835 88.6064 37.0914C88.3838 36.9995 88.0645 36.9463 87.6338 36.9318L87.6338 36.5059C87.8467 36.5204 88.1182 36.5349 88.4424 36.5494C88.7715 36.564 89.0908 36.5687 89.4004 36.5687C89.7539 36.5687 90.1064 36.564 90.4453 36.5494C90.7891 36.5349 91.0938 36.5204 91.3652 36.5059L100.091 45.7207L100.091 40.6874C100.091 39.734 100.053 39.0081 99.9756 38.4999C99.8975 37.9965 99.709 37.6287 99.4092 37.4012C99.1084 37.1737 98.6201 37.0189 97.9375 36.9318L97.9375 36.5059C98.2236 36.5204 98.5908 36.5349 99.0459 36.5494C99.501 36.564 99.9268 36.5687 100.323 36.5687C100.652 36.5687 100.972 36.564 101.292 36.5494C101.611 36.5349 101.877 36.5204 102.09 36.5059Z" fill="#1B3764" fill-opacity="1.000000" fill-rule="nonzero"/>
	<path id="Vector" d="M47.3086 84.749C47.9766 84.749 48.4941 84.9039 48.8672 85.2087C49.2344 85.5137 49.4238 85.9735 49.4238 86.5833C49.4238 87.1931 49.2393 87.6528 48.8672 87.9578C48.499 88.2627 47.9766 88.4176 47.3086 88.4176C46.626 88.4176 46.1035 88.2627 45.7402 87.9578C45.377 87.6528 45.1982 87.1931 45.1982 86.5833C45.1982 85.9735 45.377 85.5137 45.7402 85.2087C46.1035 84.899 46.626 84.749 47.3086 84.749Z" fill="#1B3764" fill-opacity="1.000000" fill-rule="nonzero"/>
	<path id="Vector" d="M68.9375 73.0127L68.9375 73.4386C68.5117 73.4531 68.1875 73.5063 67.9648 73.5983C67.7422 73.6903 67.5967 73.8596 67.5293 74.1113C67.4561 74.3582 67.4229 74.7501 67.4229 75.2728L67.4229 85.8525C67.4229 86.3656 67.4609 86.7479 67.5391 87.0044C67.6162 87.261 67.7617 87.4303 67.9746 87.5175C68.1875 87.6045 68.5068 87.6578 68.9326 87.6868L68.9326 88.1127C68.5215 88.0837 67.9893 88.0643 67.3447 88.0594C66.6963 88.0547 66.0381 88.0498 65.3701 88.0498C64.6006 88.0498 63.8799 88.0547 63.207 88.0594C62.5293 88.0692 61.9873 88.0837 61.5762 88.1127L61.5762 87.6868C62.0166 87.6578 62.3457 87.5997 62.5586 87.5175C62.7715 87.4352 62.9121 87.261 62.9844 87.0044C63.0576 86.7479 63.0908 86.3656 63.0908 85.8525L63.0908 75.2728C63.0908 74.7454 63.0576 74.3582 62.9844 74.1113C62.9121 73.8645 62.7666 73.6903 62.5488 73.5983C62.3262 73.5063 62.0068 73.4531 61.5811 73.4386L61.5811 73.0127C61.9922 73.0272 62.5391 73.0417 63.2119 73.0563C63.8896 73.0708 64.6104 73.0756 65.375 73.0756C66.043 73.0756 66.7012 73.0708 67.3496 73.0563C67.998 73.0417 68.5264 73.0272 68.9375 73.0127ZM76.7441 73.0127L76.7441 73.4192C76.2598 73.545 75.7227 73.7822 75.1318 74.121C74.542 74.4646 73.9131 75.0115 73.2451 75.7617L69.3193 80.2191L71.0479 77.9589L76.1055 86.3849C76.2891 86.6851 76.4727 86.9318 76.6621 87.1302C76.8457 87.3287 77.0977 87.5126 77.4072 87.6868L77.4072 88.1127C76.8115 88.0837 76.1729 88.0643 75.5 88.0594C74.8223 88.0547 74.1787 88.0498 73.5693 88.0498C73.2402 88.0498 72.8379 88.0547 72.3545 88.0594C71.8701 88.0692 71.2607 88.0837 70.5205 88.1127L70.5205 87.6868C71.1875 87.6578 71.5752 87.5803 71.6816 87.4545C71.7881 87.3287 71.7344 87.0867 71.5215 86.7285L68.4297 81.5016C68.2891 81.2451 68.1582 81.0515 68.0469 80.9257C67.9307 80.7998 67.8242 80.703 67.7178 80.6498C67.6113 80.5918 67.4707 80.5579 67.3018 80.5433L67.3018 80.0933C67.9258 80.0642 68.5166 79.8561 69.0732 79.4641C69.6299 79.072 70.2979 78.4381 71.0762 77.5573L71.8027 76.7441C72.3975 76.0763 72.7168 75.4955 72.751 75.0067C72.7852 74.5178 72.6348 74.1307 72.3008 73.8549C71.9668 73.579 71.5312 73.4337 70.9893 73.4192L70.9893 73.0127C71.585 73.0272 72.1367 73.0417 72.6445 73.0563C73.1484 73.0708 73.8018 73.0756 74.5947 73.0756C75.4609 73.0804 76.1777 73.0563 76.7441 73.0127Z" fill="#1B3764" fill-opacity="1.000000" fill-rule="nonzero"/>
	<path id="Vector" d="M90.7412 84.749C91.4092 84.749 91.9268 84.9039 92.2998 85.2087C92.667 85.5137 92.8564 85.9735 92.8564 86.5833C92.8564 87.1931 92.6719 87.6528 92.2998 87.9578C91.9316 88.2627 91.4092 88.4176 90.7412 88.4176C90.0586 88.4176 89.5361 88.2627 89.1729 87.9578C88.8096 87.6528 88.6309 87.1931 88.6309 86.5833C88.6309 85.9735 88.8096 85.5137 89.1729 85.2087C89.5361 84.899 90.0586 84.749 90.7412 84.749Z" fill="#1B3764" fill-opacity="1.000000" fill-rule="nonzero"/>
	<path id="Vector" d="M10.8613 34.9336L36.7637 11.5642L37.7363 12.6422L11.834 36.0116L10.8613 34.9336Z" fill="#1B3764" fill-opacity="1.000000" fill-rule="evenodd"/>
	<path id="Vector" d="M100.766 12.6396L101.738 11.5614L127.644 34.9274L126.671 36.0056L100.766 12.6396Z" fill="#1B3764" fill-opacity="1.000000" fill-rule="evenodd"/>
	<path id="Vector" d="M11.3691 58.8652L12.3418 57.787L38.2471 81.153L37.2744 82.2312L11.3691 58.8652Z" fill="#1B3764" fill-opacity="1.000000" fill-rule="evenodd"/>
	<path id="Vector" d="M101.275 81.1523L127.178 57.783L128.15 58.861L102.248 82.2303L101.275 81.1523Z" fill="#1B3764" fill-opacity="1.000000" fill-rule="evenodd"/>
</svg>
