<svg width="95.219727" height="88.984741" viewBox="0 0 95.2197 88.9847" fill="none" xmlns="http://www.w3.org/2000/svg" xmlns:xlink="http://www.w3.org/1999/xlink">
	<desc>
			Created with Pixso.
	</desc>
	<defs/>
	<path id="Vector" d="M18.0127 11.1731L20.1543 11.1731L23.1104 19.7679L21.0781 19.7679L20.4951 17.845L17.665 17.845L17.0811 19.7679L15.0488 19.7679L18.0127 11.1731ZM20.0791 16.4762L19.0801 13.1718L18.0801 16.4762L20.0791 16.4762Z" fill="#1B3764" fill-opacity="1.000000" fill-rule="nonzero"/>
	<path id="Vector" d="M33.1582 19.7679L33.1582 14.6455L31.3066 18.374L30.2148 18.374L28.3633 14.6455L28.3633 19.7679L26.377 19.7679L26.377 11.1731L28.5312 11.1731L30.7559 15.6658L32.9941 11.1731L35.1357 11.1731L35.1357 19.7679L33.1582 19.7679Z" fill="#1B3764" fill-opacity="1.000000" fill-rule="nonzero"/>
	<path id="Vector" d="M41.3789 11.1731L43.5205 11.1731L46.4766 19.7679L44.4443 19.7679L43.8613 17.845L41.0312 17.845L40.4473 19.7679L38.415 19.7679L41.3789 11.1731ZM43.4453 16.4762L42.4463 13.1718L41.4463 16.4762L43.4453 16.4762Z" fill="#1B3764" fill-opacity="1.000000" fill-rule="nonzero"/>
	<path id="Vector" d="M49.2598 18.2816L53.6436 12.9198L49.4316 12.9198L49.4316 11.1772L56.0283 11.1772L56.0283 12.6678L51.8506 18.0297L56.0742 18.0297L56.0742 19.7721L49.2598 19.7721L49.2598 18.2816Z" fill="#1B3764" fill-opacity="1.000000" fill-rule="nonzero"/>
	<path id="Vector" d="M65.7734 18.0255L65.7734 19.7679L59.7314 19.7679L59.7314 11.1731L65.6641 11.1731L65.6641 12.9156L61.7178 12.9156L61.7178 14.5867L65.1055 14.5867L65.1055 16.1991L61.7178 16.1991L61.7178 18.0255L65.7734 18.0255Z" fill="#1B3764" fill-opacity="1.000000" fill-rule="nonzero"/>
	<path id="Vector" d="M71.3926 14.8555L71.3926 19.7722L69.4062 19.7722L69.4062 11.1731L70.9805 11.1731L74.9658 16.2327L74.9658 11.1731L76.9512 11.1731L76.9512 19.7679L75.3311 19.7679L71.3926 14.8555Z" fill="#1B3764" fill-opacity="1.000000" fill-rule="nonzero"/>
	<path id="Vector" d="M24.3154 29.9165C24.3154 29.3916 24.4121 28.8794 24.6055 28.3713C24.7979 27.8674 25.0801 27.4098 25.4531 26.9983C25.8232 26.5868 26.2764 26.2593 26.8096 26.0116C27.3428 25.7638 27.9473 25.6421 28.623 25.6421C29.4297 25.6421 30.1309 25.8142 30.7227 26.1627C31.3145 26.5112 31.7598 26.9604 32.0498 27.5189L30.5254 28.5854C30.3955 28.2789 30.2227 28.0396 30.0088 27.8716C29.7949 27.7037 29.5596 27.5819 29.3076 27.5148C29.0518 27.4475 28.8086 27.4098 28.5771 27.4098C28.1992 27.4098 27.8672 27.4854 27.5859 27.6323C27.3047 27.7834 27.0703 27.9808 26.8848 28.2328C26.7002 28.4846 26.5615 28.7618 26.4736 29.0682C26.3857 29.3748 26.3389 29.6813 26.3389 29.9878C26.3389 30.3279 26.3896 30.6554 26.4941 30.9703C26.5996 31.2853 26.751 31.5624 26.9482 31.8059C27.1455 32.0494 27.3848 32.2384 27.6699 32.3811C27.9512 32.5239 28.2627 32.5911 28.6025 32.5911C28.8457 32.5911 29.0898 32.5491 29.3418 32.4694C29.5938 32.3895 29.8242 32.2594 30.0381 32.0872C30.2529 31.915 30.416 31.6841 30.5293 31.4028L32.1504 32.3601C31.9824 32.78 31.7012 33.137 31.3145 33.4392C30.9287 33.7373 30.4873 33.9641 30.001 34.1237C29.5137 34.2789 29.0303 34.3588 28.5518 34.3588C27.9307 34.3588 27.3594 34.2328 26.8389 33.9767C26.3184 33.7206 25.8691 33.3846 25.4951 32.9606C25.1221 32.5365 24.8281 32.062 24.6221 31.533C24.4199 31.0039 24.3154 30.4623 24.3154 29.9165Z" fill="#1B3764" fill-opacity="1.000000" fill-rule="nonzero"/>
	<path id="Vector" d="M39.208 34.3583C38.5615 34.3583 37.9775 34.2365 37.457 33.9888C36.9365 33.741 36.4873 33.4135 36.1133 32.9978C35.7402 32.5822 35.4502 32.1161 35.249 31.5955C35.0469 31.0748 34.9463 30.5374 34.9463 29.9789C34.9463 29.4078 35.0508 28.8621 35.2656 28.3456C35.4795 27.8291 35.7773 27.3673 36.1602 26.96C36.542 26.5527 36.9951 26.2335 37.5205 25.9984C38.0449 25.7633 38.6162 25.6458 39.2373 25.6458C39.876 25.6458 40.4551 25.7675 40.9756 26.0153C41.4961 26.2629 41.9453 26.5947 42.3193 27.0145C42.6934 27.4344 42.9824 27.9047 43.1846 28.4253C43.3857 28.946 43.4863 29.4751 43.4863 30.0167C43.4863 30.5919 43.3818 31.1335 43.1719 31.65C42.9619 32.1665 42.6641 32.6283 42.2773 33.0356C41.8906 33.4429 41.4375 33.7662 40.917 34.0055C40.4004 34.2406 39.8291 34.3583 39.208 34.3583ZM36.9658 29.9999C36.9658 30.3315 37.0166 30.6508 37.1133 30.9614C37.209 31.2721 37.3525 31.5492 37.541 31.7886C37.7305 32.0321 37.9648 32.2252 38.251 32.368C38.5322 32.515 38.8555 32.5863 39.2207 32.5863C39.5986 32.5863 39.9307 32.5107 40.2119 32.3638C40.4932 32.2168 40.7275 32.0153 40.9131 31.7634C41.0977 31.5115 41.2363 31.2344 41.3281 30.9236C41.4209 30.6129 41.4668 30.298 41.4668 29.9747C41.4668 29.6429 41.4209 29.3239 41.3203 29.0173C41.2236 28.7108 41.0762 28.4337 40.8838 28.186C40.6904 27.9382 40.4512 27.7494 40.1699 27.6108C39.8887 27.4722 39.5693 27.405 39.2119 27.405C38.834 27.405 38.5029 27.4764 38.2256 27.6234C37.9482 27.7704 37.7129 27.9635 37.5244 28.2112C37.335 28.459 37.1924 28.7361 37.1006 29.0468C37.0117 29.3617 36.9658 29.6766 36.9658 29.9999Z" fill="#1B3764" fill-opacity="1.000000" fill-rule="nonzero"/>
	<path id="Vector" d="M47.0645 34.2953L47.0645 25.7004L50.9395 25.7004C51.3428 25.7004 51.7168 25.7844 52.0605 25.9481C52.4053 26.1119 52.6992 26.3345 52.9512 26.6157C53.2031 26.8929 53.3965 27.2078 53.5391 27.5563C53.6816 27.9048 53.749 28.2533 53.749 28.6102C53.749 28.967 53.6943 29.303 53.5811 29.6221C53.4678 29.9412 53.3076 30.2267 53.0977 30.4829C52.8877 30.739 52.6367 30.9447 52.3467 31.1042L54.2363 34.2996L52.0439 34.2996L50.3984 31.5283L49.0547 31.5283L49.0547 34.2996L47.0645 34.2996L47.0645 34.2953ZM49.0508 29.7942L50.8682 29.7942C51.0283 29.7942 51.1748 29.7439 51.2969 29.6431C51.4229 29.5424 51.5234 29.4038 51.6035 29.2274C51.6836 29.051 51.7256 28.8453 51.7256 28.6102C51.7256 28.3751 51.6787 28.1735 51.5869 27.9972C51.4941 27.8251 51.377 27.6865 51.2422 27.5898C51.1035 27.4933 50.9609 27.443 50.8057 27.443L49.0508 27.443L49.0508 29.7942Z" fill="#1B3764" fill-opacity="1.000000" fill-rule="nonzero"/>
	<path id="Vector" d="M57.5986 34.2953L57.5986 25.7004L61.2686 25.7004C61.6797 25.7004 62.0576 25.7844 62.4023 25.9481C62.7461 26.1119 63.04 26.3345 63.292 26.6157C63.5439 26.8929 63.7373 27.2078 63.8721 27.5563C64.0098 27.9048 64.0771 28.2574 64.0771 28.6228C64.0771 29.114 63.9639 29.5844 63.7334 30.0251C63.502 30.4702 63.1826 30.8313 62.7754 31.1085C62.3682 31.3856 61.8857 31.5242 61.3271 31.5242L59.585 31.5242L59.585 34.2953L57.5986 34.2953ZM59.5801 29.7942L61.2012 29.7942C61.3525 29.7942 61.4951 29.748 61.625 29.6599C61.7559 29.5717 61.8604 29.4374 61.9404 29.261C62.0195 29.0847 62.0615 28.8663 62.0615 28.606C62.0615 28.3414 62.0156 28.1189 61.9238 27.9468C61.8311 27.7747 61.7139 27.6445 61.5703 27.5647C61.4277 27.4849 61.2812 27.443 61.1299 27.443L59.5801 27.443L59.5801 29.7942Z" fill="#1B3764" fill-opacity="1.000000" fill-rule="nonzero"/>
	<path id="Vector" d="M66.5674 34.2957L66.5674 32.3223L68.1543 32.3223L68.1543 34.2957L66.5674 34.2957Z" fill="#1B3764" fill-opacity="1.000000" fill-rule="nonzero"/>
	<path id="Vector" d="M18.9111 70.0186L18.9111 70.2032C18.7266 70.2411 18.583 70.3041 18.4912 70.3965C18.3945 70.4888 18.3311 70.6316 18.3018 70.8247C18.2725 71.0178 18.2559 71.2908 18.2559 71.6434L18.2559 76.5686C18.1641 76.556 18.0625 76.5519 17.9541 76.5519C17.8447 76.5519 17.7314 76.556 17.6055 76.5686L13.5068 72.0885L13.5068 74.7548C13.5068 75.1663 13.5244 75.4854 13.5576 75.7037C13.5908 75.922 13.6748 76.0815 13.8057 76.174C13.9395 76.2705 14.1494 76.3378 14.4395 76.3839L14.4395 76.5686C14.3174 76.556 14.1533 76.5476 13.9561 76.5435C13.7588 76.5393 13.5742 76.5393 13.4023 76.5393C13.2676 76.5393 13.1289 76.5393 12.9863 76.5435C12.8438 76.5476 12.7266 76.556 12.6338 76.5686L12.6338 76.3839C12.8271 76.3419 12.9658 76.2748 13.0576 76.1865C13.1504 76.0984 13.2129 75.9557 13.2422 75.7583C13.2725 75.5609 13.2891 75.2881 13.2891 74.9437L13.2891 71.0011C13.2891 70.7743 13.2725 70.6063 13.2422 70.4972C13.2129 70.3881 13.1504 70.3167 13.0537 70.2747C12.957 70.2327 12.8184 70.2117 12.6338 70.2032L12.6338 70.0186C12.7266 70.0227 12.8438 70.0311 12.9863 70.0354C13.1289 70.0396 13.2676 70.0437 13.4023 70.0437C13.5576 70.0437 13.709 70.0396 13.8555 70.0354C14.0029 70.0311 14.1367 70.0227 14.2549 70.0186L18.042 74.0157L18.042 71.8324C18.042 71.4209 18.0254 71.1018 17.9912 70.8835C17.958 70.6652 17.874 70.5056 17.748 70.4091C17.6182 70.3125 17.4033 70.2411 17.1094 70.2075L17.1094 70.0227C17.2314 70.027 17.3955 70.0354 17.5928 70.0396C17.79 70.0437 17.9746 70.048 18.1465 70.048C18.2891 70.048 18.4277 70.0437 18.5664 70.0396C18.7012 70.0311 18.8184 70.0227 18.9111 70.0186Z" fill="#1B3764" fill-opacity="1.000000" fill-rule="nonzero"/>
	<path id="Vector" d="M26.8809 70.0186C26.8555 70.3251 26.8389 70.6232 26.8301 70.9128C26.8223 71.1984 26.8184 71.4209 26.8184 71.5763C26.8184 71.7064 26.8223 71.8282 26.8262 71.9458C26.8301 72.0634 26.8389 72.1599 26.8428 72.2439L26.6289 72.2439C26.5537 71.7317 26.4316 71.3286 26.2598 71.0347C26.0869 70.7407 25.8857 70.535 25.6553 70.4132C25.4238 70.2915 25.1807 70.2327 24.9287 70.2327L24.8066 70.2327C24.6475 70.2327 24.5254 70.2452 24.4453 70.2747C24.3662 70.3041 24.3115 70.3545 24.2822 70.4385C24.2529 70.5182 24.2402 70.6442 24.2402 70.8163L24.2402 75.7751C24.2402 75.943 24.2529 76.0648 24.2822 76.1488C24.3115 76.2328 24.3613 76.2874 24.4453 76.3168C24.5254 76.3461 24.6475 76.3588 24.8066 76.3588L25.1133 76.3588C25.3145 76.3588 25.5332 76.2915 25.7559 76.1614C25.9824 76.027 26.1885 75.8003 26.3809 75.4812C26.5742 75.1621 26.7168 74.7212 26.8184 74.167L27.0322 74.167C27.0156 74.3895 27.0029 74.675 27.0029 75.0193C27.0029 75.1747 27.0068 75.3929 27.0107 75.6827C27.0156 75.9683 27.0361 76.2664 27.0654 76.577C26.751 76.5645 26.3984 76.556 26.0029 76.5519C25.6084 76.5476 25.2559 76.5476 24.9492 76.5476C24.7266 76.5476 24.4287 76.5476 24.0547 76.5476C23.6816 76.5476 23.2871 76.5476 22.8711 76.5519C22.4551 76.556 22.0693 76.5645 21.708 76.577L21.708 76.3923C21.9014 76.3798 22.04 76.3545 22.1318 76.3168C22.2246 76.2789 22.2871 76.2075 22.3164 76.0942C22.3467 75.985 22.3633 75.817 22.3633 75.5945L22.3633 71.0011C22.3633 70.7743 22.3467 70.6063 22.3164 70.4972C22.2871 70.3881 22.2246 70.3167 22.1279 70.2747C22.0312 70.2327 21.8926 70.2117 21.708 70.2032L21.708 70.0186C22.0645 70.0227 22.4512 70.0311 22.8711 70.0354C23.2871 70.0396 23.6816 70.0437 24.0547 70.0437C24.4287 70.0437 24.7266 70.0437 24.9492 70.0437C25.2354 70.0437 25.5537 70.0437 25.915 70.0396C26.2725 70.0396 26.5957 70.0311 26.8809 70.0186ZM25.5371 73.1844L25.5371 73.3691L23.9629 73.3691L23.9629 73.1844L25.5371 73.1844ZM25.8057 71.9626C25.7812 72.3153 25.7725 72.584 25.7725 72.7688C25.7764 72.9535 25.7764 73.1215 25.7764 73.2769C25.7764 73.4321 25.7812 73.6001 25.7852 73.7849C25.7891 73.9696 25.8057 74.2383 25.8311 74.5911L25.6172 74.5911C25.5791 74.3643 25.5039 74.1543 25.3906 73.9696C25.2773 73.7849 25.1299 73.6379 24.9492 73.5287C24.7686 73.4196 24.5635 73.365 24.3281 73.365L24.3281 73.1802C24.5635 73.1802 24.7646 73.1173 24.9365 72.9871C25.1094 72.8569 25.252 72.6974 25.3613 72.5084C25.4697 72.3195 25.5459 72.1389 25.583 71.9584L25.8057 71.9584L25.8057 71.9626Z" fill="#1B3764" fill-opacity="1.000000" fill-rule="nonzero"/>
	<path id="Vector" d="M32.377 70.0186L32.377 70.2032C32.2715 70.2201 32.2002 70.2747 32.167 70.3671C32.1328 70.4552 32.125 70.5602 32.1377 70.6736C32.1543 70.787 32.1748 70.8918 32.209 70.9843L33.6064 74.9186L33.3467 75.3174L34.4551 72.311L34.585 72.5798L33.1699 76.577C33.0947 76.5729 33.0186 76.5645 32.9346 76.5645C32.8506 76.5645 32.7666 76.5603 32.6787 76.5603C32.5986 76.5603 32.5146 76.5603 32.4355 76.5645C32.3516 76.5686 32.2715 76.5729 32.2002 76.577L30.0547 70.8037C29.9746 70.5896 29.8867 70.4385 29.7861 70.3502C29.6895 70.2621 29.5928 70.2159 29.5088 70.2117L29.5088 70.027C29.7314 70.0311 29.9912 70.0396 30.29 70.0437C30.5879 70.048 30.873 70.0521 31.1465 70.0521C31.4189 70.0521 31.6582 70.048 31.8682 70.0437C32.0781 70.0311 32.2461 70.0227 32.377 70.0186ZM39.0693 70.0186L39.0693 70.2032C38.9268 70.2705 38.7793 70.4048 38.624 70.6022C38.4688 70.7996 38.3301 71.0977 38.209 71.5007L36.6553 76.5729C36.5791 76.5686 36.5039 76.5603 36.4199 76.5603C36.3359 76.5603 36.252 76.556 36.1641 76.556C36.084 76.556 36 76.556 35.9199 76.5603C35.8359 76.5645 35.7568 76.5686 35.6855 76.5729L33.7412 70.64C33.6904 70.4805 33.6279 70.3671 33.5479 70.3082C33.4678 70.2452 33.376 70.2117 33.2705 70.2075L33.2705 70.0227C33.4805 70.027 33.7285 70.0354 34.0098 70.0396C34.2949 70.0437 34.5811 70.048 34.8711 70.048C35.1602 70.048 35.4336 70.0437 35.6895 70.0396C35.9453 70.0354 36.1514 70.027 36.3066 70.0227L36.3066 70.2075C36.1133 70.2117 35.9668 70.2369 35.8613 70.2789C35.7568 70.3209 35.6982 70.3922 35.6807 70.5015C35.6641 70.6106 35.6934 70.7701 35.7695 70.9885L37.0371 74.8387L36.7686 75.4014L37.7051 72.4119C37.877 71.8618 37.9609 71.4293 37.9521 71.1102C37.9482 70.7911 37.873 70.5645 37.7305 70.4258C37.5869 70.2872 37.3945 70.2159 37.1465 70.2075L37.1465 70.0227C37.3818 70.027 37.5869 70.0354 37.7725 70.0396C37.9521 70.0437 38.1494 70.048 38.3594 70.048C38.4814 70.048 38.6074 70.0437 38.7373 70.0396C38.8633 70.0311 38.9766 70.0227 39.0693 70.0186Z" fill="#1B3764" fill-opacity="1.000000" fill-rule="nonzero"/>
	<path id="Vector" d="M51.2129 70.0105L51.2129 70.1952C51.0703 70.2625 50.9189 70.3926 50.7598 70.5773C50.5996 70.7621 50.4238 71.0476 50.2305 71.4255L48.5635 74.73L47.9424 74.73L45.7754 70.7242C45.6709 70.527 45.5742 70.3926 45.4814 70.317C45.3887 70.2415 45.3096 70.2079 45.2422 70.2079L45.2422 70.0146C45.4355 70.0315 45.6328 70.0483 45.8389 70.0566C46.0439 70.0651 46.2705 70.0693 46.5186 70.0693C46.834 70.0693 47.1738 70.0651 47.543 70.0525C47.9082 70.0399 48.248 70.0273 48.5547 70.0146L48.5547 70.2079C48.3994 70.2079 48.2568 70.212 48.1309 70.2246C48.001 70.2372 47.9082 70.2666 47.8535 70.3129C47.7988 70.359 47.7988 70.4387 47.8535 70.5563L49.252 73.2394L48.8154 73.8146L49.5918 72.261C49.8525 71.7488 49.9951 71.3457 50.0205 71.0476C50.0498 70.7537 49.9951 70.5354 49.8564 70.4052C49.7227 70.2709 49.5293 70.2036 49.2812 70.1952L49.2812 70.0105C49.5166 70.0146 49.7227 70.0231 49.9072 70.0273C50.0879 70.0315 50.2852 70.0356 50.4951 70.0356C50.6162 70.0356 50.7422 70.0315 50.873 70.0273C51.0068 70.0231 51.1201 70.0146 51.2129 70.0105ZM49.3691 72.9329L49.3691 75.5907C49.3691 75.8132 49.3867 75.9812 49.4199 76.0903C49.4531 76.1995 49.5166 76.275 49.6094 76.3129C49.7012 76.3507 49.8398 76.3759 50.0244 76.3884L50.0244 76.5732C49.8438 76.5605 49.6094 76.5522 49.3105 76.548C49.0166 76.5438 48.7227 76.5438 48.4336 76.5438C48.1182 76.5438 47.8164 76.5438 47.5225 76.548C47.2285 76.5522 46.9971 76.5605 46.834 76.5732L46.834 76.3884C47.0264 76.3759 47.165 76.3507 47.2578 76.3129C47.3496 76.275 47.4131 76.2037 47.4424 76.0903C47.4717 75.9812 47.4883 75.8132 47.4883 75.5907L47.4883 73.6929L48.4961 74.2681L49.3691 72.9329Z" fill="#1B3764" fill-opacity="1.000000" fill-rule="nonzero"/>
	<path id="Vector" d="M56.9697 69.8889C57.666 69.8889 58.2793 70.0233 58.7998 70.2878C59.3252 70.5524 59.7324 70.9344 60.0215 71.4298C60.3115 71.9253 60.458 72.5299 60.458 73.2395C60.458 73.9324 60.3115 74.537 60.0137 75.0535C59.7148 75.5698 59.3037 75.9772 58.7793 76.2668C58.25 76.5566 57.6455 76.7035 56.9609 76.7035C56.2637 76.7035 55.6504 76.5692 55.1299 76.3047C54.6055 76.0402 54.1982 75.6581 53.9082 75.1584C53.6182 74.6587 53.4717 74.0583 53.4717 73.3529C53.4717 72.6602 53.623 72.0555 53.9209 71.5391C54.2188 71.0226 54.6309 70.6154 55.1553 70.3256C55.6807 70.0359 56.2852 69.8889 56.9697 69.8889ZM56.9316 70.0569C56.625 70.0569 56.3564 70.1954 56.125 70.4725C55.8984 70.7496 55.7227 71.1317 55.5967 71.6188C55.4746 72.1058 55.4111 72.6727 55.4111 73.3109C55.4111 73.9659 55.4824 74.5327 55.626 75.0198C55.7686 75.5027 55.957 75.8763 56.2012 76.1409C56.4404 76.4012 56.7051 76.5356 56.999 76.5356C57.3047 76.5356 57.5742 76.397 57.8047 76.1199C58.0312 75.8428 58.208 75.4565 58.334 74.9695C58.4561 74.4781 58.5186 73.9155 58.5186 73.2815C58.5186 72.6223 58.4473 72.0513 58.3047 71.5685C58.1621 71.0856 57.9727 70.7161 57.7295 70.4515C57.4854 70.187 57.2207 70.0569 56.9316 70.0569Z" fill="#1B3764" fill-opacity="1.000000" fill-rule="nonzero"/>
	<path id="Vector" d="M63.2881 70.0186C63.4688 70.0227 63.7041 70.0311 63.998 70.0354C64.292 70.0396 64.5859 70.0437 64.8838 70.0437C65.1904 70.0437 65.4883 70.0396 65.7734 70.0354C66.0596 70.0311 66.2568 70.027 66.374 70.027C67.3105 70.027 68.0117 70.1571 68.4697 70.4216C68.9268 70.682 69.1582 71.0892 69.1582 71.6393C69.1582 71.866 69.1113 72.0885 69.0195 72.3069C68.9268 72.521 68.7715 72.7184 68.5488 72.8948C68.3262 73.071 68.0244 73.2096 67.6377 73.3104C67.252 73.4111 66.7646 73.4615 66.1729 73.4615L65.2822 73.4615L65.2822 73.2769L66.0801 73.2769C66.3955 73.2769 66.6348 73.2054 66.7979 73.0669C66.9619 72.9283 67.0713 72.7435 67.1299 72.5126C67.1885 72.2817 67.2178 72.0256 67.2178 71.7401C67.2178 71.2531 67.1514 70.8751 67.0205 70.6064C66.8867 70.3376 66.6602 70.2032 66.332 70.2032C66.1221 70.2032 65.9883 70.2537 65.9248 70.3586C65.8623 70.4636 65.833 70.6777 65.833 70.9968L65.833 75.5862C65.833 75.8087 65.8496 75.9767 65.8828 76.0858C65.917 76.1949 65.9795 76.2705 66.0723 76.3083C66.1641 76.3461 66.3027 76.3713 66.4873 76.3839L66.4873 76.5686C66.3066 76.556 66.0801 76.5476 65.7988 76.5435C65.5176 76.5393 65.2324 76.5393 64.9424 76.5393C64.6104 76.5393 64.2959 76.5393 64.002 76.5435C63.708 76.5476 63.4727 76.556 63.292 76.5686L63.292 76.3839C63.4854 76.3713 63.624 76.3461 63.7168 76.3083C63.8086 76.2705 63.8721 76.1992 63.9014 76.0858C63.9307 75.9767 63.9473 75.8087 63.9473 75.5862L63.9473 71.0011C63.9473 70.7743 63.9307 70.6063 63.9014 70.4972C63.8721 70.3881 63.8086 70.3167 63.7119 70.2747C63.6152 70.2327 63.4766 70.2117 63.292 70.2032L63.292 70.0186L63.2881 70.0186ZM65.2236 73.302C65.4463 73.3062 65.6562 73.3188 65.8535 73.3398C66.0508 73.3566 66.2314 73.3734 66.3994 73.3901C66.5674 73.407 66.7061 73.4154 66.8232 73.4237C67.4824 73.4531 67.9785 73.5707 68.3096 73.7681C68.6416 73.9655 68.8428 74.2551 68.9141 74.6372L69.1074 75.5988C69.1582 75.8254 69.2129 75.985 69.2754 76.069C69.3389 76.1572 69.4229 76.1992 69.5273 76.1992C69.5908 76.1992 69.6406 76.1908 69.6826 76.1698C69.7246 76.153 69.7715 76.1194 69.8135 76.0774L69.9346 76.1992C69.7412 76.3923 69.5361 76.5225 69.3096 76.5939C69.082 76.6653 68.8301 76.6989 68.5449 76.6989C68.1416 76.6989 67.8184 76.6274 67.5752 76.4805C67.3271 76.3335 67.1758 76.0732 67.1211 75.6995L66.9834 74.7758C66.9453 74.5238 66.8994 74.2971 66.8447 74.0997C66.79 73.9025 66.7139 73.7471 66.6221 73.6337C66.5293 73.5204 66.4033 73.4615 66.2441 73.4615L65.2451 73.4615L65.2236 73.302Z" fill="#1B3764" fill-opacity="1.000000" fill-rule="nonzero"/>
	<path id="Vector" d="M75.4688 70.0186L75.4688 70.2032C75.2842 70.2075 75.1455 70.2327 75.0488 70.2747C74.9521 70.3167 74.8896 70.3881 74.8604 70.4972C74.8301 70.6063 74.8135 70.7743 74.8135 71.0011L74.8135 75.5903C74.8135 75.8129 74.8301 75.9808 74.8643 76.09C74.8975 76.1992 74.9609 76.2748 75.0527 76.3125C75.1455 76.3503 75.2842 76.3755 75.4688 76.3881L75.4688 76.5729C75.2881 76.5603 75.0615 76.5519 74.7803 76.5476C74.499 76.5435 74.2129 76.5435 73.9238 76.5435C73.5918 76.5435 73.2773 76.5435 72.9834 76.5476C72.6895 76.5519 72.4541 76.5603 72.2734 76.5729L72.2734 76.3881C72.4668 76.3755 72.6055 76.3503 72.6973 76.3125C72.79 76.2748 72.8525 76.2034 72.8818 76.09C72.9121 75.9808 72.9287 75.8129 72.9287 75.5903L72.9287 71.0011C72.9287 70.7743 72.9121 70.6063 72.8818 70.4972C72.8525 70.3881 72.79 70.3167 72.6934 70.2747C72.5967 70.2327 72.458 70.2117 72.2734 70.2032L72.2734 70.0186C72.4541 70.0227 72.6895 70.0311 72.9834 70.0354C73.2773 70.0396 73.5879 70.0437 73.9238 70.0437C74.2129 70.0437 74.499 70.0396 74.7803 70.0354C75.0615 70.0311 75.2881 70.0227 75.4688 70.0186ZM78.8574 70.0186L78.8574 70.1949C78.6475 70.2495 78.416 70.3502 78.1602 70.5015C77.9043 70.6483 77.6309 70.8877 77.3418 71.2152L75.6367 73.1509L76.3887 72.1683L78.5801 75.8254C78.6602 75.9557 78.7393 76.0648 78.8193 76.1488C78.8994 76.2369 79.0078 76.3168 79.1426 76.3881L79.1426 76.5729C78.8818 76.5603 78.6094 76.5519 78.3154 76.5476C78.0215 76.5435 77.7441 76.5435 77.4795 76.5435C77.3369 76.5435 77.1611 76.5435 76.9512 76.5476C76.7412 76.5519 76.4766 76.5603 76.1533 76.5729L76.1533 76.3881C76.4424 76.3755 76.6104 76.3419 76.6572 76.2874C76.7031 76.2328 76.6826 76.1278 76.5859 75.9724L75.2422 73.7051C75.1787 73.5959 75.124 73.512 75.0742 73.4574C75.0234 73.4028 74.9775 73.3608 74.9316 73.3356C74.8848 73.3104 74.8262 73.2936 74.751 73.2894L74.751 73.0963C75.0234 73.0836 75.2793 72.9913 75.5195 72.8234C75.7588 72.6554 76.0479 72.3783 76.3887 71.9962L76.7031 71.6434C76.9639 71.3538 77.0977 71.1018 77.1143 70.8877C77.1318 70.6736 77.0645 70.5098 76.9219 70.3881C76.7744 70.2662 76.5859 70.2032 76.3506 70.1991L76.3506 70.0227C76.6104 70.027 76.8506 70.0354 77.0684 70.0396C77.2871 70.0437 77.5684 70.048 77.917 70.048C78.2988 70.048 78.6094 70.0354 78.8574 70.0186Z" fill="#1B3764" fill-opacity="1.000000" fill-rule="nonzero"/>
	<path id="Vector" d="M95.2197 88.9847L0 88.9847L0 0L95.2197 0L95.2197 88.9847ZM0.512695 88.4725L94.7031 88.4725L94.7031 0.512207L0.512695 0.512207L0.512695 88.4725Z" fill="#1B3764" fill-opacity="1.000000" fill-rule="nonzero"/>
	<path id="Vector" d="M0.00878906 58.3672L95.208 58.3672L95.208 58.8921L0.00878906 58.8921L0.00878906 58.3672Z" fill="#1B3764" fill-opacity="1.000000" fill-rule="evenodd"/>
	<path id="Vector" d="M47.1611 49.3359C39.5566 49.3359 34.1992 45.5026 34.1201 45.4437C33.7754 45.1918 33.7041 44.709 33.9521 44.3646C34.2041 44.0204 34.6865 43.949 35.0312 44.1967C35.4883 44.5284 46.3506 52.2583 59.0986 44.1672C59.459 43.9406 59.9336 44.0455 60.165 44.4066C60.3916 44.7677 60.2861 45.2422 59.9258 45.4731C55.3613 48.3661 50.9775 49.3359 47.1611 49.3359Z" fill="#1B3764" fill-opacity="1.000000" fill-rule="nonzero"/>
	<path id="Vector" d="M34.6396 45.2213C34.3252 45.2213 34.0264 45.024 33.9131 44.7091C33.7705 44.3103 33.9766 43.8651 34.3799 43.7224L39.3252 41.9506C39.7285 41.8077 40.1699 42.0135 40.3125 42.4166C40.4551 42.8154 40.249 43.2605 39.8467 43.4033L34.9004 45.1752C34.8164 45.2087 34.7275 45.2213 34.6396 45.2213Z" fill="#1B3764" fill-opacity="1.000000" fill-rule="nonzero"/>
	<path id="Vector" d="M36.7607 50.9014C36.458 50.9014 36.1729 50.725 36.0508 50.4312L33.7715 45.0272C33.6074 44.6368 33.7881 44.1833 34.1826 44.0154C34.5732 43.8516 35.0264 44.0321 35.1943 44.4269L37.4746 49.8307C37.6387 50.2212 37.458 50.6747 37.0635 50.8425C36.9619 50.8845 36.8613 50.9014 36.7607 50.9014Z" fill="#1B3764" fill-opacity="1.000000" fill-rule="nonzero"/>
</svg>
