<svg width="22.000000" height="22.000000" viewBox="0 0 22 22" fill="none" xmlns="http://www.w3.org/2000/svg" xmlns:xlink="http://www.w3.org/1999/xlink">
	<desc>
			Created with Pixso.
	</desc>
	<defs/>
	<path id="Vector" d="M8 21C7.44775 21 7 20.5522 7 20C7 19.4478 7.44775 19 8 19C8.55225 19 9 19.4478 9 20C9 20.5522 8.55225 21 8 21ZM19 21C18.4478 21 18 20.5522 18 20C18 19.4478 18.4478 19 19 19C19.5522 19 20 19.4478 20 20C20 20.5522 19.5522 21 19 21ZM1 1L4.63647 1L7.07275 13.4971C7.15576 13.9268 7.38354 14.3127 7.71606 14.5874C8.04834 14.8621 8.46436 15.0081 8.89087 14.9998L17.7273 14.9998C18.1538 15.0081 18.5698 14.8621 18.9023 14.5874C19.2346 14.3127 19.4624 13.9268 19.5454 13.4971L21 5.6665L5.54541 5.6665" stroke="#1B3764" stroke-opacity="1.000000" stroke-width="2.000000" stroke-linejoin="round" stroke-linecap="round"/>
</svg>
